<svg width="424" height="79" viewBox="0 0 424 79" fill="none" xmlns="http://www.w3.org/2000/svg">
<g clip-path="url(#clip0_1519_10703)">
<path d="M32.8393 73.7927L34.8591 58.5257H40.4251C43.4391 58.5257 45.1669 60.5977 44.7659 63.6292C44.3648 66.6608 42.0916 68.711 39.0776 68.711H35.4916L34.8193 73.7927H32.8393ZM35.7339 66.8789H39.1219C41.0799 66.8789 42.5042 65.5921 42.7639 63.6292C43.0236 61.6663 41.9398 60.3796 39.9818 60.3796H36.5938L35.7339 66.8789ZM46.0307 73.7927L48.0505 58.5257H57.2465L56.9954 60.4232H49.7794L49.1562 65.1341H55.9542L55.7089 66.988H48.9109L48.2617 71.8952H55.6317L55.3807 73.7927H46.0307ZM65.1098 74.0108C60.7098 74.0108 57.9144 70.6957 58.5146 66.1592C59.1148 61.6227 62.7873 58.3076 67.1873 58.3076C70.7733 58.3076 73.3477 60.4668 73.8111 63.7819H71.7871C71.2836 61.6009 69.4634 60.2269 66.9774 60.2269C63.6774 60.2269 60.9754 62.6914 60.5166 66.1592C60.0578 69.627 62.1078 72.0915 65.4078 72.0915C67.9158 72.0915 70.1082 70.652 71.1974 68.4056H73.2214C71.8942 71.7862 68.6958 74.0108 65.1098 74.0108ZM78.0071 73.7927L79.7817 60.3796H75.2057L75.4509 58.5257H86.5829L86.3377 60.3796H81.7617L79.9871 73.7927H78.0071ZM93.4723 74.0108C88.9843 74.0108 86.1449 70.6957 86.7451 66.1592C87.3452 61.6227 91.0618 58.3076 95.5498 58.3076C100.038 58.3076 102.877 61.6227 102.277 66.1592C101.677 70.6957 97.9603 74.0108 93.4723 74.0108ZM88.7471 66.1592C88.2912 69.6052 90.3602 72.0915 93.7262 72.0915C97.0922 72.0915 99.8192 69.6052 100.275 66.1592C100.731 62.7132 98.6619 60.2269 95.2959 60.2269C91.9299 60.2269 89.203 62.7132 88.7471 66.1592ZM104.64 73.7927L106.66 58.5257H112.226C115.24 58.5257 116.968 60.5977 116.567 63.6292C116.166 66.6608 113.892 68.711 110.878 68.711H107.292L106.62 73.7927H104.64ZM107.535 66.8789H110.923C112.881 66.8789 114.305 65.5921 114.565 63.6292C114.824 61.6663 113.741 60.3796 111.783 60.3796H108.395L107.535 66.8789ZM114.759 73.7927L114.785 73.5964L122.983 58.5257H124.413L128.623 73.5964L128.597 73.7927H126.529L125.562 70.1286H118.764L116.805 73.7927H114.759ZM119.732 68.2966H125.078L123.274 61.6445L119.732 68.2966ZM140.792 73.7927L141.692 66.988H133.86L132.96 73.7927H130.98L133 58.5257H134.98L134.111 65.0905H141.943L142.812 58.5257H144.792L142.772 73.7927H140.792ZM158.984 74.0108C155.398 74.0108 152.788 71.7862 152.356 68.4056H154.358C154.853 70.652 156.686 72.0915 159.194 72.0915C162.186 72.0915 164.676 70.0632 165.446 67.0752H157.856L158.098 65.2432H165.688C165.709 62.2552 163.756 60.2269 160.764 60.2269C158.278 60.2269 156.094 61.6009 155.013 63.7819H152.989C154.33 60.4668 157.476 58.3076 161.062 58.3076C165.462 58.3076 168.257 61.6227 167.657 66.1592C167.057 70.6957 163.384 74.0108 158.984 74.0108ZM175.672 74.1198L175.868 72.6368C171.557 72.4623 169.531 69.6488 170.007 66.0501C170.481 62.4733 173.251 59.6598 177.608 59.4853L177.801 58.0241H179.781L179.588 59.4853C183.635 59.6598 185.953 62.2552 185.451 66.0501C184.943 69.8887 181.941 72.4623 177.848 72.6368L177.652 74.1198H175.672ZM172.031 66.0501C171.662 68.8418 173.124 70.7611 176.14 70.9138L177.424 61.2083C174.368 61.361 172.404 63.2367 172.031 66.0501ZM178.032 70.9138C180.978 70.7611 183.046 68.9291 183.427 66.0501C183.808 63.1712 182.222 61.361 179.316 61.2083L178.032 70.9138ZM199.405 73.7927H197.425L198.928 62.4297L189.175 73.7927H187.613L189.632 58.5257H191.612L190.098 69.9759L199.906 58.5257H201.424L199.405 73.7927ZM210.498 74.0108C206.01 74.0108 203.17 70.6957 203.77 66.1592C204.371 61.6227 208.087 58.3076 212.575 58.3076C217.063 58.3076 219.903 61.6227 219.302 66.1592C218.702 70.6957 214.986 74.0108 210.498 74.0108ZM205.772 66.1592C205.317 69.6052 207.386 72.0915 210.752 72.0915C214.118 72.0915 216.845 69.6052 217.3 66.1592C217.756 62.7132 215.687 60.2269 212.321 60.2269C208.955 60.2269 206.228 62.7132 205.772 66.1592ZM221.665 73.7927L223.685 58.5257H235.125L233.105 73.7927H231.125L232.894 60.4232H225.414L223.645 73.7927H221.665ZM244.096 74.0108C239.696 74.0108 236.901 70.6957 237.501 66.1592C238.101 61.6227 241.774 58.3076 246.174 58.3076C249.76 58.3076 252.334 60.4668 252.797 63.7819H250.773C250.27 61.6009 248.45 60.2269 245.964 60.2269C242.664 60.2269 239.962 62.6914 239.503 66.1592C239.044 69.627 241.094 72.0915 244.394 72.0915C246.902 72.0915 249.095 70.652 250.184 68.4056H252.208C250.88 71.7862 247.682 74.0108 244.096 74.0108ZM263.423 73.7927L258.197 66.3991L258.275 65.8102L265.157 58.5257H267.467L267.441 58.722L260.377 66.0501L265.847 73.5964L265.821 73.7927H263.423ZM254.601 73.7927L256.621 58.5257H258.601L256.581 73.7927H254.601ZM274.586 74.0108C270.098 74.0108 267.258 70.6957 267.858 66.1592C268.459 61.6227 272.175 58.3076 276.663 58.3076C281.151 58.3076 283.991 61.6227 283.39 66.1592C282.79 70.6957 279.074 74.0108 274.586 74.0108ZM269.86 66.1592C269.404 69.6052 271.474 72.0915 274.84 72.0915C278.206 72.0915 280.932 69.6052 281.388 66.1592C281.844 62.7132 279.775 60.2269 276.409 60.2269C273.043 60.2269 270.316 62.7132 269.86 66.1592ZM297.545 73.7927H295.565L297.069 62.4297L287.315 73.7927H285.753L287.773 58.5257H289.753L288.238 69.9759L298.047 58.5257H299.565L297.545 73.7927ZM290.441 56.6501L290.658 55.0143H297.61L297.393 56.6501H290.441ZM316.36 73.7927L311.135 66.3991L311.213 65.8102L318.094 58.5257H320.404L320.378 58.722L313.315 66.0501L318.784 73.5964L318.758 73.7927H316.36ZM307.538 73.7927L309.558 58.5257H311.538L309.518 73.7927H307.538ZM322.566 73.7927L322.594 73.5746L325.134 69.3434L321.501 58.722L321.527 58.5257H323.661L325.346 63.5856L326.506 67.1188L328.527 63.651L331.581 58.5257H333.671L333.645 58.722L324.678 73.7927H322.566ZM332.486 73.7927L332.512 73.5964L338.904 65.8539L334.964 58.722L334.99 58.5257H337.256L339.535 62.5824L340.454 64.2835L341.82 62.6042L345.176 58.5257H347.442L347.416 58.722L341.547 65.832L345.888 73.5964L345.862 73.7927H343.552L340.713 68.6455L340.042 67.4024L339.041 68.6455L334.796 73.7927H332.486ZM358.257 73.7927L359.157 66.988H351.325L350.425 73.7927H348.445L350.465 58.5257H352.445L351.576 65.0905H359.408L360.277 58.5257H362.257L360.237 73.7927H358.257ZM376.243 73.7927H374.263L375.766 62.4297L366.013 73.7927H364.451L366.47 58.5257H368.45L366.936 69.9759L376.744 58.5257H378.262L376.243 73.7927Z" fill="white"/>
<path d="M20.8261 4.88485C21.4863 4.88485 22.1454 4.89325 22.8034 4.91004C23.4635 4.91004 24.1237 4.91004 24.7838 4.91004C25.2239 4.91004 25.6471 4.91004 26.0534 4.91004C26.4765 4.91004 26.9008 4.90164 27.3261 4.88485C27.817 4.88485 28.2042 4.90164 28.4876 4.93522C28.788 4.9688 29.0227 5.05275 29.1917 5.18707C29.3797 5.3046 29.5253 5.48928 29.6285 5.74113C29.7485 5.99297 29.8652 6.33716 29.9785 6.77369C30.335 8.2176 30.7191 9.64472 31.1308 11.0551C31.5615 12.4486 31.9551 13.8673 32.3116 15.3112C32.5989 16.5033 32.8428 17.7038 33.0433 18.9126C33.2459 20.1047 33.4728 21.3051 33.7241 22.514C33.8036 22.9505 33.9095 23.3787 34.0419 23.7984C34.1933 24.2013 34.3268 24.6127 34.4422 25.0324C34.9019 26.7282 35.3457 28.4156 35.7737 30.0945C36.2207 31.7567 36.6752 33.4273 37.137 35.1062C37.2922 35.7442 37.4569 36.3738 37.6312 36.9951C37.8054 37.6163 37.9977 38.2291 38.208 38.8335C38.3804 39.3372 38.4671 39.8493 38.468 40.3698C38.4712 40.8735 38.3166 41.4191 38.0042 42.0068C37.8984 42.0404 37.784 42.0739 37.6613 42.1075C37.5385 42.1411 37.4094 42.1579 37.2739 42.1579C36.1949 42.1243 35.118 42.0739 34.0433 42.0068C32.9834 41.9564 31.9149 41.906 30.8381 41.8557C30.6688 41.8557 30.4995 41.8557 30.3303 41.8557C30.1779 41.8557 30.0193 41.8389 29.8543 41.8053C29.408 41.7214 29.037 41.5786 28.7412 41.3772C28.4476 41.1589 28.2929 40.7811 28.2771 40.2439C28.2235 39.6059 28.1604 38.9762 28.0877 38.355C28.015 37.7338 27.9253 37.1126 27.8188 36.4914C27.7249 35.9037 27.566 35.4924 27.3422 35.2573C27.1206 35.0055 26.7475 34.8796 26.2227 34.8796C26.0534 34.8796 25.9254 34.888 25.8386 34.9048C24.7445 34.9887 23.6546 35.1062 22.5688 35.2573C21.483 35.4084 20.3931 35.526 19.299 35.6099C19.0599 35.6267 18.8207 35.6435 18.5816 35.6603C18.3446 35.6603 18.1076 35.6603 17.8707 35.6603C17.4813 35.6603 17.092 35.6603 16.7027 35.6603C16.3155 35.6435 15.9188 35.6351 15.5126 35.6351C15.1215 36.441 14.7219 37.2469 14.3139 38.0528C13.9059 38.8587 13.5201 39.6898 13.1564 40.5461C12.9905 40.9154 12.7942 41.1925 12.5674 41.3772C12.3575 41.5619 12.0568 41.6626 11.6654 41.6794C11.3394 41.713 11.0135 41.7465 10.6876 41.7801C10.3595 41.8305 10.0336 41.8641 9.70985 41.8809C7.96606 42.0152 6.22659 42.1159 4.49141 42.1831C4.27136 42.1831 4.05454 42.1579 3.84094 42.1075C3.64428 42.0571 3.44869 41.9984 3.25417 41.9312C2.65585 41.713 2.49808 41.2932 2.78085 40.672C2.97223 40.2355 3.15515 39.7989 3.32961 39.3624C3.50622 38.9091 3.70607 38.4726 3.92915 38.0528C4.70271 36.5082 5.48366 34.9719 6.27199 33.4441C7.06033 31.9162 7.84974 30.3799 8.64022 28.8353C9.3584 27.4585 10.0681 26.0818 10.7694 24.705C11.4876 23.3283 12.1983 21.9431 12.9017 20.5496C13.6965 18.9714 14.4638 17.4099 15.2035 15.8653C15.9623 14.3038 16.7391 12.734 17.5339 11.1558C18.0588 10.098 18.5985 9.05708 19.153 8.03291C19.7096 6.99196 20.2673 5.9426 20.8261 4.88485ZM19.7353 27.6516C20.6768 27.702 21.6183 27.7524 22.5597 27.8027C23.5012 27.8531 24.485 27.9035 25.511 27.9538C25.1954 26.1909 24.8807 24.4868 24.5669 22.8414C24.2722 21.1792 23.9733 19.4835 23.6703 17.7541C22.6423 19.5674 21.7793 21.3471 21.0815 23.0932C20.4027 24.8226 19.954 26.342 19.7353 27.6516ZM41.7795 41.2764C42.0001 40.0844 42.2078 38.9259 42.4028 37.801C42.5978 36.6761 42.7929 35.5512 42.9879 34.4262C43.1509 33.4189 43.3287 32.4283 43.5212 31.4545C43.7329 30.4639 43.8948 29.4649 44.007 28.4575C44.2226 26.6442 44.4021 24.8478 44.5457 23.068C44.6913 21.2716 44.8815 19.4583 45.1161 17.6282C45.2819 16.3354 45.4973 15.051 45.7625 13.775C46.0446 12.499 46.2854 11.2146 46.485 9.92175C46.6093 9.21658 46.6722 8.52821 46.6736 7.85662C46.6942 7.16825 46.7243 6.47148 46.7639 5.76631C46.7774 5.39694 46.7994 5.02757 46.8298 4.65819C46.8624 4.27203 46.8908 3.85229 46.9151 3.39897C48.2609 3.33181 49.5634 3.27305 50.8224 3.22268C52.0837 3.15552 53.3364 3.08836 54.5807 3.0212C55.279 2.98762 55.971 2.93725 56.6567 2.8701C57.3445 2.78615 58.0355 2.74417 58.7295 2.74417C58.8818 2.74417 59.0342 2.74417 59.1865 2.74417C59.3389 2.74417 59.4901 2.75257 59.6403 2.76936C60.4442 2.83652 61.2481 2.90368 62.052 2.97083C62.8559 3.03799 63.6459 3.14713 64.4221 3.29823C65.2005 3.43255 65.9544 3.62563 66.6838 3.87748C67.4323 4.11253 68.1425 4.44832 68.8144 4.88485C69.1588 5.10312 69.4545 5.37175 69.7013 5.69076C69.9651 6.00976 70.2395 6.31197 70.5245 6.5974C71.7111 7.77267 72.6498 9.09906 73.3405 10.5765C74.0313 12.054 74.613 13.5903 75.0856 15.1853C75.4637 16.4613 75.6237 17.7877 75.5657 19.1645C75.5076 20.5412 75.2973 21.918 74.9346 23.2947C74.4632 24.9905 73.9253 26.6778 73.3207 28.3568C72.7352 30.019 71.9203 31.6224 70.8759 33.167C70.4386 33.805 69.9633 34.4095 69.45 34.9803C68.9367 35.5512 68.4308 36.1304 67.9323 36.718C67.8729 36.7852 67.7977 36.844 67.7066 36.8943C67.6346 36.9279 67.5773 36.9783 67.5349 37.0454C67.297 37.4484 67.017 37.7842 66.6948 38.0528C66.3916 38.3047 66.059 38.5229 65.6968 38.7076C65.3515 38.8923 64.984 39.0518 64.5944 39.1861C64.2048 39.3204 63.8225 39.4631 63.4477 39.6143C62.0754 40.1515 60.7035 40.5545 59.3318 40.8231C57.9792 41.075 56.5993 41.2093 55.1922 41.2261C53.4804 41.2428 51.7728 41.2932 50.0693 41.3772C48.3659 41.4611 46.6656 41.5199 44.9686 41.5535H44.7909C44.3169 41.5535 43.8388 41.5199 43.3565 41.4527C42.8743 41.3856 42.3486 41.3268 41.7795 41.2764ZM52.2867 33.1922H52.9976H53.3277H53.7086H55.7652C56.273 33.1922 56.7724 33.1922 57.2633 33.1922C57.7711 33.1922 58.28 33.1838 58.7899 33.167C58.9761 33.167 59.1582 33.1334 59.336 33.0663C59.533 32.9823 59.7067 32.8816 59.8572 32.7641C60.665 32.0085 61.4253 31.2278 62.138 30.4219C62.8528 29.5992 63.4113 28.6758 63.8135 27.6516C64.3178 26.3588 64.7459 25.066 65.0978 23.7732C65.4498 22.4804 65.6187 21.1624 65.6048 19.8193C65.6012 18.5264 65.4654 17.2756 65.1972 16.0668C64.929 14.8579 64.3558 13.7834 63.4777 12.8431C63.2413 12.5745 62.9847 12.3311 62.708 12.1128C62.4335 11.8777 62.1345 11.7015 61.811 11.5839C60.6439 11.181 59.4087 10.9795 58.1053 10.9795C57.9191 10.9795 57.7233 10.9879 57.5181 11.0047C57.3149 11.0047 57.1192 11.0131 56.9309 11.0299C56.6579 11.0467 56.4335 11.0802 56.2578 11.1306C56.099 11.181 55.9623 11.2565 55.8479 11.3573C55.7503 11.458 55.6728 11.6007 55.6152 11.7854C55.5768 11.9533 55.5308 12.18 55.4773 12.4654C55.3681 13.053 55.2589 13.6407 55.1497 14.2283C55.0405 14.8159 54.9313 15.4036 54.8221 15.9912C54.58 17.3512 54.339 18.7027 54.0991 20.0459C53.8783 21.3723 53.6564 22.7071 53.4334 24.0502C53.3497 24.5707 53.2841 25.0828 53.2364 25.5865C53.1888 26.0902 53.1327 26.5939 53.0681 27.0976C52.9559 28.1049 52.8278 29.1039 52.6839 30.0945C52.5568 31.0851 52.4245 32.1177 52.2867 33.1922ZM77.6311 41.2764C77.8516 40.0844 78.0594 38.9259 78.2544 37.801C78.4494 36.6761 78.6444 35.5512 78.8394 34.4262C79.0024 33.4189 79.1802 32.4283 79.3728 31.4545C79.5844 30.4639 79.7463 29.4649 79.8586 28.4575C80.0741 26.6442 80.2537 24.8478 80.3972 23.068C80.5429 21.2716 80.7331 19.4583 80.9677 17.6282C81.1334 16.3354 81.3489 15.051 81.6141 13.775C81.8961 12.499 82.137 11.2146 82.3366 9.92175C82.4609 9.21658 82.5237 8.52821 82.5252 7.85662C82.5457 7.16825 82.5758 6.47148 82.6155 5.76631C82.629 5.39694 82.6509 5.02757 82.6814 4.65819C82.7139 4.27203 82.7424 3.85229 82.7666 3.39897C84.1125 3.33181 85.4149 3.27305 86.674 3.22268C87.9352 3.15552 89.188 3.08836 90.4322 3.0212C91.1306 2.98762 91.8226 2.93725 92.5083 2.8701C93.1961 2.78615 93.887 2.74417 94.581 2.74417C94.7334 2.74417 94.8857 2.74417 95.0381 2.74417C95.1904 2.74417 95.3417 2.75257 95.4919 2.76936C96.2958 2.83652 97.0997 2.90368 97.9035 2.97083C98.7074 3.03799 99.4975 3.14713 100.274 3.29823C101.052 3.43255 101.806 3.62563 102.535 3.87748C103.284 4.11253 103.994 4.44832 104.666 4.88485C105.01 5.10312 105.306 5.37175 105.553 5.69076C105.817 6.00976 106.091 6.31197 106.376 6.5974C107.563 7.77267 108.501 9.09906 109.192 10.5765C109.883 12.054 110.465 13.5903 110.937 15.1853C111.315 16.4613 111.475 17.7877 111.417 19.1645C111.359 20.5412 111.149 21.918 110.786 23.2947C110.315 24.9905 109.777 26.6778 109.172 28.3568C108.587 30.019 107.772 31.6224 106.727 33.167C106.29 33.805 105.815 34.4095 105.302 34.9803C104.788 35.5512 104.282 36.1304 103.784 36.718C103.724 36.7852 103.649 36.844 103.558 36.8943C103.486 36.9279 103.429 36.9783 103.386 37.0454C103.149 37.4484 102.869 37.7842 102.546 38.0528C102.243 38.3047 101.911 38.5229 101.548 38.7076C101.203 38.8923 100.836 39.0518 100.446 39.1861C100.056 39.3204 99.6741 39.4631 99.2993 39.6143C97.927 40.1515 96.555 40.5545 95.1833 40.8231C93.8307 41.075 92.4509 41.2093 91.0438 41.2261C89.332 41.2428 87.6244 41.2932 85.9209 41.3772C84.2174 41.4611 82.5172 41.5199 80.8202 41.5535H80.6424C80.1685 41.5535 79.6904 41.5199 79.2081 41.4527C78.7258 41.3856 78.2001 41.3268 77.6311 41.2764ZM88.1383 33.1922H88.8492H89.1793H89.5601H91.6168C92.1246 33.1922 92.6239 33.1922 93.1148 33.1922C93.6226 33.1922 94.1315 33.1838 94.6415 33.167C94.8277 33.167 95.0097 33.1334 95.1876 33.0663C95.3846 32.9823 95.5583 32.8816 95.7088 32.7641C96.5166 32.0085 97.2768 31.2278 97.9895 30.4219C98.7044 29.5992 99.2629 28.6758 99.665 27.6516C100.169 26.3588 100.597 25.066 100.949 23.7732C101.301 22.4804 101.47 21.1624 101.456 19.8193C101.453 18.5264 101.317 17.2756 101.049 16.0668C100.781 14.8579 100.207 13.7834 99.3292 12.8431C99.0928 12.5745 98.8363 12.3311 98.5596 12.1128C98.285 11.8777 97.986 11.7015 97.6625 11.5839C96.4955 11.181 95.2602 10.9795 93.9568 10.9795C93.7706 10.9795 93.5749 10.9879 93.3696 11.0047C93.1665 11.0047 92.9708 11.0131 92.7824 11.0299C92.5094 11.0467 92.2851 11.0802 92.1093 11.1306C91.9505 11.181 91.8139 11.2565 91.6994 11.3573C91.6019 11.458 91.5243 11.6007 91.4668 11.7854C91.4283 11.9533 91.3824 12.18 91.3288 12.4654C91.2196 13.053 91.1104 13.6407 91.0013 14.2283C90.8921 14.8159 90.7829 15.4036 90.6737 15.9912C90.4316 17.3512 90.1906 18.7027 89.9507 20.0459C89.7299 21.3723 89.5079 22.7071 89.285 24.0502C89.2013 24.5707 89.1356 25.0828 89.088 25.5865C89.0403 26.0902 88.9842 26.5939 88.9196 27.0976C88.8074 28.1049 88.6793 29.1039 88.5354 30.0945C88.4084 31.0851 88.276 32.1177 88.1383 33.1922ZM115.555 41.5535C115.405 41.1337 115.274 40.7727 115.16 40.4705C115.047 40.1683 114.94 39.8745 114.842 39.5891C114.934 39.1357 115.044 38.674 115.171 38.2039C115.299 37.7338 115.378 37.2553 115.406 36.7684C115.481 35.3917 115.631 34.0233 115.856 32.6633C116.099 31.3034 116.367 29.935 116.662 28.5583C116.882 27.5005 117.034 26.4512 117.116 25.4102C117.216 24.3692 117.351 23.3199 117.52 22.2621C117.808 20.281 118.017 18.3166 118.149 16.369C118.28 14.4214 118.378 12.4654 118.444 10.501C118.478 9.44325 118.579 8.39389 118.746 7.35293C118.93 6.31197 119.091 5.25423 119.229 4.17969C119.532 4.06216 119.812 3.98661 120.071 3.95303C120.346 3.91945 120.619 3.90266 120.89 3.90266C121.296 3.90266 121.69 3.92784 122.073 3.97821C122.473 4.02858 122.868 4.05377 123.257 4.05377H123.536C123.691 4.03698 123.844 4.02858 123.996 4.02858C124.166 4.02858 124.335 4.02858 124.504 4.02858C124.944 4.02858 125.383 4.03698 125.821 4.05377C126.276 4.07056 126.724 4.07895 127.164 4.07895C127.299 4.07895 127.418 4.07895 127.519 4.07895C127.638 4.07895 127.766 4.07056 127.903 4.05377H128.132C128.623 4.05377 128.915 4.1545 129.007 4.35598C129.1 4.55746 129.084 4.94362 128.96 5.51447C128.862 6.01816 128.831 6.52185 128.868 7.02554C128.922 7.52922 128.951 8.03291 128.954 8.5366C128.967 9.09066 128.981 9.64472 128.994 10.1988C129.008 10.7528 128.996 11.3069 128.959 11.861C128.852 13.3552 128.729 14.8411 128.591 16.3186C128.454 17.7793 128.3 19.2484 128.127 20.7259C127.985 21.834 127.801 22.9421 127.574 24.0502C127.366 25.1416 127.158 26.2413 126.948 27.3494C126.817 28.1049 126.67 28.8605 126.505 29.616C126.343 30.3548 126.204 31.1019 126.091 31.8574C125.91 32.9991 125.757 34.1324 125.629 35.2573C125.504 36.3655 125.36 37.4904 125.197 38.6321C125.173 38.8167 125.148 39.0098 125.122 39.2113C125.116 39.396 125.084 39.5807 125.026 39.7654C124.853 40.4537 124.615 40.9238 124.312 41.1757C124.028 41.4107 123.53 41.5283 122.819 41.5283C122.31 41.5451 121.801 41.5535 121.293 41.5535C120.785 41.5535 120.277 41.5535 119.769 41.5535H115.555ZM158.844 16.0164C158.178 16.0668 157.501 16.1255 156.816 16.1927C156.149 16.2431 155.473 16.3018 154.787 16.369C154.751 16.3858 154.691 16.3942 154.606 16.3942C154.217 16.3942 153.935 16.285 153.76 16.0668C153.587 15.8317 153.461 15.5547 153.384 15.2357C153.135 14.01 152.602 13.0782 151.787 12.4402C150.972 11.8022 149.912 11.4832 148.609 11.4832C148.169 11.4832 147.756 11.5336 147.371 11.6343C146.988 11.7182 146.657 11.8526 146.38 12.0372C146.102 12.2219 145.84 12.4822 145.594 12.818C145.348 13.1538 145.197 13.4728 145.141 13.775C145.064 14.2451 145.072 14.7152 145.164 15.1853C145.258 15.6386 145.415 16.0668 145.634 16.4697C145.87 16.8727 146.162 17.2336 146.511 17.5526C146.876 17.8717 147.276 18.1151 147.712 18.283C148.663 18.6524 149.617 19.005 150.572 19.3407C151.53 19.6597 152.475 20.0123 153.407 20.3985C154.033 20.6671 154.649 20.9442 155.256 21.2296C155.865 21.4982 156.451 21.8088 157.015 22.1614C157.582 22.4972 158.108 22.8834 158.593 23.3199C159.098 23.7396 159.543 24.2349 159.926 24.8058C160.924 26.2665 161.513 27.8111 161.694 29.4397C161.876 31.0515 161.554 32.7725 160.727 34.6025C160.402 35.2909 160.093 35.9793 159.802 36.6677C159.513 37.3393 159.068 37.9689 158.468 38.5565C157.694 39.312 156.861 39.9333 155.969 40.4202C155.078 40.9071 154.141 41.2764 153.161 41.5283C152.126 41.8137 151.089 42.0488 150.049 42.2334C149.027 42.4181 147.996 42.6028 146.957 42.7875C146.851 42.8211 146.747 42.8379 146.646 42.8379C146.544 42.8379 146.443 42.8379 146.341 42.8379C146.121 42.8379 145.902 42.8295 145.684 42.8127C145.466 42.7959 145.258 42.7707 145.059 42.7371C144.31 42.6364 143.553 42.5357 142.787 42.4349C142.038 42.3342 141.293 42.2083 140.551 42.0571C139.825 41.906 139.114 41.713 138.416 41.4779C137.72 41.2261 137.05 40.9071 136.406 40.5209C135.998 40.269 135.583 40.0088 135.16 39.7402C134.74 39.4547 134.419 39.119 134.197 38.7328C133.531 37.5911 132.953 36.4242 132.463 35.2322C131.991 34.0233 131.674 32.7389 131.509 31.3789C131.451 30.7745 131.53 30.296 131.744 29.9434C131.978 29.574 132.4 29.3138 133.012 29.1627C133.59 29.0116 134.163 28.9025 134.73 28.8353C135.314 28.7681 135.886 28.7346 136.444 28.7346C137.155 28.7346 137.844 28.7765 138.51 28.8605C139.193 28.9444 139.882 29.0536 140.575 29.1879C140.857 29.2382 141.043 29.3726 141.133 29.5908C141.243 29.7923 141.263 30.0274 141.195 30.296C141.054 31.0012 141.122 31.656 141.4 32.2604C141.68 32.848 142.08 33.3601 142.6 33.7966C143.119 34.2332 143.702 34.5774 144.346 34.8292C145.008 35.081 145.644 35.207 146.253 35.207C147.133 35.207 147.981 35.0643 148.796 34.7788C149.614 34.4766 150.279 33.9058 150.793 33.0663C151.43 32.0589 151.441 31.1187 150.825 30.2456C150.382 29.6076 149.845 29.1039 149.216 28.7346C148.588 28.3484 147.92 28.0126 147.212 27.7272C146.039 27.2403 144.864 26.7618 143.689 26.2917C142.514 25.8216 141.353 25.3011 140.208 24.7302C139.284 24.2769 138.423 23.7312 137.624 23.0932C136.845 22.4384 136.192 21.6577 135.665 20.7511C135.155 19.8444 134.787 18.8874 134.56 17.88C134.334 16.8727 134.27 15.8569 134.367 14.8327C134.484 13.7918 134.759 12.7676 135.193 11.7602C135.646 10.736 136.278 9.76225 137.091 8.83882C137.545 8.33513 138.038 7.91539 138.572 7.57959C139.106 7.2438 139.666 6.90801 140.25 6.57221C140.947 6.15247 141.652 5.80829 142.363 5.53965C143.077 5.25423 143.794 5.01078 144.514 4.8093C145.233 4.60783 145.957 4.43993 146.686 4.30561C147.431 4.17129 148.167 4.03698 148.895 3.90266C149.448 3.81871 149.99 3.75155 150.521 3.70118C151.069 3.65082 151.614 3.62563 152.156 3.62563C153.374 3.62563 154.56 3.75155 155.713 4.0034C156.867 4.23845 157.927 4.62461 158.89 5.16188C159.854 5.69915 160.678 6.40432 161.361 7.27738C162.047 8.13365 162.523 9.17461 162.789 10.4003C162.938 11.0886 163.033 11.7938 163.076 12.5158C163.138 13.2209 163.183 13.9261 163.211 14.6312C163.234 15.1181 163.12 15.4791 162.869 15.7142C162.636 15.9492 162.272 16.0836 161.777 16.1171C161.588 16.1339 161.391 16.1507 161.186 16.1675C161 16.1675 160.814 16.1675 160.628 16.1675C160.34 16.1675 160.044 16.1675 159.739 16.1675C159.436 16.1507 159.141 16.1423 158.854 16.1423L158.844 16.0164ZM190.196 11.3069C190.066 12.5829 189.947 13.8421 189.839 15.0846C189.73 16.327 189.617 17.603 189.5 18.9126H190.719H191.43C193.123 18.9126 194.807 18.9126 196.483 18.9126C198.158 18.9126 199.841 18.9294 201.529 18.963C201.681 18.963 201.882 18.9798 202.132 19.0133C202.381 19.0469 202.619 19.1057 202.846 19.1896C203.089 19.2736 203.295 19.3827 203.464 19.517C203.633 19.6514 203.712 19.8276 203.701 20.0459C203.662 20.4824 203.64 20.919 203.634 21.3555C203.646 21.792 203.649 22.2286 203.644 22.6651C203.639 23.1016 203.607 23.5466 203.549 23.9999C203.51 24.4364 203.411 24.8813 203.251 25.3347C203.094 25.7712 202.899 26.0986 202.668 26.3168C202.456 26.5183 202.153 26.6358 201.76 26.6694C201.008 26.7198 200.268 26.7534 199.538 26.7702C198.825 26.787 198.094 26.8121 197.345 26.8457C196.663 26.8793 195.99 26.9129 195.326 26.9465C194.663 26.9632 193.994 26.9716 193.317 26.9716H192.936C192.225 26.9716 191.517 26.9465 190.813 26.8961C190.125 26.8457 189.404 26.7954 188.648 26.745C188.492 27.4334 188.346 28.1133 188.209 28.7849C188.091 29.4397 187.948 30.0945 187.78 30.7493C187.483 32.0085 187.194 33.2678 186.914 34.527C186.651 35.7862 186.575 37.0454 186.684 38.3047C186.705 38.4054 186.699 38.5145 186.667 38.6321C186.654 38.7328 186.64 38.8419 186.625 38.9595C186.552 39.5303 186.479 39.9668 186.407 40.269C186.353 40.5545 186.241 40.7727 186.069 40.9238C185.914 41.075 185.673 41.1757 185.345 41.2261C185.033 41.2764 184.593 41.3436 184.024 41.4275C183.73 41.4779 183.438 41.5115 183.148 41.5283C182.858 41.5451 182.569 41.5535 182.281 41.5535C181.367 41.5535 180.468 41.5031 179.584 41.4023C178.702 41.2848 177.778 41.2261 176.813 41.2261H176.559C176.601 40.7727 176.637 40.353 176.67 39.9668C176.722 39.5639 176.772 39.1693 176.822 38.7832C176.975 37.3225 177.128 35.8702 177.279 34.4262C177.447 32.9823 177.609 31.5216 177.765 30.0441C177.816 29.5069 177.86 28.9696 177.895 28.4323C177.947 27.8951 178.024 27.3578 178.127 26.8205C178.481 24.7218 178.849 22.6399 179.232 20.5748C179.618 18.4929 179.962 16.4026 180.265 14.3038C180.441 13.0614 180.54 11.8274 180.562 10.6017C180.601 9.37609 180.657 8.14205 180.732 6.89961C180.76 6.54703 180.797 6.19445 180.842 5.84186C180.904 5.48928 180.949 5.1367 180.978 4.78412C181 4.34759 181.131 4.05377 181.37 3.90266C181.609 3.75155 181.925 3.6676 182.316 3.65082C184.572 3.61724 186.802 3.58366 189.007 3.55008C191.231 3.49971 193.46 3.47452 195.694 3.47452H197.04C198.409 3.49131 199.755 3.55847 201.077 3.676C202.399 3.79353 203.74 3.89427 205.101 3.97821C205.183 3.995 205.267 4.0034 205.351 4.0034C205.436 4.0034 205.521 4.0034 205.605 4.0034C205.741 4.0034 205.884 4.0034 206.037 4.0034C206.191 3.98661 206.353 3.97821 206.522 3.97821C206.807 4.53227 206.929 5.09473 206.89 5.66557C206.851 6.23642 206.76 6.81566 206.617 7.4033C206.49 7.99094 206.363 8.58697 206.235 9.1914C206.126 9.77904 206.134 10.3751 206.26 10.9795C205.096 10.9459 203.966 10.9123 202.87 10.8788C201.774 10.8452 200.676 10.8284 199.576 10.8284C199.373 10.8284 199.17 10.8284 198.966 10.8284C198.763 10.8284 198.551 10.8368 198.328 10.8536C197.021 10.8872 195.7 10.9543 194.367 11.0551C193.053 11.139 191.663 11.2229 190.196 11.3069ZM218.86 33.8974H225.233H228.331C228.72 33.8974 229.101 33.8974 229.474 33.8974C229.848 33.8806 230.23 33.8722 230.619 33.8722C230.856 33.8722 231.092 33.8806 231.327 33.8974C231.581 33.8974 231.834 33.9058 232.086 33.9226C232.456 33.9393 232.747 33.9813 232.958 34.0485C233.187 34.1156 233.342 34.2248 233.424 34.3759C233.525 34.5102 233.569 34.6949 233.556 34.9299C233.543 35.165 233.487 35.4672 233.389 35.8366C233.131 36.7936 232.891 37.7422 232.669 38.6824C232.449 39.6059 232.224 40.5041 231.993 41.3772C230.677 41.3436 229.402 41.3184 228.169 41.3016C226.935 41.2848 225.703 41.2596 224.472 41.2261C223.629 41.1925 222.796 41.1589 221.971 41.1253C221.165 41.075 220.347 41.0498 219.518 41.0498H218.807C217.313 41.0833 215.815 41.1505 214.312 41.2512C212.812 41.3352 211.31 41.4275 209.808 41.5283C209.687 41.5451 209.576 41.5535 209.474 41.5535C209.373 41.5535 209.28 41.5535 209.195 41.5535C208.552 41.5535 208.138 41.4191 207.952 41.1505C207.785 40.8651 207.737 40.3194 207.806 39.5135C207.956 37.6834 208.112 35.8786 208.272 34.0988C208.435 32.3024 208.59 30.4975 208.738 28.6842C208.816 27.5425 208.876 26.4176 208.916 25.3095C208.959 24.1846 209.02 23.0513 209.098 21.9096C209.127 21.4227 209.188 20.9442 209.283 20.474C209.396 19.9871 209.5 19.5002 209.597 19.0133C209.637 18.8287 209.669 18.644 209.693 18.4593C209.734 18.2746 209.766 18.0899 209.79 17.9052C209.818 17.4183 209.837 16.9398 209.847 16.4697C209.858 15.9828 209.904 15.4959 209.983 15.009C210.202 13.4308 210.428 11.8693 210.66 10.3247C210.909 8.78005 211.143 7.21862 211.362 5.64039C211.439 5.17028 211.56 4.75893 211.723 4.40635C211.906 4.03698 212.188 3.75155 212.57 3.55008H215.032H218.714C218.799 3.55008 218.877 3.53329 218.949 3.49971C219.04 3.44934 219.127 3.43255 219.209 3.44934C219.728 3.49971 220.144 3.55008 220.46 3.60045C220.792 3.65082 221.041 3.75155 221.208 3.90266C221.394 4.03698 221.51 4.25524 221.556 4.55746C221.601 4.85967 221.606 5.28781 221.569 5.84186C221.48 6.93319 221.357 8.02452 221.2 9.11585C221.045 10.1904 220.897 11.2817 220.755 12.3898C220.705 12.776 220.671 13.1705 220.654 13.5735C220.636 13.9765 220.601 14.3794 220.549 14.7824C220.403 15.7897 220.25 16.7887 220.089 17.7793C219.93 18.7531 219.796 19.7353 219.686 20.7259C219.567 21.918 219.448 23.11 219.329 24.3021C219.212 25.4774 219.119 26.661 219.051 27.8531C218.992 28.8437 218.95 29.8343 218.924 30.8249C218.916 31.8155 218.894 32.8396 218.86 33.8974ZM252.998 4.88485C253.658 4.88485 254.317 4.89325 254.975 4.91004C255.635 4.91004 256.296 4.91004 256.956 4.91004C257.396 4.91004 257.819 4.91004 258.225 4.91004C258.648 4.91004 259.073 4.90164 259.498 4.88485C259.989 4.88485 260.376 4.90164 260.659 4.93522C260.96 4.9688 261.195 5.05275 261.364 5.18707C261.552 5.3046 261.697 5.48928 261.8 5.74113C261.92 5.99297 262.037 6.33716 262.15 6.77369C262.507 8.2176 262.891 9.64472 263.303 11.0551C263.733 12.4486 264.127 13.8673 264.483 15.3112C264.771 16.5033 265.015 17.7038 265.215 18.9126C265.418 20.1047 265.645 21.3051 265.896 22.514C265.975 22.9505 266.081 23.3787 266.214 23.7984C266.365 24.2013 266.499 24.6127 266.614 25.0324C267.074 26.7282 267.518 28.4156 267.946 30.0945C268.393 31.7567 268.847 33.4273 269.309 35.1062C269.464 35.7442 269.629 36.3738 269.803 36.9951C269.977 37.6163 270.17 38.2291 270.38 38.8335C270.552 39.3372 270.639 39.8493 270.64 40.3698C270.643 40.8735 270.488 41.4191 270.176 42.0068C270.07 42.0404 269.956 42.0739 269.833 42.1075C269.71 42.1411 269.581 42.1579 269.446 42.1579C268.367 42.1243 267.29 42.0739 266.215 42.0068C265.155 41.9564 264.087 41.906 263.01 41.8557C262.841 41.8557 262.671 41.8557 262.502 41.8557C262.35 41.8557 262.191 41.8389 262.026 41.8053C261.58 41.7214 261.209 41.5786 260.913 41.3772C260.619 41.1589 260.465 40.7811 260.449 40.2439C260.395 39.6059 260.332 38.9762 260.26 38.355C260.187 37.7338 260.097 37.1126 259.991 36.4914C259.897 35.9037 259.738 35.4924 259.514 35.2573C259.292 35.0055 258.919 34.8796 258.395 34.8796C258.225 34.8796 258.097 34.888 258.01 34.9048C256.916 34.9887 255.826 35.1062 254.741 35.2573C253.655 35.4084 252.565 35.526 251.471 35.6099C251.232 35.6267 250.993 35.6435 250.753 35.6603C250.516 35.6603 250.279 35.6603 250.043 35.6603C249.653 35.6603 249.264 35.6603 248.875 35.6603C248.487 35.6435 248.091 35.6351 247.684 35.6351C247.293 36.441 246.894 37.2469 246.486 38.0528C246.078 38.8587 245.692 39.6898 245.328 40.5461C245.162 40.9154 244.966 41.1925 244.739 41.3772C244.529 41.5619 244.229 41.6626 243.837 41.6794C243.511 41.713 243.185 41.7465 242.859 41.7801C242.531 41.8305 242.205 41.8641 241.882 41.8809C240.138 42.0152 238.398 42.1159 236.663 42.1831C236.443 42.1831 236.226 42.1579 236.013 42.1075C235.816 42.0571 235.621 41.9984 235.426 41.9312C234.828 41.713 234.67 41.2932 234.953 40.672C235.144 40.2355 235.327 39.7989 235.501 39.3624C235.678 38.9091 235.878 38.4726 236.101 38.0528C236.875 36.5082 237.656 34.9719 238.444 33.4441C239.232 31.9162 240.022 30.3799 240.812 28.8353C241.53 27.4585 242.24 26.0818 242.941 24.705C243.659 23.3283 244.37 21.9431 245.074 20.5496C245.868 18.9714 246.636 17.4099 247.375 15.8653C248.134 14.3038 248.911 12.734 249.706 11.1558C250.231 10.098 250.77 9.05708 251.325 8.03291C251.881 6.99196 252.439 5.9426 252.998 4.88485ZM251.907 27.6516C252.849 27.702 253.79 27.7524 254.732 27.8027C255.673 27.8531 256.657 27.9035 257.683 27.9538C257.367 26.1909 257.053 24.4868 256.739 22.8414C256.444 21.1792 256.145 19.4835 255.842 17.7541C254.814 19.5674 253.951 21.3471 253.253 23.0932C252.575 24.8226 252.126 26.342 251.907 27.6516ZM313.977 4.55746C313.034 6.50506 312.132 8.3855 311.274 10.1988C310.415 12.0121 309.549 13.8169 308.675 15.6134C308.101 16.7887 307.52 17.9556 306.931 19.1141C306.36 20.2726 305.788 21.4311 305.216 22.5895C304.755 23.5466 304.312 24.4952 303.887 25.4354C303.48 26.3588 303.055 27.299 302.611 28.2561C302.073 29.4145 301.536 30.5646 301.001 31.7063C300.467 32.8312 299.94 33.9729 299.419 35.1314C299.066 35.9037 298.73 36.6761 298.411 37.4484C298.092 38.2207 297.772 39.0014 297.45 39.7905C297.159 40.4789 296.753 41.0078 296.231 41.3772C295.727 41.7465 295.111 41.9312 294.383 41.9312C293.355 41.8976 292.336 41.8557 291.327 41.8053C290.316 41.7717 289.296 41.7381 288.268 41.7046C287.66 41.6878 287.182 41.6542 286.833 41.6038C286.484 41.5535 286.201 41.4527 285.983 41.3016C285.785 41.1337 285.629 40.8987 285.515 40.5964C285.421 40.2774 285.317 39.8325 285.204 39.2617C284.8 37.2637 284.421 35.2657 284.068 33.2678C283.732 31.2698 283.371 29.2634 282.986 27.2487C282.382 24.0418 281.731 20.8686 281.033 17.7289C280.352 14.5893 279.639 11.4412 278.892 8.28476C278.775 7.74749 278.631 7.21862 278.461 6.69814C278.291 6.17766 278.109 5.6152 277.915 5.01078C278.214 4.92683 278.498 4.82609 278.767 4.70856C279.055 4.57425 279.335 4.49869 279.608 4.4819C280.48 4.41474 281.34 4.37277 282.189 4.35598C283.056 4.3224 283.922 4.30561 284.785 4.30561C285.174 4.30561 285.553 4.3224 285.921 4.35598C286.306 4.38956 286.693 4.40635 287.083 4.40635C288.12 4.37277 288.731 4.8177 288.917 5.74113C289.06 6.34555 289.176 6.95838 289.266 7.57959C289.374 8.18402 289.491 8.79684 289.614 9.41806C289.792 10.2743 289.981 11.1138 290.18 11.9365C290.379 12.7592 290.551 13.5987 290.695 14.455C291.014 16.4529 291.317 18.4509 291.602 20.4489C291.89 22.43 292.185 24.4196 292.487 26.4176C292.562 26.8877 292.646 27.3578 292.738 27.8279C292.832 28.2812 292.968 28.743 293.144 29.2131C293.372 28.6254 293.591 28.0378 293.802 27.4501C294.032 26.8457 294.278 26.2497 294.539 25.662C295.388 23.6641 296.243 21.6829 297.104 19.7185C297.967 17.7373 298.816 15.7394 299.65 13.7246C300.13 12.6165 300.57 11.5 300.968 10.3751C301.366 9.25016 301.781 8.12526 302.213 7.00035C302.236 6.94998 302.251 6.89961 302.258 6.84924C302.264 6.79887 302.279 6.74851 302.303 6.69814C302.511 6.26161 302.696 5.80829 302.858 5.33818C303.02 4.86806 303.249 4.46511 303.546 4.12932C303.686 3.96142 303.827 3.85229 303.969 3.80192C304.13 3.73476 304.286 3.70118 304.439 3.70118C304.71 3.70118 304.982 3.75155 305.257 3.85229C305.549 3.95303 305.839 4.0034 306.127 4.0034H306.177C306.465 4.0034 306.744 4.0034 307.015 4.0034C307.288 3.98661 307.569 3.97821 307.856 3.97821C308.669 3.97821 309.471 3.995 310.262 4.02858C311.055 4.04537 311.856 4.07056 312.664 4.10414C312.882 4.12093 313.095 4.17969 313.302 4.28043C313.509 4.38116 313.734 4.47351 313.977 4.55746ZM348.547 23.2695C348.531 24.0586 348.383 24.8813 348.104 25.7376C347.842 26.5939 347.461 27.4501 346.962 28.3064C346.767 28.6422 346.596 28.978 346.452 29.3138C346.324 29.6496 346.197 29.9854 346.069 30.3212C345.394 32.1513 344.452 33.7547 343.243 35.1314C342.034 36.5082 340.597 37.7506 338.931 38.8587C338.118 39.396 337.327 39.8829 336.56 40.3194C335.796 40.7392 335.021 41.1001 334.238 41.4023C333.457 41.6878 332.65 41.906 331.818 42.0571C331.001 42.225 330.127 42.309 329.196 42.309C328.163 42.309 327.152 42.2083 326.162 42.0068C325.19 41.8053 324.227 41.5199 323.276 41.1505C322.468 40.8483 321.659 40.5629 320.847 40.2942C320.054 40.0088 319.299 39.6226 318.583 39.1357C317.613 38.5145 316.792 37.7926 316.119 36.9699C315.462 36.1472 314.96 35.1818 314.611 34.0737C314.3 33.0663 314.083 32.0505 313.961 31.0263C313.84 29.9854 313.834 28.9108 313.942 27.8027C313.984 27.3494 314.008 26.8961 314.015 26.4428C314.04 25.9894 314.064 25.5361 314.088 25.0828C314.141 24.2769 314.251 23.4794 314.42 22.6903C314.606 21.9012 314.816 21.1204 315.051 20.3481C315.287 19.559 315.523 18.7783 315.757 18.006C315.994 17.2169 316.196 16.4277 316.365 15.6386C316.592 14.5305 317.008 13.5315 317.613 12.6417C318.235 11.7518 318.931 10.8788 319.701 10.0225C321.143 8.41068 322.726 7.15146 324.451 6.24482C326.177 5.32139 328.055 4.66659 330.085 4.28043C330.242 4.24685 330.399 4.21327 330.555 4.17969C330.729 4.14611 330.9 4.12932 331.069 4.12932H331.222C332.104 4.24685 332.969 4.36438 333.817 4.4819C334.685 4.58264 335.558 4.70017 336.438 4.83449C336.554 4.85128 336.667 4.89325 336.777 4.96041C336.889 5.01078 336.996 5.03596 337.098 5.03596C337.132 5.03596 337.167 5.02757 337.203 5.01078C337.556 4.89325 337.902 4.83449 338.241 4.83449C338.562 4.83449 338.869 4.88485 339.161 4.98559C339.455 5.06954 339.737 5.17867 340.008 5.31299C340.278 5.44731 340.548 5.59002 340.816 5.74113C341.086 5.87544 341.368 5.99297 341.659 6.09371C342.404 6.36234 343.086 6.71493 343.707 7.15146C344.328 7.58799 344.841 8.14205 345.246 8.81363C345.708 9.56917 346.179 10.3163 346.66 11.0551C347.141 11.7938 347.549 12.5745 347.883 13.3972C348.422 14.7404 348.732 16.2179 348.813 17.8297C348.896 19.4247 348.808 21.238 348.547 23.2695ZM324.269 23.8991C324.074 25.2927 323.962 26.6275 323.933 27.9035C323.924 29.1627 324.172 30.3967 324.678 31.6056C324.989 32.3443 325.354 32.932 325.772 33.3685C326.19 33.805 326.663 34.1408 327.192 34.3759C327.722 34.5941 328.313 34.7369 328.965 34.804C329.635 34.8544 330.36 34.8796 331.139 34.8796C332.053 34.8796 332.77 34.6949 333.292 34.3255C333.83 33.9561 334.299 33.3349 334.699 32.4619C334.837 32.1764 334.981 31.9078 335.132 31.656C335.285 31.3873 335.439 31.1103 335.594 30.8249C335.798 30.4219 336.001 30.0274 336.203 29.6412C336.424 29.2382 336.62 28.8269 336.793 28.4072C337.233 27.3494 337.563 26.2917 337.784 25.2339C338.004 24.1762 338.138 23.1268 338.187 22.0859C338.255 21.0281 338.237 19.9788 338.134 18.9378C338.047 17.8968 337.917 16.8643 337.744 15.8401C337.629 15.1517 337.465 14.5809 337.252 14.1276C337.042 13.6574 336.76 13.2797 336.407 12.9943C336.072 12.7088 335.666 12.5074 335.19 12.3898C334.716 12.2555 334.149 12.1884 333.489 12.1884C333.388 12.1884 333.286 12.1884 333.185 12.1884C333.1 12.1884 332.997 12.1967 332.877 12.2135C332.147 12.2303 331.48 12.2807 330.877 12.3646C330.293 12.4318 329.757 12.5829 329.27 12.818C328.783 13.053 328.332 13.3972 327.919 13.8505C327.505 14.3038 327.113 14.9167 326.744 15.689C326.095 17.049 325.547 18.4173 325.1 19.7941C324.653 21.1708 324.376 22.5392 324.269 23.8991ZM375.619 26.3924C376.013 27.5509 376.394 28.6674 376.764 29.7419C377.134 30.8165 377.485 31.9078 377.817 33.0159C378.086 33.9561 378.393 34.8628 378.738 35.7358C379.083 36.6089 379.542 37.4484 380.116 38.2543C380.291 38.4726 380.41 38.7328 380.473 39.035C380.536 39.3372 380.579 39.6646 380.601 40.0172C380.626 40.353 380.632 40.6972 380.621 41.0498C380.627 41.4023 380.65 41.7465 380.692 42.0823C380.495 42.1663 380.316 42.2418 380.155 42.309C380.009 42.3929 379.893 42.4349 379.809 42.4349C379.775 42.4349 379.751 42.4265 379.736 42.4097C379.514 42.2922 379.287 42.2166 379.054 42.1831C378.821 42.1495 378.586 42.1327 378.349 42.1327C378.028 42.1327 377.704 42.1495 377.378 42.1831C377.052 42.2166 376.728 42.2334 376.407 42.2334C375.544 42.2334 374.686 42.1915 373.833 42.1075C372.978 42.0404 372.125 41.9648 371.272 41.8809C370.771 41.8305 370.371 41.6458 370.074 41.3268C369.793 41.0078 369.588 40.63 369.457 40.1935C368.955 38.5649 368.47 36.9363 368.002 35.3077C367.536 33.6623 367.053 32.0169 366.553 30.3715C366.492 30.1869 366.43 30.0106 366.366 29.8427C366.322 29.658 366.249 29.4397 366.146 29.1879C365.481 29.2215 364.816 29.2634 364.149 29.3138C363.502 29.3474 362.854 29.381 362.207 29.4145C361.91 31.3286 361.62 33.2006 361.334 35.0307C361.051 36.844 360.758 38.6656 360.456 40.4957C360.398 40.8147 360.348 41.075 360.305 41.2764C360.264 41.4611 360.204 41.6038 360.123 41.7046C360.04 41.8221 359.929 41.8976 359.789 41.9312C359.65 41.9648 359.461 41.9816 359.224 41.9816H358.666C357.553 41.948 356.449 41.906 355.356 41.8557C354.262 41.8053 353.158 41.7633 352.046 41.7297C351.605 41.7297 351.322 41.629 351.196 41.4275C351.071 41.2093 351.034 40.9071 351.083 40.5209C351.315 38.9762 351.514 37.4232 351.681 35.8618C352.157 31.7483 352.615 27.6516 353.053 23.5717C353.509 19.4919 353.958 15.3952 354.4 11.2817C354.491 10.3079 354.564 9.34251 354.619 8.3855C354.674 7.42849 354.747 6.46308 354.838 5.48928C354.86 5.18707 354.889 4.96041 354.926 4.8093C354.981 4.6414 355.056 4.51548 355.152 4.43153C355.249 4.3308 355.379 4.24685 355.54 4.17969C355.717 4.11253 355.94 4.02858 356.207 3.92784C356.526 3.81032 356.832 3.73476 357.124 3.70118C357.419 3.65082 357.71 3.62563 357.997 3.62563C358.488 3.62563 358.958 3.65921 359.406 3.72637C359.872 3.79353 360.341 3.82711 360.815 3.82711H360.917C361.154 3.82711 361.379 3.85229 361.593 3.90266C361.808 3.93624 362.026 3.95303 362.246 3.95303C362.28 3.95303 362.323 3.95303 362.373 3.95303C362.426 3.93624 362.47 3.92784 362.503 3.92784C363.985 3.72637 365.437 3.62563 366.859 3.62563C368.365 3.62563 369.844 3.70958 371.295 3.87748C372.763 4.04537 374.235 4.24685 375.712 4.4819C376.89 4.66659 377.926 5.03596 378.82 5.59002C379.713 6.14408 380.574 6.7569 381.402 7.42849C381.894 7.81465 382.278 8.25957 382.551 8.76326C382.828 9.25016 383.04 9.77064 383.189 10.3247C383.338 10.8788 383.425 11.458 383.449 12.0624C383.492 12.6501 383.5 13.2461 383.473 13.8505C383.476 14.4885 383.393 15.1349 383.225 15.7897C383.075 16.4277 382.917 17.0657 382.751 17.7038C382.527 18.5264 382.224 19.3072 381.841 20.0459C381.459 20.7847 381.014 21.4814 380.507 22.1362C380 22.791 379.438 23.4122 378.821 23.9999C378.221 24.5875 377.58 25.1584 376.9 25.7124C376.694 25.8635 376.475 25.9894 376.242 26.0902C376.026 26.1909 375.819 26.2917 375.619 26.3924ZM363.351 21.4814C363.651 21.515 363.943 21.5486 364.226 21.5822C364.529 21.599 364.824 21.6073 365.112 21.6073C366.077 21.6073 367.019 21.515 367.94 21.3303C368.88 21.1288 369.825 20.8854 370.776 20.6C371.375 20.4153 371.847 20.1047 372.19 19.6681C372.534 19.2316 372.769 18.7195 372.895 18.1319C373.06 17.3764 373.139 16.6292 373.132 15.8905C373.125 15.1517 373.024 14.4214 372.829 13.6994C372.678 13.1622 372.442 12.692 372.121 12.2891C371.802 11.8693 371.366 11.6427 370.812 11.6091C370.274 11.5755 369.73 11.5336 369.177 11.4832C368.627 11.416 368.073 11.3825 367.515 11.3825C366.973 11.3825 366.417 11.4244 365.848 11.5084C365.279 11.5923 364.709 11.7434 364.139 11.9617C364.022 13.5399 363.888 15.1098 363.739 16.6712C363.606 18.2326 363.477 19.836 363.351 21.4814ZM413.004 16.0164C412.338 16.0668 411.662 16.1255 410.976 16.1927C410.309 16.2431 409.633 16.3018 408.947 16.369C408.911 16.3858 408.851 16.3942 408.766 16.3942C408.377 16.3942 408.095 16.285 407.92 16.0668C407.747 15.8317 407.622 15.5547 407.544 15.2357C407.295 14.01 406.763 13.0782 405.947 12.4402C405.132 11.8022 404.073 11.4832 402.769 11.4832C402.329 11.4832 401.916 11.5336 401.531 11.6343C401.148 11.7182 400.818 11.8526 400.54 12.0372C400.262 12.2219 400 12.4822 399.754 12.818C399.508 13.1538 399.357 13.4728 399.302 13.775C399.224 14.2451 399.232 14.7152 399.324 15.1853C399.418 15.6386 399.575 16.0668 399.794 16.4697C400.03 16.8727 400.322 17.2336 400.671 17.5526C401.036 17.8717 401.436 18.1151 401.872 18.283C402.823 18.6524 403.777 19.005 404.732 19.3407C405.69 19.6597 406.635 20.0123 407.568 20.3985C408.193 20.6671 408.809 20.9442 409.416 21.2296C410.025 21.4982 410.611 21.8088 411.176 22.1614C411.742 22.4972 412.268 22.8834 412.754 23.3199C413.258 23.7396 413.703 24.2349 414.086 24.8058C415.084 26.2665 415.673 27.8111 415.854 29.4397C416.036 31.0515 415.714 32.7725 414.887 34.6025C414.562 35.2909 414.254 35.9793 413.962 36.6677C413.673 37.3393 413.228 37.9689 412.628 38.5565C411.854 39.312 411.021 39.9333 410.129 40.4202C409.238 40.9071 408.302 41.2764 407.321 41.5283C406.286 41.8137 405.249 42.0488 404.21 42.2334C403.187 42.4181 402.156 42.6028 401.117 42.7875C401.011 42.8211 400.907 42.8379 400.806 42.8379C400.704 42.8379 400.603 42.8379 400.501 42.8379C400.281 42.8379 400.062 42.8295 399.844 42.8127C399.626 42.7959 399.418 42.7707 399.219 42.7371C398.47 42.6364 397.713 42.5357 396.947 42.4349C396.199 42.3342 395.453 42.2083 394.711 42.0571C393.985 41.906 393.274 41.713 392.576 41.4779C391.88 41.2261 391.21 40.9071 390.566 40.5209C390.158 40.269 389.743 40.0088 389.32 39.7402C388.9 39.4547 388.579 39.119 388.358 38.7328C387.691 37.5911 387.113 36.4242 386.623 35.2322C386.151 34.0233 385.834 32.7389 385.67 31.3789C385.612 30.7745 385.69 30.296 385.904 29.9434C386.138 29.574 386.561 29.3138 387.172 29.1627C387.75 29.0116 388.323 28.9025 388.89 28.8353C389.474 28.7681 390.046 28.7346 390.604 28.7346C391.315 28.7346 392.004 28.7765 392.67 28.8605C393.353 28.9444 394.042 29.0536 394.736 29.1879C395.017 29.2382 395.203 29.3726 395.293 29.5908C395.403 29.7923 395.424 30.0274 395.355 30.296C395.214 31.0012 395.282 31.656 395.56 32.2604C395.841 32.848 396.24 33.3601 396.76 33.7966C397.279 34.2332 397.862 34.5774 398.506 34.8292C399.168 35.081 399.804 35.207 400.413 35.207C401.293 35.207 402.141 35.0643 402.956 34.7788C403.774 34.4766 404.439 33.9058 404.953 33.0663C405.59 32.0589 405.601 31.1187 404.985 30.2456C404.542 29.6076 404.005 29.1039 403.376 28.7346C402.748 28.3484 402.08 28.0126 401.372 27.7272C400.199 27.2403 399.025 26.7618 397.849 26.2917C396.674 25.8216 395.513 25.3011 394.368 24.7302C393.444 24.2769 392.583 23.7312 391.785 23.0932C391.005 22.4384 390.352 21.6577 389.825 20.7511C389.315 19.8444 388.947 18.8874 388.721 17.88C388.494 16.8727 388.43 15.8569 388.527 14.8327C388.644 13.7918 388.919 12.7676 389.353 11.7602C389.806 10.736 390.438 9.76225 391.251 8.83882C391.705 8.33513 392.199 7.91539 392.733 7.57959C393.266 7.2438 393.826 6.90801 394.411 6.57221C395.108 6.15247 395.812 5.80829 396.523 5.53965C397.237 5.25423 397.954 5.01078 398.674 4.8093C399.394 4.60783 400.118 4.43993 400.846 4.30561C401.591 4.17129 402.327 4.03698 403.056 3.90266C403.608 3.81871 404.15 3.75155 404.681 3.70118C405.229 3.65082 405.774 3.62563 406.316 3.62563C407.534 3.62563 408.72 3.75155 409.873 4.0034C411.027 4.23845 412.087 4.62461 413.05 5.16188C414.014 5.69915 414.838 6.40432 415.521 7.27738C416.207 8.13365 416.683 9.17461 416.949 10.4003C417.098 11.0886 417.194 11.7938 417.236 12.5158C417.298 13.2209 417.343 13.9261 417.371 14.6312C417.394 15.1181 417.28 15.4791 417.029 15.7142C416.796 15.9492 416.432 16.0836 415.937 16.1171C415.748 16.1339 415.552 16.1507 415.346 16.1675C415.16 16.1675 414.974 16.1675 414.788 16.1675C414.5 16.1675 414.204 16.1675 413.899 16.1675C413.597 16.1507 413.301 16.1423 413.014 16.1423L413.004 16.0164Z" fill="white"/>
</g>
<defs>
<clipPath id="clip0_1519_10703">
<rect width="424" height="79" fill="white"/>
</clipPath>
</defs>
</svg>
