<svg width="499" height="117" viewBox="0 0 499 117" fill="none" xmlns="http://www.w3.org/2000/svg">
<rect width="59.4118" height="84.89" transform="matrix(0.999999 -0.00121197 -0.125966 0.992034 438.828 16.4513)" fill="#436421"/>
<path d="M444.973 82.7717L428.142 100.795L431.211 76.184L444.973 82.7717Z" fill="#436421"/>
<rect width="56.3909" height="84.89" transform="matrix(0.999999 -0.00121197 -0.125966 0.992034 10.6953 19.0182)" fill="#436421"/>
<path d="M56.5116 103.176L43.8348 83.507L59.8281 76.5818L56.5116 103.176Z" fill="#436421"/>
<path d="M456 0H56L45 85H445L456 0Z" fill="#436421"/>
<path d="M116.956 31.6513C117.413 31.6507 117.869 31.656 118.325 31.667C118.782 31.6665 119.239 31.6659 119.696 31.6654C120 31.665 120.293 31.6646 120.575 31.6643C120.868 31.664 121.161 31.6578 121.456 31.6458C121.796 31.6454 122.064 31.6567 122.26 31.6797C122.468 31.7027 122.63 31.7606 122.748 31.8535C122.878 31.9347 122.979 32.0624 123.05 32.2367C123.134 32.4109 123.215 32.6491 123.294 32.9512C123.542 33.9506 123.809 34.9382 124.095 35.9143C124.394 36.8787 124.668 37.8605 124.916 38.8599C125.116 39.6849 125.286 40.5158 125.426 41.3525C125.567 42.1776 125.725 43.0085 125.9 43.8452C125.955 44.1474 126.029 44.4437 126.121 44.7342C126.226 45.013 126.319 45.2977 126.399 45.5881C126.719 46.7617 127.028 47.9295 127.325 49.0915C127.636 50.2419 127.952 51.3981 128.273 52.56C128.381 53.0016 128.496 53.4374 128.617 53.8673C128.738 54.2972 128.872 54.7213 129.018 55.1396C129.138 55.4881 129.198 55.8426 129.199 56.2029C129.202 56.5516 129.095 56.9295 128.879 57.3366C128.806 57.36 128.727 57.3833 128.642 57.4066C128.557 57.43 128.468 57.4417 128.374 57.4418C127.627 57.4195 126.881 57.3855 126.137 57.3399C125.403 57.306 124.664 57.272 123.918 57.238C123.801 57.2382 123.684 57.2383 123.567 57.2384C123.461 57.2386 123.351 57.2271 123.237 57.204C122.928 57.1462 122.671 57.0477 122.466 56.9085C122.263 56.7576 122.155 56.4962 122.144 56.1243C122.106 55.6826 122.062 55.2468 122.011 54.8168C121.96 54.3868 121.898 53.9568 121.823 53.5268C121.758 53.1201 121.648 52.8354 121.492 52.6729C121.339 52.4987 121.08 52.4118 120.717 52.4123C120.6 52.4124 120.511 52.4183 120.451 52.43C119.694 52.4891 118.939 52.5714 118.188 52.6769C117.436 52.7824 116.682 52.8647 115.924 52.9237C115.759 52.9355 115.593 52.9474 115.428 52.9592C115.264 52.9594 115.1 52.9596 114.935 52.9598C114.666 52.9601 114.396 52.9604 114.127 52.9608C113.859 52.9495 113.584 52.944 113.303 52.9443C113.033 53.5026 112.757 54.0609 112.475 54.6191C112.193 55.1774 111.927 55.7531 111.676 56.3462C111.561 56.6021 111.426 56.794 111.269 56.9221C111.124 57.0501 110.916 57.1201 110.645 57.1321C110.419 57.1556 110.193 57.1791 109.968 57.2026C109.741 57.2378 109.515 57.2613 109.291 57.2732C108.084 57.3676 106.88 57.4388 105.678 57.4868C105.526 57.487 105.376 57.4697 105.228 57.435C105.092 57.4003 104.956 57.3598 104.822 57.3135C104.407 57.1629 104.298 56.8724 104.493 56.4421C104.625 56.1397 104.751 55.8374 104.872 55.535C104.994 55.221 105.132 54.9186 105.286 54.6279C105.82 53.5578 106.359 52.4936 106.904 51.4352C107.448 50.3768 107.994 49.3126 108.539 48.2425C109.036 47.2888 109.526 46.3351 110.01 45.3814C110.506 44.4276 110.997 43.4681 111.483 42.5027C112.032 41.4094 112.562 40.3278 113.072 39.2578C113.596 38.1762 114.133 37.0887 114.682 35.9954C115.044 35.2627 115.417 34.5416 115.8 33.8321C116.185 33.111 116.57 32.384 116.956 31.6513ZM116.22 47.4138C116.872 47.4479 117.523 47.4819 118.175 47.516C118.827 47.5501 119.508 47.5841 120.219 47.6181C119.999 46.3979 119.779 45.2184 119.561 44.0796C119.355 42.9291 119.147 41.7553 118.936 40.5584C118.225 41.8146 117.629 43.0474 117.148 44.2568C116.679 45.4546 116.37 46.5069 116.22 47.4138ZM131.492 56.8278C131.644 56.0024 131.787 55.2002 131.921 54.4212C132.055 53.6423 132.189 52.8633 132.323 52.0844C132.435 51.3868 132.558 50.7009 132.69 50.0266C132.836 49.3406 132.947 48.6488 133.024 47.9513C133.172 46.6958 133.294 45.4519 133.392 44.2197C133.492 42.9759 133.622 41.7204 133.783 40.4532C133.896 39.558 134.044 38.6686 134.227 37.785C134.421 36.9014 134.587 36.012 134.724 35.1168C134.809 34.6285 134.852 34.1519 134.853 33.6869C134.866 33.2104 134.887 32.728 134.913 32.2397C134.922 31.984 134.937 31.7283 134.958 31.4725C134.98 31.2051 135 30.9145 135.016 30.6007C135.948 30.5531 136.849 30.5113 137.721 30.4754C138.594 30.4278 139.461 30.3803 140.323 30.3327C140.806 30.3089 141.285 30.2734 141.76 30.2264C142.236 30.1677 142.714 30.138 143.195 30.1374C143.3 30.1373 143.406 30.1372 143.511 30.1371C143.617 30.1369 143.721 30.1426 143.825 30.1541C144.382 30.1999 144.939 30.2458 145.495 30.2916C146.052 30.3374 146.599 30.4123 147.136 30.5162C147.675 30.6086 148.197 30.7416 148.703 30.9154C149.221 31.0775 149.713 31.3093 150.178 31.611C150.417 31.7618 150.622 31.9475 150.793 32.1682C150.976 32.3888 151.166 32.5978 151.364 32.7952C152.186 33.6078 152.837 34.5253 153.317 35.5476C153.796 36.5699 154.2 37.633 154.529 38.7368C154.791 39.6199 154.903 40.538 154.864 41.4912C154.825 42.4444 154.681 43.3977 154.431 44.3511C154.106 45.5255 153.735 46.6941 153.318 47.857C152.914 49.0082 152.351 50.119 151.629 51.1892C151.327 51.6313 150.999 52.0501 150.644 52.4458C150.289 52.8414 149.939 53.2428 149.594 53.6501C149.553 53.6966 149.501 53.7374 149.438 53.7723C149.388 53.7956 149.349 53.8305 149.32 53.8771C149.155 54.1562 148.962 54.3889 148.739 54.5752C148.529 54.7498 148.299 54.9012 148.048 55.0293C147.81 55.1575 147.555 55.2682 147.286 55.3615C147.016 55.4549 146.752 55.554 146.492 55.6589C145.543 56.032 144.593 56.3121 143.644 56.4993C142.707 56.6747 141.752 56.7689 140.778 56.7817C139.593 56.7948 138.411 56.8311 137.232 56.8906C136.052 56.9502 134.875 56.9923 133.701 57.0169L133.578 57.0171C133.249 57.0175 132.918 56.9946 132.584 56.9485C132.25 56.9025 131.886 56.8622 131.492 56.8278ZM138.76 51.2222L139.252 51.2216L139.481 51.2214L139.744 51.2211L141.168 51.2193C141.52 51.2189 141.865 51.2185 142.205 51.2181C142.557 51.2176 142.909 51.2114 143.262 51.1994C143.391 51.1992 143.517 51.1758 143.64 51.1292C143.776 51.0709 143.897 51.001 144.001 50.9195C144.559 50.3958 145.085 49.8546 145.578 49.2961C146.072 48.7259 146.458 48.0862 146.735 47.3768C147.083 46.4813 147.379 45.586 147.621 44.6907C147.864 43.7953 147.98 42.8828 147.969 41.9529C147.965 41.0579 147.87 40.192 147.684 39.3553C147.497 38.5187 147.099 37.7752 146.49 37.1251C146.327 36.9393 146.149 36.7709 145.957 36.6201C145.767 36.4576 145.56 36.3358 145.336 36.2547C144.527 35.9767 143.672 35.8382 142.77 35.8393C142.641 35.8395 142.505 35.8455 142.363 35.8573C142.222 35.8574 142.087 35.8634 141.956 35.8752C141.768 35.8871 141.612 35.9105 141.491 35.9455C141.381 35.9805 141.286 36.0329 141.207 36.1028C141.14 36.1726 141.086 36.2715 141.046 36.3994C141.02 36.5156 140.988 36.6726 140.951 36.8702C140.876 37.2772 140.801 37.6841 140.726 38.091C140.651 38.4979 140.576 38.9048 140.501 39.3117C140.334 40.2535 140.169 41.1894 140.004 42.1194C139.852 43.0379 139.699 43.9622 139.546 44.8922C139.489 45.2526 139.444 45.6072 139.411 45.956C139.378 46.3047 139.34 46.6535 139.296 47.0022C139.219 47.6997 139.131 48.3914 139.032 49.0774C138.945 49.7633 138.854 50.4782 138.76 51.2222ZM156.313 56.7977C156.464 55.9723 156.607 55.1701 156.741 54.3911C156.875 53.6122 157.01 52.8332 157.144 52.0543C157.256 51.3567 157.378 50.6708 157.51 49.9965C157.656 49.3105 157.767 48.6188 157.844 47.9213C157.992 46.6657 158.115 45.4219 158.213 44.1896C158.312 42.9458 158.442 41.6903 158.603 40.4231C158.717 39.5279 158.865 38.6386 159.047 37.7549C159.241 36.8713 159.407 35.9819 159.544 35.0867C159.63 34.5984 159.673 34.1218 159.673 33.6569C159.687 33.1803 159.707 32.6979 159.734 32.2097C159.743 31.9539 159.758 31.6982 159.778 31.4424C159.801 31.1751 159.82 30.8845 159.836 30.5706C160.768 30.523 161.67 30.4812 162.541 30.4453C163.414 30.3977 164.282 30.3502 165.143 30.3026C165.626 30.2788 166.105 30.2433 166.58 30.1963C167.056 30.1376 167.535 30.1079 168.015 30.1074C168.12 30.1072 168.226 30.1071 168.331 30.107C168.437 30.1069 168.542 30.1125 168.646 30.124C169.202 30.1699 169.759 30.2157 170.315 30.2615C170.872 30.3073 171.419 30.3822 171.957 30.4862C172.496 30.5785 173.018 30.7115 173.523 30.8853C174.041 31.0474 174.533 31.2793 174.999 31.5809C175.237 31.7317 175.442 31.9175 175.613 32.1381C175.796 32.3587 175.986 32.5677 176.184 32.7651C177.007 33.5777 177.657 34.4952 178.137 35.5175C178.616 36.5398 179.02 37.6029 179.349 38.7067C179.612 39.5898 179.724 40.5079 179.685 41.4611C179.646 42.4143 179.501 43.3676 179.251 44.321C178.926 45.4954 178.555 46.6641 178.138 47.8269C177.734 48.9781 177.171 50.0889 176.45 51.1591C176.147 51.6012 175.819 52.02 175.464 52.4157C175.109 52.8113 174.759 53.2127 174.415 53.62C174.374 53.6665 174.322 53.7073 174.259 53.7422C174.209 53.7655 174.169 53.8005 174.14 53.847C173.976 54.1262 173.782 54.3589 173.559 54.5451C173.349 54.7197 173.119 54.8711 172.869 54.9993C172.63 55.1274 172.376 55.2381 172.106 55.3315C171.836 55.4248 171.572 55.5239 171.312 55.6288C170.363 56.0019 169.413 56.282 168.464 56.4692C167.528 56.6447 166.573 56.7388 165.598 56.7516C164.413 56.7647 163.231 56.801 162.052 56.8605C160.873 56.9201 159.696 56.9622 158.521 56.9869L158.398 56.987C158.07 56.9874 157.739 56.9646 157.405 56.9185C157.071 56.8724 156.707 56.8321 156.313 56.7977ZM163.58 51.1922L164.072 51.1916L164.301 51.1913L164.565 51.191L165.988 51.1892C166.34 51.1888 166.686 51.1884 167.025 51.188C167.377 51.1876 167.729 51.1813 168.082 51.1693C168.211 51.1691 168.337 51.1457 168.46 51.0991C168.597 51.0408 168.717 50.9709 168.821 50.8894C169.38 50.3657 169.905 49.8245 170.398 49.266C170.892 48.6958 171.278 48.0561 171.556 47.3467C171.904 46.4513 172.199 45.5559 172.442 44.6606C172.684 43.7653 172.8 42.8527 172.789 41.9228C172.786 41.0278 172.691 40.1619 172.504 39.3253C172.317 38.4886 171.919 37.7452 171.311 37.095C171.147 36.9092 170.969 36.7409 170.777 36.59C170.587 36.4275 170.38 36.3057 170.156 36.2246C169.347 35.9466 168.492 35.8082 167.59 35.8093C167.461 35.8094 167.325 35.8154 167.183 35.8272C167.043 35.8274 166.907 35.8333 166.777 35.8451C166.588 35.857 166.433 35.8804 166.311 35.9154C166.201 35.9504 166.106 36.0028 166.027 36.0727C165.96 36.1425 165.906 36.2414 165.867 36.3693C165.84 36.4856 165.808 36.6425 165.772 36.8402C165.697 37.2471 165.621 37.654 165.546 38.0609C165.471 38.4678 165.396 38.8747 165.321 39.2817C165.155 40.2234 164.989 41.1593 164.824 42.0894C164.672 43.0078 164.52 43.9321 164.366 44.8622C164.309 45.2226 164.264 45.5771 164.231 45.9259C164.199 46.2746 164.16 46.6234 164.116 46.9721C164.039 47.6697 163.951 48.3614 163.853 49.0473C163.765 49.7332 163.675 50.4481 163.58 51.1922ZM182.568 56.9577C182.464 56.6672 182.373 56.4174 182.294 56.2083C182.215 55.9992 182.141 55.7959 182.072 55.5983C182.136 55.2844 182.211 54.9647 182.3 54.6391C182.388 54.3136 182.442 53.9822 182.461 53.6451C182.512 52.6919 182.615 51.7445 182.769 50.8028C182.936 49.861 183.12 48.9135 183.324 47.9601C183.475 47.2276 183.579 46.501 183.635 45.7803C183.704 45.0596 183.796 44.333 183.912 43.6005C184.11 42.2287 184.253 40.8686 184.342 39.5201C184.432 38.1717 184.498 36.8175 184.542 35.4574C184.565 34.7251 184.634 33.9986 184.748 33.2778C184.875 32.5569 184.986 31.8245 185.08 31.0805C185.29 30.9989 185.484 30.9463 185.663 30.9229C185.853 30.8994 186.042 30.8875 186.23 30.8873C186.511 30.887 186.784 30.9041 187.049 30.9386C187.326 30.9732 187.599 30.9903 187.869 30.9899L188.062 30.9897C188.169 30.978 188.275 30.972 188.381 30.9719C188.498 30.9717 188.615 30.9716 188.732 30.9715C189.037 30.9711 189.341 30.9765 189.644 30.9878C189.959 30.999 190.269 31.0045 190.573 31.0041C190.667 31.004 190.749 31.0039 190.82 31.0038C190.902 31.0037 190.99 30.9978 191.085 30.986L191.244 30.9859C191.583 30.9854 191.786 31.0549 191.85 31.1943C191.914 31.3337 191.904 31.6011 191.818 31.9964C191.751 32.3452 191.73 32.6939 191.756 33.0426C191.794 33.3913 191.814 33.74 191.816 34.0887C191.826 34.4722 191.836 34.8558 191.846 35.2394C191.856 35.6229 191.848 36.0065 191.823 36.3901C191.75 37.4247 191.666 38.4535 191.572 39.4765C191.478 40.4879 191.373 41.5051 191.254 42.5281C191.157 43.2954 191.03 44.0627 190.874 44.83C190.731 45.5857 190.588 46.3473 190.443 47.1146C190.354 47.6378 190.252 48.1609 190.139 48.6841C190.027 49.1957 189.932 49.7131 189.854 50.2362C189.73 51.0268 189.624 51.8115 189.537 52.5904C189.452 53.3577 189.353 54.1366 189.241 54.9271C189.224 55.055 189.207 55.1887 189.19 55.3282C189.185 55.4561 189.163 55.5839 189.123 55.7119C189.004 56.1886 188.84 56.5142 188.63 56.6888C188.434 56.8518 188.089 56.9336 187.597 56.9342C187.244 56.9462 186.892 56.9525 186.54 56.9529C186.189 56.9533 185.837 56.9537 185.486 56.9542L182.568 56.9577ZM212.516 39.2419C212.055 39.2773 211.587 39.3186 211.112 39.3656C210.65 39.4011 210.182 39.4423 209.708 39.4894C209.683 39.5011 209.641 39.5069 209.582 39.507C209.313 39.5073 209.117 39.432 208.996 39.281C208.876 39.1184 208.789 38.9268 208.735 38.706C208.562 37.8577 208.192 37.213 207.627 36.772C207.062 36.331 206.329 36.111 205.426 36.1121C205.122 36.1125 204.836 36.1477 204.569 36.2178C204.304 36.2762 204.076 36.3695 203.883 36.4976C203.691 36.6257 203.51 36.806 203.34 37.0387C203.17 37.2714 203.066 37.4924 203.028 37.7016C202.975 38.0272 202.98 38.3526 203.044 38.678C203.11 38.9918 203.219 39.288 203.371 39.5668C203.535 39.8456 203.737 40.0952 203.979 40.3158C204.232 40.5363 204.509 40.7046 204.811 40.8204C205.47 41.0753 206.13 41.3186 206.792 41.5503C207.455 41.7704 208.11 42.0137 208.756 42.2802C209.189 42.4657 209.616 42.6569 210.036 42.854C210.458 43.0395 210.864 43.254 211.255 43.4977C211.647 43.7297 212.012 43.9966 212.349 44.2984C212.698 44.5885 213.006 44.9311 213.273 45.3259C213.964 46.3364 214.374 47.4052 214.5 48.5326C214.628 49.6483 214.406 50.84 213.835 52.1076C213.61 52.5845 213.398 53.0613 213.196 53.5381C212.997 54.0033 212.689 54.4396 212.275 54.8469C211.739 55.3706 211.163 55.8014 210.546 56.1392C209.929 56.477 209.281 56.7335 208.603 56.9087C207.887 57.1072 207.169 57.2708 206.449 57.3995C205.742 57.5282 205.028 57.657 204.309 57.7857C204.236 57.809 204.164 57.8207 204.093 57.8208C204.023 57.8209 203.953 57.821 203.882 57.8211C203.73 57.8213 203.579 57.8156 203.428 57.8042C203.277 57.7928 203.133 57.7755 202.995 57.7524C202.476 57.6833 201.952 57.6142 201.422 57.5451C200.903 57.476 200.387 57.3894 199.873 57.2854C199.371 57.1814 198.878 57.0484 198.395 56.8862C197.913 56.7125 197.449 56.4922 197.002 56.2254C196.72 56.0514 196.432 55.8715 196.139 55.6859C195.848 55.4887 195.625 55.2565 195.472 54.9893C195.01 54.1995 194.608 53.3921 194.268 52.5672C193.941 51.7307 193.72 50.8418 193.605 49.9004C193.564 49.482 193.618 49.1507 193.766 48.9064C193.928 48.6505 194.22 48.47 194.643 48.3648C195.043 48.2598 195.44 48.1837 195.832 48.1367C196.237 48.0898 196.632 48.066 197.019 48.0656C197.511 48.065 197.988 48.0935 198.449 48.151C198.922 48.2086 199.399 48.2835 199.879 48.3759C200.074 48.4106 200.203 48.5034 200.266 48.6544C200.342 48.7938 200.356 48.9565 200.309 49.1426C200.212 49.6309 200.26 50.0841 200.453 50.5024C200.648 50.909 200.925 51.2631 201.285 51.5649C201.645 51.8667 202.048 52.1045 202.495 52.2783C202.953 52.4521 203.393 52.5387 203.815 52.5382C204.424 52.5375 205.011 52.438 205.575 52.2397C206.141 52.0298 206.601 51.634 206.956 51.0524C207.397 50.3545 207.403 49.7035 206.976 49.0996C206.669 48.6583 206.297 48.31 205.861 48.0549C205.426 47.788 204.963 47.5561 204.473 47.3591C203.66 47.023 202.847 46.6927 202.033 46.3683C201.218 46.0438 200.415 45.6844 199.621 45.2902C198.981 44.9771 198.385 44.6001 197.831 44.159C197.291 43.7064 196.838 43.1664 196.473 42.5392C196.119 41.912 195.863 41.2497 195.706 40.5525C195.548 39.8553 195.503 39.1521 195.569 38.443C195.649 37.7222 195.839 37.0129 196.138 36.3152C196.451 35.6057 196.888 34.931 197.45 34.2911C197.764 33.942 198.105 33.651 198.475 33.418C198.844 33.1851 199.231 32.9522 199.635 32.7192C200.118 32.428 200.605 32.1892 201.097 32.0026C201.591 31.8044 202.087 31.6353 202.585 31.4952C203.084 31.3551 203.585 31.2382 204.089 31.1446C204.604 31.051 205.114 30.9574 205.618 30.8638C206.001 30.8052 206.376 30.7583 206.743 30.723C207.123 30.6876 207.5 30.6697 207.875 30.6693C208.719 30.6683 209.54 30.7545 210.338 30.9278C211.138 31.0896 211.871 31.3561 212.539 31.7272C213.206 32.0983 213.777 32.5858 214.251 33.1897C214.727 33.7819 215.057 34.5022 215.242 35.3505C215.346 35.8269 215.413 36.315 215.443 36.8148C215.486 37.303 215.518 37.7911 215.538 38.2793C215.554 38.6164 215.475 38.8664 215.302 39.0293C215.141 39.1922 214.889 39.2855 214.546 39.3092C214.416 39.321 214.28 39.3327 214.138 39.3445C214.009 39.3447 213.88 39.3449 213.751 39.345C213.552 39.3453 213.347 39.3455 213.136 39.3458C212.926 39.3344 212.722 39.3288 212.523 39.3291L212.516 39.2419ZM234.217 35.9552C234.128 36.8387 234.047 37.7105 233.973 38.5708C233.899 39.431 233.822 40.3145 233.742 41.2212L234.586 41.2202L235.078 41.2196C236.25 41.2182 237.416 41.2168 238.576 41.2154C239.736 41.214 240.901 41.2242 242.069 41.246C242.175 41.2459 242.314 41.2574 242.487 41.2804C242.66 41.3034 242.824 41.3439 242.981 41.4018C243.15 41.4598 243.292 41.5351 243.409 41.628C243.527 41.7208 243.581 41.8428 243.574 41.9939C243.547 42.2962 243.532 42.5984 243.529 42.9006C243.538 43.2028 243.54 43.505 243.537 43.8073C243.534 44.1095 243.512 44.4175 243.472 44.7314C243.446 45.0337 243.377 45.3418 243.267 45.6557C243.158 45.9581 243.024 46.1849 242.864 46.3362C242.718 46.4759 242.508 46.5575 242.236 46.5811C241.716 46.6166 241.203 46.6404 240.697 46.6527C240.204 46.6649 239.698 46.6829 239.179 46.7068C238.707 46.7306 238.242 46.7544 237.782 46.7782C237.323 46.7904 236.859 46.7968 236.391 46.7974L236.127 46.7977C235.635 46.7983 235.145 46.7814 234.657 46.7472C234.181 46.7129 233.682 46.6786 233.159 46.6444C233.051 47.1211 232.95 47.5919 232.856 48.057C232.775 48.5104 232.677 48.9639 232.561 49.4173C232.356 50.2893 232.157 51.1614 231.965 52.0334C231.784 52.9054 231.732 53.7772 231.808 54.6489C231.823 54.7186 231.819 54.7941 231.797 54.8755C231.788 54.9453 231.779 55.0209 231.768 55.1022C231.718 55.4975 231.668 55.7998 231.618 56.0091C231.581 56.2067 231.503 56.3579 231.385 56.4627C231.278 56.5674 231.111 56.6373 230.884 56.6725C230.668 56.7076 230.363 56.7545 229.969 56.8131C229.766 56.8482 229.564 56.8717 229.363 56.8836C229.162 56.8954 228.962 56.9015 228.763 56.9017C228.13 56.9025 227.508 56.8684 226.895 56.7994C226.285 56.7187 225.645 56.6788 224.977 56.6797L224.802 56.6799C224.83 56.366 224.855 56.0754 224.877 55.808C224.913 55.529 224.947 55.2558 224.981 54.9884C225.086 53.977 225.19 52.9715 225.294 51.9717C225.409 50.9719 225.52 49.9605 225.626 48.9375C225.662 48.5655 225.692 48.1935 225.715 47.8216C225.751 47.4496 225.804 47.0775 225.875 46.7055C226.118 45.2523 226.371 43.8106 226.635 42.3806C226.9 40.9389 227.136 39.4915 227.344 38.0383C227.465 37.178 227.533 36.3236 227.547 35.4751C227.573 34.6265 227.611 33.7721 227.661 32.9119C227.681 32.6678 227.706 32.4237 227.737 32.1795C227.779 31.9354 227.81 31.6913 227.83 31.4471C227.845 31.1449 227.935 30.9414 228.101 30.8366C228.266 30.7318 228.485 30.6734 228.756 30.6614C230.317 30.6363 231.861 30.6112 233.387 30.5861C234.927 30.5493 236.47 30.53 238.017 30.5282L238.949 30.527C239.897 30.5375 240.828 30.5829 241.744 30.6631C242.659 30.7434 243.588 30.812 244.53 30.869C244.587 30.8805 244.644 30.8863 244.703 30.8862C244.762 30.8861 244.82 30.886 244.879 30.886C244.973 30.8859 245.072 30.8857 245.178 30.8856C245.285 30.8739 245.397 30.8679 245.514 30.8678C245.711 31.2511 245.797 31.6404 245.77 32.0356C245.743 32.4309 245.68 32.832 245.582 33.2389C245.495 33.6458 245.408 34.0586 245.319 34.4771C245.244 34.8841 245.25 35.2967 245.338 35.715C244.532 35.6928 243.75 35.6705 242.991 35.6481C242.232 35.6258 241.472 35.6151 240.71 35.616C240.57 35.6162 240.429 35.6164 240.289 35.6165C240.148 35.6167 240.001 35.6227 239.847 35.6345C238.942 35.6589 238.027 35.7065 237.105 35.7773C236.195 35.8365 235.232 35.8958 234.217 35.9552ZM254.081 51.5707L258.493 51.5653L260.637 51.5627C260.907 51.5624 261.17 51.5621 261.428 51.5618C261.688 51.5498 261.952 51.5437 262.221 51.5434C262.386 51.5432 262.549 51.5488 262.711 51.5602C262.887 51.56 263.062 51.5656 263.237 51.577C263.493 51.5883 263.694 51.6171 263.841 51.6635C263.999 51.7098 264.107 51.7852 264.164 51.8897C264.234 51.9826 264.264 52.1105 264.255 52.2732C264.246 52.4359 264.208 52.6452 264.141 52.901C263.963 53.5638 263.797 54.2207 263.644 54.8718C263.493 55.5113 263.338 56.1333 263.179 56.738C262.268 56.7158 261.385 56.6995 260.531 56.6889C259.677 56.6783 258.824 56.6619 257.971 56.6397C257.388 56.6171 256.811 56.5946 256.24 56.572C255.682 56.5378 255.116 56.5211 254.542 56.5218L254.049 56.5224C253.015 56.5469 251.978 56.5946 250.938 56.6656C249.899 56.725 248.86 56.7902 247.82 56.8612C247.736 56.8729 247.659 56.8788 247.589 56.8789C247.519 56.879 247.454 56.8791 247.396 56.8791C246.95 56.8797 246.663 56.787 246.535 56.6012C246.419 56.4038 246.385 56.026 246.433 55.468C246.535 54.2009 246.641 52.9513 246.75 51.719C246.861 50.4752 246.967 49.2255 247.068 47.97C247.122 47.1796 247.162 46.4007 247.189 45.6335C247.218 44.8547 247.259 44.0701 247.312 43.2796C247.332 42.9425 247.374 42.6112 247.439 42.2856C247.517 41.9485 247.589 41.6113 247.655 41.2741C247.683 41.1462 247.705 41.0183 247.721 40.8905C247.749 40.7626 247.771 40.6347 247.787 40.5068C247.807 40.1697 247.82 39.8384 247.826 39.5129C247.833 39.1758 247.865 38.8387 247.919 38.5016C248.07 37.4088 248.224 36.3276 248.384 35.258C248.555 34.1884 248.715 33.1073 248.866 32.0144C248.919 31.6889 249.002 31.404 249.115 31.1598C249.241 30.9039 249.436 30.7061 249.7 30.5663L251.405 30.5642L253.954 30.5611C254.012 30.5611 254.067 30.5494 254.116 30.5261C254.18 30.4911 254.24 30.4794 254.297 30.491C254.656 30.5254 254.944 30.5599 255.162 30.5945C255.392 30.6291 255.565 30.6987 255.681 30.8031C255.809 30.896 255.89 31.047 255.922 31.2562C255.954 31.4654 255.957 31.7618 255.932 32.1454C255.871 32.901 255.787 33.6566 255.679 34.4123C255.573 35.1563 255.471 35.912 255.374 36.6793C255.34 36.9466 255.317 37.2198 255.305 37.4988C255.293 37.7778 255.269 38.0568 255.234 38.3358C255.134 39.0333 255.028 39.7251 254.918 40.411C254.809 41.0853 254.716 41.7654 254.641 42.4513C254.56 43.2766 254.478 44.102 254.397 44.9274C254.317 45.7411 254.254 46.5607 254.208 47.386C254.168 48.0719 254.139 48.7577 254.122 49.4435C254.117 50.1293 254.103 50.8384 254.081 51.5707ZM277.69 31.4565C278.147 31.4559 278.603 31.4612 279.059 31.4722C279.516 31.4717 279.973 31.4711 280.43 31.4706C280.735 31.4702 281.028 31.4698 281.309 31.4695C281.602 31.4691 281.896 31.463 282.19 31.451C282.53 31.4506 282.798 31.4619 282.994 31.4849C283.202 31.5079 283.365 31.5658 283.482 31.6587C283.612 31.7399 283.713 31.8676 283.785 32.0419C283.868 32.2161 283.949 32.4543 284.028 32.7564C284.276 33.7558 284.543 34.7434 284.829 35.7195C285.129 36.6839 285.402 37.6657 285.65 38.6651C285.85 39.4901 286.02 40.321 286.16 41.1577C286.301 41.9828 286.459 42.8137 286.634 43.6504C286.69 43.9526 286.763 44.2489 286.855 44.5393C286.96 44.8182 287.053 45.1029 287.133 45.3933C287.453 46.5669 287.762 47.7347 288.059 48.8967C288.37 50.0471 288.686 51.2033 289.008 52.3652C289.115 52.8068 289.23 53.2426 289.351 53.6725C289.472 54.1024 289.606 54.5265 289.752 54.9448C289.872 55.2933 289.932 55.6478 289.933 56.0081C289.936 56.3568 289.829 56.7347 289.614 57.1418C289.54 57.1651 289.461 57.1885 289.376 57.2118C289.291 57.2352 289.202 57.2469 289.108 57.247C288.361 57.2247 287.616 57.1907 286.872 57.1451C286.138 57.1112 285.398 57.0772 284.652 57.0432C284.535 57.0434 284.418 57.0435 284.301 57.0436C284.195 57.0438 284.085 57.0323 283.971 57.0092C283.662 56.9514 283.405 56.8529 283.2 56.7137C282.997 56.5628 282.889 56.3014 282.878 55.9295C282.84 55.4878 282.796 55.052 282.745 54.622C282.694 54.192 282.632 53.762 282.558 53.332C282.492 52.9253 282.382 52.6406 282.227 52.4781C282.073 52.3039 281.815 52.217 281.451 52.2175C281.334 52.2176 281.245 52.2235 281.185 52.2352C280.428 52.2943 279.674 52.3766 278.922 52.4821C278.17 52.5876 277.416 52.6699 276.659 52.7289C276.493 52.7407 276.327 52.7526 276.162 52.7644C275.998 52.7646 275.834 52.7648 275.67 52.765C275.4 52.7653 275.131 52.7656 274.861 52.766C274.593 52.7547 274.318 52.7492 274.037 52.7495C273.767 53.3078 273.491 53.8661 273.209 54.4243C272.928 54.9826 272.661 55.5583 272.41 56.1514C272.296 56.4073 272.16 56.5992 272.003 56.7273C271.858 56.8553 271.65 56.9253 271.379 56.9373C271.153 56.9608 270.928 56.9843 270.702 57.0078C270.475 57.043 270.249 57.0665 270.025 57.0784C268.818 57.1728 267.614 57.244 266.413 57.292C266.26 57.2922 266.11 57.2749 265.962 57.2402C265.826 57.2055 265.691 57.165 265.556 57.1187C265.141 56.9681 265.032 56.6776 265.227 56.2473C265.359 55.9449 265.486 55.6425 265.606 55.3402C265.728 55.0262 265.866 54.7238 266.02 54.433C266.554 53.363 267.094 52.2988 267.638 51.2404C268.183 50.182 268.728 49.1178 269.274 48.0477C269.77 47.094 270.26 46.1403 270.744 45.1865C271.24 44.2328 271.731 43.2733 272.217 42.3079C272.766 41.2146 273.296 40.133 273.807 39.063C274.331 37.9814 274.867 36.8939 275.416 35.8006C275.779 35.0679 276.151 34.3468 276.534 33.6373C276.919 32.9162 277.304 32.1892 277.69 31.4565ZM276.954 47.219C277.606 47.253 278.258 47.2871 278.909 47.3212C279.561 47.3553 280.242 47.3893 280.953 47.4233C280.733 46.2031 280.513 45.0236 280.295 43.8848C280.089 42.7343 279.881 41.5605 279.67 40.3636C278.96 41.6198 278.364 42.8526 277.882 44.062C277.414 45.2598 277.104 46.3121 276.954 47.219ZM319.906 31.1786C319.255 32.5278 318.632 33.8304 318.039 35.0864C317.446 36.3425 316.848 37.5928 316.245 38.8372C315.848 39.6513 315.447 40.4597 315.04 41.2622C314.646 42.0647 314.251 42.8672 313.856 43.6697C313.537 44.3327 313.231 44.9898 312.938 45.641C312.657 46.2807 312.364 46.932 312.057 47.5949C311.686 48.3974 311.315 49.194 310.945 49.9849C310.577 50.7641 310.213 51.5549 309.853 52.3574C309.609 52.8924 309.377 53.4274 309.157 53.9623C308.937 54.4973 308.716 55.038 308.494 55.5846C308.293 56.0614 308.012 56.4279 307.651 56.6841C307.303 56.9402 306.876 57.0686 306.372 57.0692C305.66 57.0468 304.955 57.0186 304.256 56.9846C303.556 56.9622 302.85 56.9398 302.138 56.9174C301.718 56.9063 301.387 56.8834 301.145 56.8489C300.904 56.8143 300.707 56.7448 300.557 56.6404C300.419 56.5243 300.311 56.3617 300.232 56.1526C300.166 55.9318 300.094 55.6239 300.015 55.2287C299.734 53.8459 299.47 52.463 299.224 51.0801C298.989 49.6971 298.738 48.3084 298.47 46.9139C298.049 44.6943 297.595 42.498 297.11 40.325C296.636 38.1519 296.139 35.9731 295.62 33.7885C295.538 33.4166 295.438 33.0506 295.32 32.6904C295.201 32.3302 295.075 31.941 294.941 31.5227C295.147 31.4644 295.344 31.3944 295.53 31.3128C295.729 31.2196 295.923 31.167 296.112 31.1552C296.716 31.1079 297.311 31.0782 297.899 31.0658C298.499 31.0418 299.098 31.0295 299.696 31.0288C299.966 31.0284 300.228 31.0397 300.483 31.0627C300.749 31.0856 301.017 31.0969 301.287 31.0966C302.005 31.0725 302.428 31.38 302.558 32.0191C302.657 32.4374 302.738 32.8616 302.801 33.2916C302.876 33.71 302.957 34.1341 303.043 34.5641C303.167 35.1568 303.299 35.7378 303.437 36.3072C303.576 36.8766 303.695 37.4576 303.796 38.0503C304.019 39.4332 304.23 40.8162 304.429 42.1991C304.63 43.5705 304.836 44.9476 305.047 46.3306C305.099 46.656 305.157 46.9814 305.222 47.3068C305.287 47.6205 305.381 47.94 305.504 48.2654C305.661 47.8583 305.813 47.4513 305.958 47.0443C306.117 46.6257 306.286 46.2128 306.467 45.8058C307.053 44.4219 307.643 43.0496 308.237 41.6889C308.833 40.3166 309.419 38.9327 309.995 37.5371C310.327 36.7696 310.63 35.9962 310.905 35.2171C311.179 34.438 311.466 33.6589 311.764 32.8797C311.78 32.8448 311.79 32.81 311.795 32.7751C311.799 32.7402 311.809 32.7053 311.825 32.6704C311.969 32.368 312.097 32.0541 312.209 31.7285C312.32 31.4029 312.479 31.1237 312.684 30.891C312.781 30.7746 312.878 30.699 312.977 30.664C313.088 30.6173 313.196 30.594 313.302 30.5938C313.489 30.5936 313.678 30.6282 313.869 30.6978C314.071 30.7672 314.271 30.8019 314.471 30.8016L314.506 30.8016C314.705 30.8014 314.898 30.8011 315.086 30.8009C315.275 30.789 315.469 30.783 315.668 30.7827C316.231 30.7821 316.786 30.793 317.334 30.8156C317.883 30.8266 318.437 30.8433 318.997 30.8659C319.148 30.8773 319.295 30.9178 319.438 30.9874C319.582 31.057 319.738 31.1207 319.906 31.1786ZM343.855 44.1041C343.844 44.6504 343.742 45.2201 343.55 45.8132C343.369 46.4062 343.106 46.9993 342.762 47.5925C342.627 47.8252 342.509 48.0578 342.409 48.2904C342.321 48.523 342.233 48.7555 342.145 48.9881C341.679 50.2556 341.029 51.3665 340.193 52.3206C339.357 53.2748 338.363 54.1361 337.211 54.9047C336.648 55.2773 336.101 55.6151 335.571 55.9179C335.042 56.2092 334.506 56.4597 333.964 56.6696C333.423 56.8679 332.865 57.0197 332.289 57.125C331.723 57.2419 331.118 57.3007 330.474 57.3015C329.759 57.3024 329.059 57.2335 328.373 57.0948C327.7 56.9562 327.033 56.7594 326.374 56.5045C325.815 56.2959 325.254 56.099 324.692 55.9137C324.143 55.7168 323.62 55.45 323.124 55.1136C322.452 54.6843 321.883 54.1852 321.416 53.6162C320.961 53.0472 320.612 52.3792 320.37 51.6124C320.154 50.9152 320.003 50.2122 319.917 49.5032C319.833 48.7827 319.828 48.0388 319.902 47.2715C319.93 46.9577 319.946 46.6438 319.951 46.33C319.967 46.0161 319.984 45.7022 320 45.3884C320.036 44.8304 320.112 44.2782 320.228 43.7317C320.356 43.1853 320.501 42.6446 320.662 42.1097C320.826 41.5632 320.988 41.0225 321.15 40.4876C321.313 39.9411 321.452 39.3946 321.569 38.8482C321.725 38.0808 322.012 37.3889 322.43 36.7723C322.86 36.1558 323.341 35.5508 323.873 34.9573C324.87 33.8402 325.965 32.9671 327.158 32.338C328.353 31.6973 329.653 31.2424 331.058 30.9733C331.166 30.9499 331.274 30.9266 331.383 30.9032C331.503 30.8798 331.622 30.868 331.739 30.8679L331.844 30.8678C332.455 30.9484 333.054 31.029 333.641 31.1097C334.242 31.1787 334.847 31.2593 335.456 31.3516C335.537 31.3631 335.615 31.3921 335.691 31.4385C335.769 31.4732 335.843 31.4906 335.913 31.4905C335.936 31.4905 335.961 31.4846 335.986 31.473C336.23 31.3913 336.47 31.3503 336.704 31.3501C336.927 31.3498 337.139 31.3844 337.341 31.4539C337.545 31.5118 337.74 31.5871 337.928 31.6798C338.115 31.7726 338.302 31.8712 338.488 31.9756C338.675 32.0683 338.87 32.1495 339.072 32.219C339.587 32.4043 340.06 32.6478 340.491 32.9495C340.921 33.2512 341.277 33.6344 341.557 34.099C341.878 34.6216 342.205 35.1385 342.538 35.6495C342.872 36.1606 343.154 36.7007 343.387 37.27C343.761 38.1994 343.977 39.2221 344.034 40.3379C344.093 41.442 344.033 42.6974 343.855 44.1041ZM327.048 44.5604C326.913 45.5253 326.837 46.4495 326.818 47.3329C326.813 48.2047 326.986 49.0588 327.337 49.8953C327.553 50.4064 327.806 50.813 328.096 51.1148C328.386 51.4167 328.713 51.6488 329.079 51.811C329.447 51.9617 329.856 52.06 330.307 52.106C330.772 52.1403 331.273 52.1571 331.813 52.1564C332.445 52.1557 332.942 52.0272 333.303 51.7711C333.675 51.5149 333.999 51.0844 334.275 50.4797C334.371 50.2819 334.47 50.0958 334.574 49.9214C334.68 49.7353 334.787 49.5433 334.894 49.3456C335.035 49.0665 335.175 48.7931 335.314 48.5256C335.467 48.2465 335.603 47.9615 335.721 47.6708C336.025 46.9381 336.253 46.2056 336.405 45.4731C336.556 44.7406 336.649 44.0141 336.682 43.2933C336.728 42.561 336.714 41.8345 336.642 41.114C336.581 40.3934 336.49 39.6786 336.369 38.9697C336.289 38.4933 336.175 38.0982 336.028 37.7845C335.882 37.4593 335.686 37.198 335.442 37.0007C335.209 36.8033 334.928 36.6642 334.598 36.5832C334.27 36.4906 333.878 36.4446 333.421 36.4452C333.351 36.4453 333.28 36.4454 333.21 36.4454C333.151 36.4455 333.08 36.4514 332.997 36.4631C332.491 36.4754 332.03 36.5108 331.612 36.5694C331.208 36.6164 330.837 36.7215 330.5 36.8846C330.163 37.0477 329.852 37.2864 329.566 37.6006C329.28 37.9148 329.009 38.3394 328.754 38.8744C328.306 39.8164 327.928 40.7642 327.619 41.7177C327.311 42.6712 327.12 43.6188 327.048 44.5604ZM362.6 46.2434C362.873 47.0451 363.138 47.8177 363.395 48.5613C363.652 49.3049 363.896 50.0602 364.127 50.8271C364.314 51.4778 364.527 52.1052 364.767 52.7093C365.006 53.3134 365.325 53.8942 365.723 54.4517C365.844 54.6027 365.927 54.7827 365.971 54.9919C366.014 55.2011 366.044 55.4277 366.06 55.6718C366.077 55.9042 366.082 56.1425 366.075 56.3866C366.079 56.6307 366.095 56.869 366.125 57.1014C365.988 57.1597 365.864 57.2121 365.753 57.2588C365.652 57.317 365.572 57.3462 365.513 57.3462C365.49 57.3463 365.473 57.3405 365.463 57.3289C365.309 57.2477 365.152 57.1956 364.991 57.1725C364.83 57.1495 364.667 57.138 364.503 57.1382C364.28 57.1385 364.056 57.1504 363.831 57.1739C363.605 57.1974 363.381 57.2093 363.158 57.2096C362.56 57.2103 361.967 57.182 361.376 57.1246C360.785 57.0788 360.193 57.0272 359.603 56.9698C359.256 56.9354 358.979 56.8078 358.773 56.5872C358.578 56.3666 358.436 56.1053 358.345 55.8032C357.996 54.6761 357.659 53.549 357.333 52.4219C357.009 51.2832 356.674 50.1445 356.326 49.0058C356.284 48.878 356.241 48.756 356.197 48.6398C356.166 48.512 356.115 48.3609 356.043 48.1867C355.583 48.2105 355.123 48.2401 354.661 48.2755C354.213 48.2993 353.765 48.3231 353.316 48.3469C353.113 49.6722 352.913 50.9685 352.717 52.2357C352.523 53.4913 352.321 54.7527 352.114 56.0199C352.074 56.2408 352.039 56.421 352.01 56.5606C351.982 56.6885 351.94 56.7873 351.884 56.8571C351.827 56.9386 351.75 56.991 351.653 57.0143C351.557 57.0377 351.426 57.0495 351.262 57.0497L350.876 57.0501C350.105 57.0278 349.341 56.9997 348.584 56.9657C347.827 56.9318 347.063 56.9036 346.292 56.8813C345.988 56.8817 345.791 56.8122 345.704 56.6728C345.617 56.5218 345.591 56.3126 345.625 56.0452C345.784 54.9757 345.921 53.9003 346.035 52.8192C346.361 49.971 346.675 47.1345 346.975 44.3096C347.287 41.4846 347.594 38.6481 347.897 35.8C347.959 35.1257 348.009 34.4573 348.046 33.7947C348.083 33.1321 348.133 32.4637 348.195 31.7895C348.21 31.5802 348.23 31.4233 348.255 31.3186C348.293 31.2023 348.345 31.1151 348.411 31.0569C348.479 30.9871 348.568 30.9289 348.68 30.8822C348.803 30.8356 348.957 30.7773 349.141 30.7073C349.363 30.6257 349.574 30.5731 349.776 30.5496C349.98 30.5145 350.182 30.4968 350.381 30.4966C350.721 30.4962 351.046 30.519 351.356 30.5651C351.678 30.6112 352.004 30.6341 352.332 30.6337L352.402 30.6336C352.566 30.6334 352.722 30.6507 352.87 30.6854C353.019 30.7084 353.17 30.7199 353.323 30.7197C353.346 30.7196 353.375 30.7196 353.411 30.7196C353.447 30.7079 353.477 30.7021 353.501 30.702C354.526 30.5613 355.531 30.4903 356.515 30.4891C357.558 30.4879 358.582 30.5448 359.587 30.6598C360.604 30.7748 361.623 30.913 362.645 31.0745C363.461 31.2014 364.179 31.4562 364.798 31.8391C365.417 32.2219 366.014 32.6454 366.587 33.1097C366.928 33.3766 367.194 33.6843 367.384 34.0328C367.576 34.3697 367.723 34.7298 367.827 35.1133C367.931 35.4967 367.991 35.8977 368.008 36.3161C368.038 36.7229 368.045 37.1355 368.027 37.554C368.029 37.9957 367.972 38.4432 367.856 38.8967C367.753 39.3385 367.644 39.7804 367.53 40.2222C367.375 40.7919 367.166 41.3327 366.902 41.8445C366.638 42.3562 366.33 42.839 365.98 43.2927C365.629 43.7465 365.241 44.177 364.814 44.5843C364.399 44.9917 363.956 45.3874 363.486 45.7716C363.344 45.8763 363.192 45.9637 363.031 46.0336C362.881 46.1036 362.738 46.1735 362.6 46.2434ZM354.102 42.8538C354.31 42.8768 354.512 42.8998 354.708 42.9228C354.918 42.9342 355.122 42.9397 355.321 42.9395C355.989 42.9387 356.642 42.874 357.279 42.7453C357.93 42.6051 358.584 42.4357 359.242 42.2373C359.657 42.109 359.983 41.8935 360.22 41.591C360.458 41.2885 360.62 40.9338 360.707 40.5269C360.82 40.0037 360.874 39.4864 360.869 38.9749C360.863 38.4635 360.793 37.9579 360.657 37.4583C360.552 37.0865 360.388 36.7612 360.166 36.4825C359.945 36.1922 359.643 36.0356 359.259 36.0129C358.887 35.9901 358.51 35.9615 358.127 35.927C357.747 35.881 357.363 35.8582 356.976 35.8587C356.601 35.8592 356.217 35.8887 355.822 35.9473C355.428 36.0059 355.034 36.111 354.64 36.2625C354.56 37.3553 354.469 38.4422 354.367 39.5233C354.276 40.6044 354.188 41.7146 354.102 42.8538ZM388.473 39.0286C388.011 39.0641 387.543 39.1053 387.069 39.1524C386.607 39.1878 386.139 39.2291 385.665 39.2761C385.64 39.2878 385.598 39.2937 385.539 39.2937C385.27 39.2941 385.074 39.2187 384.953 39.0678C384.833 38.9052 384.746 38.7135 384.692 38.4927C384.518 37.6444 384.149 36.9998 383.584 36.5587C383.019 36.1177 382.286 35.8978 381.383 35.8989C381.079 35.8992 380.793 35.9344 380.526 36.0045C380.261 36.063 380.032 36.1562 379.84 36.2843C379.648 36.4124 379.467 36.5928 379.297 36.8255C379.127 37.0581 379.023 37.2791 378.984 37.4884C378.931 37.8139 378.937 38.1394 379.001 38.4648C379.067 38.7785 379.176 39.0748 379.328 39.3536C379.491 39.6323 379.694 39.882 379.936 40.1026C380.189 40.3231 380.466 40.4913 380.768 40.6072C381.427 40.8621 382.087 41.1054 382.749 41.3371C383.412 41.5571 384.067 41.8004 384.713 42.067C385.146 42.2524 385.573 42.4437 385.993 42.6408C386.415 42.8262 386.821 43.0408 387.212 43.2844C387.604 43.5164 387.969 43.7833 388.305 44.0851C388.655 44.3753 388.963 44.7178 389.229 45.1127C389.921 46.1231 390.33 47.192 390.457 48.3193C390.585 49.435 390.363 50.6267 389.792 51.8944C389.567 52.3712 389.354 52.8481 389.153 53.3249C388.954 53.7901 388.646 54.2263 388.231 54.6336C387.696 55.1573 387.12 55.5881 386.503 55.926C385.886 56.2638 385.238 56.5203 384.56 56.6955C383.843 56.8939 383.126 57.0575 382.406 57.1863C381.699 57.315 380.985 57.4437 380.266 57.5724C380.192 57.5958 380.121 57.6075 380.05 57.6076C379.98 57.6077 379.91 57.6077 379.839 57.6078C379.687 57.608 379.535 57.6024 379.385 57.5909C379.234 57.5795 379.089 57.5622 378.952 57.5392C378.433 57.4701 377.909 57.4009 377.379 57.3318C376.86 57.2627 376.344 57.1762 375.83 57.0722C375.328 56.9682 374.835 56.8351 374.352 56.673C373.87 56.4992 373.406 56.2789 372.959 56.0121C372.677 55.8381 372.389 55.6583 372.096 55.4727C371.805 55.2754 371.582 55.0432 371.429 54.7761C370.967 53.9862 370.565 53.1788 370.225 52.354C369.898 51.5175 369.677 50.6285 369.562 49.6872C369.521 49.2688 369.575 48.9374 369.723 48.6932C369.884 48.4372 370.177 48.2567 370.6 48.1516C371 48.0465 371.397 47.9705 371.789 47.9235C372.194 47.8765 372.589 47.8528 372.976 47.8523C373.468 47.8517 373.945 47.8802 374.406 47.9378C374.879 47.9953 375.356 48.0703 375.836 48.1627C376.031 48.1973 376.16 48.2902 376.223 48.4412C376.299 48.5806 376.313 48.7433 376.266 48.9293C376.169 49.4176 376.217 49.8709 376.41 50.2891C376.604 50.6957 376.882 51.0499 377.242 51.3517C377.602 51.6534 378.005 51.8912 378.452 52.065C378.91 52.2388 379.35 52.3255 379.772 52.325C380.381 52.3242 380.968 52.2247 381.532 52.0264C382.098 51.8165 382.558 51.4208 382.913 50.8392C383.353 50.1412 383.36 49.4903 382.933 48.8864C382.626 48.445 382.254 48.0968 381.818 47.8416C381.383 47.5748 380.92 47.3429 380.43 47.1459C379.617 46.8098 378.804 46.4795 377.989 46.155C377.175 45.8305 376.371 45.4712 375.578 45.0769C374.938 44.7639 374.342 44.3868 373.788 43.9458C373.248 43.4931 372.795 42.9532 372.43 42.3259C372.076 41.6987 371.82 41.0365 371.663 40.3392C371.505 39.642 371.46 38.9388 371.526 38.2297C371.606 37.509 371.796 36.7997 372.095 36.1019C372.408 35.3925 372.845 34.7178 373.407 34.0778C373.721 33.7287 374.062 33.4377 374.432 33.2048C374.801 32.9719 375.188 32.7389 375.592 32.506C376.075 32.2148 376.562 31.9759 377.054 31.7893C377.548 31.5911 378.044 31.422 378.542 31.2819C379.04 31.1418 379.542 31.025 380.046 30.9314C380.561 30.8378 381.071 30.7442 381.575 30.6506C381.957 30.592 382.333 30.545 382.7 30.5097C383.08 30.4744 383.457 30.4565 383.832 30.456C384.676 30.455 385.497 30.5412 386.295 30.7146C387.094 30.8763 387.828 31.1428 388.496 31.5139C389.163 31.8851 389.734 32.3726 390.208 32.9764C390.684 33.5687 391.014 34.2889 391.199 35.1372C391.303 35.6137 391.37 36.1018 391.4 36.6016C391.443 37.0897 391.475 37.5779 391.495 38.066C391.511 38.4031 391.432 38.6531 391.259 38.816C391.098 38.979 390.846 39.0723 390.503 39.0959C390.373 39.1077 390.237 39.1195 390.094 39.1313C389.966 39.1314 389.837 39.1316 389.708 39.1318C389.508 39.132 389.303 39.1322 389.092 39.1325C388.883 39.1211 388.679 39.1156 388.479 39.1158L388.473 39.0286Z" fill="white"/>
<path d="M69.5419 111.472L71.4818 96.1944L77.0477 96.1653C80.0617 96.1495 81.8004 98.2124 81.4152 101.246C81.03 104.28 78.7675 106.342 75.7535 106.357L72.1676 106.376L71.5219 111.461L69.5419 111.472ZM72.4004 104.543L75.7883 104.525C77.7463 104.515 79.1638 103.221 79.4132 101.256C79.6626 99.2923 78.5721 98.0112 76.6142 98.0214L73.2262 98.0391L72.4004 104.543ZM82.7331 111.403L84.673 96.1254L93.8689 96.0772L93.6278 97.976L86.4119 98.0138L85.8133 102.728L92.6112 102.692L92.3756 104.547L85.5777 104.583L84.9542 109.494L92.3241 109.455L92.083 111.354L82.7331 111.403ZM101.813 111.521C97.4132 111.544 94.6005 108.244 95.1769 103.704C95.7534 99.1644 99.4086 95.8301 103.808 95.8071C107.394 95.7883 109.98 97.934 110.461 101.247L108.437 101.257C107.922 99.0789 106.095 97.7145 103.609 97.7275C100.309 97.7447 97.6195 100.223 97.1789 103.694C96.7383 107.164 98.8011 109.617 102.101 109.6C104.609 109.587 106.794 108.136 107.871 105.884L109.895 105.873C108.586 109.261 105.399 111.502 101.813 111.521ZM114.709 111.235L116.414 97.8131L111.838 97.8371L112.073 95.982L123.205 95.9237L122.969 97.7788L118.393 97.8028L116.689 111.225L114.709 111.235ZM130.175 111.373C125.687 111.396 122.831 108.096 123.407 103.556C123.983 99.0167 127.683 95.6822 132.171 95.6587C136.659 95.6352 139.515 98.9354 138.939 103.475C138.362 108.015 134.663 111.349 130.175 111.373ZM125.409 103.546C124.971 106.994 127.053 109.47 130.419 109.452C133.785 109.434 136.499 106.934 136.937 103.485C137.375 100.037 135.293 97.5616 131.927 97.5793C128.561 97.5969 125.847 100.097 125.409 103.546ZM141.342 111.096L143.282 95.8186L148.848 95.7895C151.861 95.7737 153.6 97.8366 153.215 100.87C152.83 103.904 150.567 105.966 147.553 105.982L143.967 106L143.322 111.086L141.342 111.096ZM144.2 104.167L147.588 104.149C149.546 104.139 150.964 102.845 151.213 100.881C151.462 98.9165 150.372 97.6354 148.414 97.6457L145.026 97.6634L144.2 104.167ZM151.46 111.043L151.485 110.847L159.604 95.7332L161.034 95.7257L165.323 110.774L165.298 110.971L163.23 110.981L162.244 107.322L155.446 107.358L153.506 111.032L151.46 111.043ZM156.405 105.521L161.751 105.493L159.912 98.8505L156.405 105.521ZM177.493 110.907L178.358 104.097L170.526 104.138L169.661 110.948L167.681 110.958L169.621 95.6808L171.601 95.6704L170.767 102.24L178.599 102.199L179.433 95.6294L181.413 95.6191L179.473 110.896L177.493 110.907ZM195.686 111.03C192.1 111.048 189.479 108.838 189.029 105.459L191.031 105.449C191.537 107.693 193.378 109.122 195.886 109.109C198.878 109.094 201.358 107.052 202.111 104.06L194.522 104.1L194.754 102.267L202.344 102.227C202.35 99.2391 200.386 97.221 197.394 97.2367C194.908 97.2497 192.731 98.6351 191.662 100.822L189.638 100.832C190.961 97.5102 194.096 95.3346 197.682 95.3158C202.081 95.2928 204.894 98.5933 204.318 103.133C203.741 107.672 200.086 111.007 195.686 111.03ZM212.374 111.051L212.563 109.567C208.251 109.415 206.21 106.613 206.668 103.011C207.122 99.4322 209.878 96.6043 214.234 96.407L214.419 94.9447L216.399 94.9344L216.214 96.3966C220.261 96.5499 222.594 99.1331 222.111 102.931C221.624 106.772 218.635 109.361 214.543 109.557L214.354 111.041L212.374 111.051ZM208.692 103.001C208.337 105.794 209.809 107.706 212.825 107.843L214.059 98.1309C211.003 98.2996 209.049 100.185 208.692 103.001ZM214.717 107.833C217.663 107.665 219.722 105.822 220.087 102.941C220.453 100.06 218.857 98.2585 215.951 98.121L214.717 107.833ZM236.105 110.6L234.125 110.61L235.569 99.2397L225.875 110.654L224.313 110.662L226.253 95.3844L228.233 95.3741L226.778 106.832L236.527 95.3307L238.045 95.3227L236.105 110.6ZM247.199 110.76C242.711 110.784 239.854 107.483 240.431 102.944C241.007 98.4043 244.706 95.0697 249.194 95.0463C253.682 95.0228 256.539 98.323 255.963 102.863C255.386 107.402 251.687 110.737 247.199 110.76ZM242.433 102.933C241.995 106.382 244.077 108.857 247.443 108.84C250.809 108.822 253.523 106.321 253.961 102.873C254.398 99.4247 252.316 96.9492 248.95 96.9668C245.585 96.9845 242.871 99.485 242.433 102.933ZM258.365 110.484L260.305 95.2062L271.745 95.1463L269.805 110.424L267.825 110.434L269.524 97.0555L262.044 97.0946L260.345 110.473L258.365 110.484ZM280.797 110.584C276.397 110.607 273.584 107.307 274.161 102.767C274.737 98.2277 278.392 94.8935 282.792 94.8704C286.378 94.8517 288.964 96.9974 289.445 100.31L287.421 100.321C286.906 98.1423 285.078 96.7778 282.593 96.7908C279.293 96.8081 276.603 99.2867 276.163 102.757C275.722 106.227 277.785 108.681 281.085 108.663C283.593 108.65 285.778 107.199 286.855 104.947L288.879 104.937C287.57 108.324 284.383 110.565 280.797 110.584ZM300.122 110.265L294.858 102.899L294.933 102.31L301.776 94.9892L304.086 94.9771L304.061 95.1735L297.036 102.539L302.545 110.056L302.52 110.252L300.122 110.265ZM291.301 110.311L293.24 95.0339L295.22 95.0235L293.281 110.301L291.301 110.311ZM311.286 110.425C306.798 110.448 303.941 107.148 304.518 102.608C305.094 98.0689 308.793 94.7344 313.281 94.7109C317.769 94.6874 320.626 97.9876 320.05 102.527C319.473 107.067 315.774 110.401 311.286 110.425ZM306.52 102.598C306.082 106.046 308.164 108.522 311.53 108.504C314.896 108.487 317.61 105.986 318.048 102.538C318.486 99.0893 316.403 96.6138 313.038 96.6315C309.672 96.6491 306.958 99.1496 306.52 102.598ZM334.244 110.086L332.264 110.097L333.708 98.7261L324.014 110.14L322.453 110.148L324.392 94.8708L326.372 94.8605L324.917 106.318L334.666 94.8171L336.184 94.8091L334.244 110.086ZM327.051 92.9812L327.259 91.3444L334.21 91.308L334.003 92.9449L327.051 92.9812ZM353.059 109.988L347.795 102.622L347.87 102.033L354.713 94.7121L357.023 94.7001L356.998 94.8965L349.973 102.261L355.482 109.779L355.457 109.975L353.059 109.988ZM344.237 110.034L346.177 94.7568L348.157 94.7465L346.217 110.024L344.237 110.034ZM359.264 109.956L359.292 109.737L361.81 105.493L358.121 94.8906L358.146 94.6942L360.28 94.683L361.991 99.734L363.17 103.261L365.173 99.7828L368.2 94.6416L370.29 94.6306L370.265 94.8271L361.376 109.944L359.264 109.956ZM369.185 109.904L369.21 109.707L375.561 101.931L371.584 94.8202L371.609 94.6237L373.875 94.6119L376.175 98.6565L377.103 100.353L378.46 98.6664L381.794 94.5704L384.06 94.5586L384.035 94.755L378.204 101.896L382.585 109.637L382.561 109.834L380.251 109.846L377.385 104.713L376.707 103.474L375.713 104.722L371.495 109.892L369.185 109.904ZM394.955 109.769L395.82 102.959L387.988 103L387.123 109.81L385.143 109.82L387.083 94.5427L389.063 94.5324L388.229 101.102L396.061 101.061L396.895 94.4914L398.875 94.481L396.935 109.758L394.955 109.769ZM412.941 109.675L410.961 109.685L412.404 98.3143L402.711 109.728L401.149 109.736L403.089 94.459L405.069 94.4486L403.614 105.907L413.362 94.4052L414.88 94.3973L412.941 109.675Z" fill="#436421"/>
</svg>
