<svg width="502" height="116" viewBox="0 0 502 116" fill="none" xmlns="http://www.w3.org/2000/svg">
<path d="M71.8549 109.793L73.8747 94.5257H79.4407C82.4547 94.5257 84.1826 96.5977 83.7815 99.6292C83.3804 102.661 81.1072 104.711 78.0932 104.711H74.5072L73.8349 109.793H71.8549ZM74.7496 102.879H78.1376C80.0956 102.879 81.5198 101.592 81.7795 99.6292C82.0392 97.6663 80.9554 96.3796 78.9974 96.3796H75.6094L74.7496 102.879ZM85.0463 109.793L87.0661 94.5257H96.2621L96.0111 96.4232H88.7951L88.1718 101.134H94.9698L94.7245 102.988H87.9265L87.2773 107.895H94.6473L94.3963 109.793H85.0463ZM104.125 110.011C99.7255 110.011 96.93 106.696 97.5302 102.159C98.1304 97.6227 101.803 94.3076 106.203 94.3076C109.789 94.3076 112.363 96.4668 112.827 99.7819H110.803C110.299 97.6009 108.479 96.2269 105.993 96.2269C102.693 96.2269 99.991 98.6914 99.5322 102.159C99.0734 105.627 101.123 108.092 104.423 108.092C106.931 108.092 109.124 106.652 110.213 104.406H112.237C110.91 107.786 107.711 110.011 104.125 110.011ZM117.023 109.793L118.797 96.3796H114.221L114.467 94.5257H125.599L125.353 96.3796H120.777L119.003 109.793H117.023ZM132.488 110.011C128 110.011 125.161 106.696 125.761 102.159C126.361 97.6227 130.077 94.3076 134.565 94.3076C139.053 94.3076 141.893 97.6227 141.293 102.159C140.693 106.696 136.976 110.011 132.488 110.011ZM127.763 102.159C127.307 105.605 129.376 108.092 132.742 108.092C136.108 108.092 138.835 105.605 139.291 102.159C139.747 98.7132 137.678 96.2269 134.312 96.2269C130.946 96.2269 128.219 98.7132 127.763 102.159ZM143.656 109.793L145.675 94.5257H151.241C154.255 94.5257 155.983 96.5977 155.582 99.6292C155.181 102.661 152.908 104.711 149.894 104.711H146.308L145.636 109.793H143.656ZM146.55 102.879H149.938C151.896 102.879 153.321 101.592 153.58 99.6292C153.84 97.6663 152.756 96.3796 150.798 96.3796H147.41L146.55 102.879ZM153.774 109.793L153.8 109.596L161.998 94.5257H163.428L167.638 109.596L167.612 109.793H165.544L164.577 106.129H157.779L155.82 109.793H153.774ZM158.748 104.297H164.094L162.29 97.6445L158.748 104.297ZM179.808 109.793L180.708 102.988H172.876L171.976 109.793H169.996L172.015 94.5257H173.995L173.127 101.091H180.959L181.827 94.5257H183.807L181.788 109.793H179.808ZM198 110.011C194.414 110.011 191.804 107.786 191.371 104.406H193.373C193.868 106.652 195.702 108.092 198.21 108.092C201.202 108.092 203.692 106.063 204.461 103.075H196.871L197.114 101.243H204.704C204.725 98.2552 202.771 96.2269 199.779 96.2269C197.293 96.2269 195.11 97.6009 194.029 99.7819H192.005C193.346 96.4668 196.491 94.3076 200.077 94.3076C204.477 94.3076 207.273 97.6227 206.673 102.159C206.072 106.696 202.4 110.011 198 110.011ZM214.687 110.12L214.884 108.637C210.573 108.462 208.547 105.649 209.023 102.05C209.496 98.4733 212.266 95.6598 216.623 95.4853L216.817 94.0241H218.797L218.603 95.4853C222.65 95.6598 224.969 98.2552 224.467 102.05C223.959 105.889 220.957 108.462 216.864 108.637L216.667 110.12H214.687ZM211.047 102.05C210.678 104.842 212.14 106.761 215.155 106.914L216.44 97.2083C213.383 97.361 211.419 99.2367 211.047 102.05ZM217.047 106.914C219.994 106.761 222.062 104.929 222.443 102.05C222.824 99.1712 221.237 97.361 218.332 97.2083L217.047 106.914ZM238.42 109.793H236.44L237.944 98.4297L228.19 109.793H226.628L228.648 94.5257H230.628L229.113 105.976L238.922 94.5257H240.44L238.42 109.793ZM249.513 110.011C245.025 110.011 242.186 106.696 242.786 102.159C243.386 97.6227 247.103 94.3076 251.591 94.3076C256.079 94.3076 258.918 97.6227 258.318 102.159C257.718 106.696 254.001 110.011 249.513 110.011ZM244.788 102.159C244.332 105.605 246.401 108.092 249.767 108.092C253.133 108.092 255.86 105.605 256.316 102.159C256.772 98.7132 254.703 96.2269 251.337 96.2269C247.971 96.2269 245.244 98.7132 244.788 102.159ZM260.681 109.793L262.701 94.5257H274.141L272.121 109.793H270.141L271.91 96.4232H264.43L262.661 109.793H260.681ZM283.112 110.011C278.712 110.011 275.916 106.696 276.517 102.159C277.117 97.6227 280.789 94.3076 285.189 94.3076C288.775 94.3076 291.35 96.4668 291.813 99.7819H289.789C289.286 97.6009 287.465 96.2269 284.979 96.2269C281.679 96.2269 278.977 98.6914 278.519 102.159C278.06 105.627 280.11 108.092 283.41 108.092C285.918 108.092 288.11 106.652 289.199 104.406H291.223C289.896 107.786 286.698 110.011 283.112 110.011ZM302.439 109.793L297.213 102.399L297.291 101.81L304.172 94.5257H306.482L306.456 94.722L299.393 102.05L304.863 109.596L304.837 109.793H302.439ZM293.617 109.793L295.636 94.5257H297.616L295.597 109.793H293.617ZM313.601 110.011C309.113 110.011 306.274 106.696 306.874 102.159C307.474 97.6227 311.191 94.3076 315.679 94.3076C320.167 94.3076 323.006 97.6227 322.406 102.159C321.806 106.696 318.089 110.011 313.601 110.011ZM308.876 102.159C308.42 105.605 310.489 108.092 313.855 108.092C317.221 108.092 319.948 105.605 320.404 102.159C320.86 98.7132 318.791 96.2269 315.425 96.2269C312.059 96.2269 309.332 98.7132 308.876 102.159ZM336.561 109.793H334.581L336.084 98.4297L326.331 109.793H324.769L326.789 94.5257H328.769L327.254 105.976L337.063 94.5257H338.581L336.561 109.793ZM329.457 92.6501L329.673 91.0143H336.625L336.409 92.6501H329.457ZM355.376 109.793L350.15 102.399L350.228 101.81L357.11 94.5257H359.42L359.394 94.722L352.33 102.05L357.8 109.596L357.774 109.793H355.376ZM346.554 109.793L348.574 94.5257H350.554L348.534 109.793H346.554ZM361.581 109.793L361.61 109.575L364.15 105.343L360.517 94.722L360.543 94.5257H362.677L364.362 99.5856L365.522 103.119L367.543 99.651L370.597 94.5257H372.687L372.661 94.722L363.693 109.793H361.581ZM371.502 109.793L371.528 109.596L377.92 101.854L373.98 94.722L374.006 94.5257H376.272L378.551 98.5824L379.47 100.284L380.836 98.6042L384.192 94.5257H386.458L386.432 94.722L380.563 101.832L384.904 109.596L384.878 109.793H382.568L379.729 104.646L379.057 103.402L378.057 104.646L373.812 109.793H371.502ZM397.272 109.793L398.173 102.988H390.341L389.44 109.793H387.46L389.48 94.5257H391.46L390.592 101.091H398.424L399.292 94.5257H401.272L399.252 109.793H397.272ZM415.258 109.793H413.278L414.782 98.4297L405.028 109.793H403.466L405.486 94.5257H407.466L405.951 105.976L415.76 94.5257H417.278L415.258 109.793Z" fill="#436421"/>
<rect width="56.4974" height="85.666" transform="matrix(0.999999 -0.00121197 -0.125966 0.992034 10.7891 17.0671)" fill="#436421"/>
<rect width="56.2778" height="85.8402" transform="matrix(0.999999 -0.00121197 -0.125966 0.992034 444.906 17.1245)" fill="#436421"/>
<path d="M461.094 0H55.2543L44.0938 85H449.933L461.094 0Z" fill="#436421"/>
<path d="M99.6542 30.654C100.162 30.654 100.669 30.6605 101.175 30.6734C101.683 30.6734 102.191 30.6734 102.699 30.6734C103.037 30.6734 103.363 30.6734 103.675 30.6734C104.001 30.6734 104.327 30.667 104.654 30.654C105.032 30.654 105.33 30.667 105.548 30.6928C105.779 30.7186 105.959 30.7832 106.089 30.8865C106.234 30.9769 106.346 31.119 106.425 31.3127C106.518 31.5064 106.607 31.7712 106.694 32.107C106.969 33.2177 107.264 34.3155 107.581 35.4004C107.912 36.4723 108.215 37.5636 108.489 38.6743C108.71 39.5913 108.898 40.5147 109.052 41.4446C109.208 42.3616 109.382 43.285 109.576 44.2149C109.637 44.5507 109.718 44.88 109.82 45.2029C109.937 45.5129 110.039 45.8293 110.128 46.1522C110.482 47.4566 110.823 48.7546 111.152 50.0461C111.496 51.3247 111.846 52.6097 112.201 53.9013C112.32 54.392 112.447 54.8763 112.581 55.3542C112.715 55.8321 112.863 56.3035 113.025 56.7684C113.157 57.1559 113.224 57.5498 113.225 57.9501C113.227 58.3376 113.108 58.7573 112.868 59.2094C112.787 59.2352 112.699 59.261 112.604 59.2869C112.51 59.3127 112.411 59.3256 112.306 59.3256C111.476 59.2998 110.648 59.261 109.821 59.2094C109.006 59.1706 108.184 59.1319 107.356 59.0931C107.225 59.0931 107.095 59.0931 106.965 59.0931C106.848 59.0931 106.726 59.0802 106.599 59.0544C106.256 58.9898 105.97 58.88 105.743 58.7251C105.517 58.5572 105.398 58.2666 105.386 57.8533C105.344 57.3625 105.296 56.8782 105.24 56.4003C105.184 55.9225 105.115 55.4446 105.033 54.9668C104.961 54.5147 104.839 54.1983 104.667 54.0175C104.496 53.8238 104.209 53.7269 103.805 53.7269C103.675 53.7269 103.577 53.7334 103.51 53.7463C102.668 53.8109 101.83 53.9013 100.995 54.0175C100.159 54.1337 99.3211 54.2241 98.4795 54.2887C98.2955 54.3016 98.1116 54.3145 97.9276 54.3275C97.7453 54.3275 97.563 54.3275 97.3807 54.3275C97.0813 54.3275 96.7818 54.3275 96.4823 54.3275C96.1845 54.3145 95.8793 54.3081 95.5668 54.3081C95.266 54.928 94.9586 55.5479 94.6448 56.1679C94.3309 56.7878 94.0341 57.4271 93.7544 58.0858C93.6268 58.3699 93.4758 58.583 93.3013 58.7251C93.1399 58.8671 92.9086 58.9446 92.6074 58.9575C92.3567 58.9834 92.106 59.0092 91.8553 59.035C91.603 59.0738 91.3522 59.0996 91.1032 59.1125C89.7618 59.2158 88.4238 59.2933 87.089 59.345C86.9197 59.345 86.753 59.3256 86.5887 59.2869C86.4374 59.2481 86.2869 59.2029 86.1373 59.1513C85.677 58.9834 85.5557 58.6605 85.7732 58.1826C85.9204 57.8468 86.0611 57.511 86.1953 57.1752C86.3312 56.8265 86.4849 56.4907 86.6565 56.1679C87.2516 54.9797 87.8523 53.7979 88.4587 52.6227C89.0651 51.4474 89.6723 50.2657 90.2804 49.0775C90.8329 48.0184 91.3788 46.9594 91.9182 45.9003C92.4707 44.8413 93.0174 43.7758 93.5585 42.7039C94.1699 41.4898 94.7601 40.2887 95.3291 39.1005C95.9128 37.8994 96.5103 36.6919 97.1217 35.4778C97.5255 34.6642 97.9406 33.8635 98.3671 33.0756C98.7953 32.2749 99.2243 31.4677 99.6542 30.654ZM98.8151 48.1669C99.5393 48.2057 100.264 48.2444 100.988 48.2832C101.712 48.3219 102.469 48.3607 103.258 48.3994C103.015 47.0433 102.773 45.7324 102.532 44.4668C102.305 43.1882 102.075 41.8837 101.842 40.5535C101.051 41.9483 100.387 43.3173 99.8506 44.6605C99.3285 45.9907 98.9833 47.1596 98.8151 48.1669ZM115.772 58.6476C115.942 57.7306 116.102 56.8394 116.252 55.9741C116.402 55.1088 116.552 54.2435 116.702 53.3782C116.827 52.6033 116.964 51.8413 117.112 51.0922C117.275 50.3302 117.399 49.5618 117.486 48.7869C117.651 47.392 117.79 46.0101 117.9 44.6411C118.012 43.2592 118.158 41.8644 118.339 40.4566C118.466 39.4622 118.632 38.4741 118.836 37.4926C119.053 36.5111 119.238 35.523 119.392 34.5286C119.487 33.9861 119.536 33.4566 119.537 32.94C119.553 32.4105 119.576 31.8745 119.606 31.3321C119.617 31.048 119.634 30.7638 119.657 30.4797C119.682 30.1826 119.704 29.8598 119.723 29.5111C120.758 29.4594 121.76 29.4142 122.728 29.3754C123.698 29.3238 124.662 29.2721 125.619 29.2205C126.156 29.1946 126.689 29.1559 127.216 29.1042C127.745 29.0397 128.277 29.0074 128.811 29.0074C128.928 29.0074 129.045 29.0074 129.162 29.0074C129.279 29.0074 129.396 29.0138 129.511 29.0267C130.13 29.0784 130.748 29.1301 131.366 29.1817C131.985 29.2334 132.592 29.3173 133.19 29.4336C133.788 29.5369 134.368 29.6854 134.929 29.8791C135.505 30.06 136.051 30.3183 136.568 30.654C136.833 30.8219 137.061 31.0286 137.25 31.274C137.453 31.5194 137.664 31.7518 137.884 31.9714C138.796 32.8754 139.519 33.8957 140.05 35.0323C140.581 36.1688 141.029 37.3505 141.392 38.5775C141.683 39.559 141.806 40.5793 141.762 41.6384C141.717 42.6974 141.555 43.7564 141.276 44.8155C140.913 46.1199 140.5 47.4179 140.035 48.7094C139.584 49.988 138.957 51.2214 138.154 52.4096C137.818 52.9003 137.452 53.3653 137.057 53.8044C136.662 54.2435 136.273 54.6891 135.89 55.1411C135.844 55.1928 135.786 55.238 135.716 55.2767C135.661 55.3025 135.617 55.3413 135.584 55.393C135.401 55.7029 135.186 55.9612 134.938 56.1679C134.705 56.3616 134.449 56.5295 134.17 56.6716C133.904 56.8136 133.622 56.9363 133.322 57.0396C133.022 57.143 132.728 57.2527 132.44 57.369C131.384 57.7823 130.329 58.0922 129.274 58.2989C128.233 58.4926 127.172 58.5959 126.09 58.6088C124.773 58.6217 123.459 58.6605 122.149 58.7251C120.839 58.7896 119.531 58.8348 118.225 58.8607H118.089C117.724 58.8607 117.356 58.8348 116.985 58.7832C116.614 58.7315 116.21 58.6863 115.772 58.6476ZM123.855 52.4289H124.401H124.655H124.948H126.53C126.921 52.4289 127.305 52.4289 127.683 52.4289C128.073 52.4289 128.465 52.4225 128.857 52.4096C129 52.4096 129.14 52.3837 129.277 52.3321C129.429 52.2675 129.562 52.19 129.678 52.0996C130.299 51.5184 130.884 50.9179 131.433 50.2979C131.982 49.6651 132.412 48.9548 132.721 48.1669C133.109 47.1725 133.439 46.178 133.709 45.1836C133.98 44.1891 134.11 43.1753 134.099 42.142C134.097 41.1476 133.992 40.1854 133.786 39.2555C133.579 38.3256 133.139 37.4991 132.463 36.7758C132.281 36.5692 132.084 36.3819 131.871 36.214C131.66 36.0332 131.43 35.8976 131.181 35.8072C130.283 35.4972 129.333 35.3422 128.33 35.3422C128.187 35.3422 128.037 35.3487 127.879 35.3616C127.722 35.3616 127.572 35.3681 127.427 35.381C127.217 35.3939 127.044 35.4197 126.909 35.4585C126.787 35.4972 126.682 35.5553 126.594 35.6328C126.519 35.7103 126.459 35.8201 126.415 35.9622C126.385 36.0913 126.35 36.2657 126.309 36.4852C126.225 36.9373 126.141 37.3893 126.057 37.8413C125.973 38.2933 125.889 38.7454 125.805 39.1974C125.619 40.2435 125.433 41.2832 125.249 42.3164C125.079 43.3367 124.908 44.3634 124.737 45.3967C124.672 45.797 124.622 46.1909 124.585 46.5784C124.549 46.9658 124.505 47.3533 124.456 47.7407C124.369 48.5157 124.271 49.2841 124.16 50.0461C124.062 50.8081 123.961 51.6024 123.855 52.4289ZM143.35 58.6476C143.52 57.7306 143.68 56.8394 143.83 55.9741C143.98 55.1088 144.13 54.2435 144.28 53.3782C144.405 52.6033 144.542 51.8413 144.69 51.0922C144.853 50.3302 144.977 49.5618 145.064 48.7869C145.23 47.392 145.368 46.0101 145.478 44.6411C145.59 43.2592 145.736 41.8644 145.917 40.4566C146.044 39.4622 146.21 38.4741 146.414 37.4926C146.631 36.5111 146.816 35.523 146.97 34.5286C147.066 33.9861 147.114 33.4566 147.115 32.94C147.131 32.4105 147.154 31.8745 147.184 31.3321C147.195 31.048 147.212 30.7638 147.235 30.4797C147.26 30.1826 147.282 29.8598 147.301 29.5111C148.336 29.4594 149.338 29.4142 150.306 29.3754C151.277 29.3238 152.24 29.2721 153.197 29.2205C153.735 29.1946 154.267 29.1559 154.794 29.1042C155.323 29.0397 155.855 29.0074 156.389 29.0074C156.506 29.0074 156.623 29.0074 156.74 29.0074C156.857 29.0074 156.974 29.0138 157.089 29.0267C157.708 29.0784 158.326 29.1301 158.945 29.1817C159.563 29.2334 160.171 29.3173 160.768 29.4336C161.366 29.5369 161.946 29.6854 162.507 29.8791C163.083 30.06 163.63 30.3183 164.146 30.654C164.411 30.8219 164.639 31.0286 164.829 31.274C165.032 31.5194 165.243 31.7518 165.462 31.9714C166.375 32.8754 167.097 33.8957 167.628 35.0323C168.159 36.1688 168.607 37.3505 168.97 38.5775C169.261 39.559 169.384 40.5793 169.34 41.6384C169.295 42.6974 169.133 43.7564 168.854 44.8155C168.492 46.1199 168.078 47.4179 167.613 48.7094C167.162 49.988 166.535 51.2214 165.732 52.4096C165.396 52.9003 165.03 53.3653 164.635 53.8044C164.24 54.2435 163.851 54.6891 163.468 55.1411C163.422 55.1928 163.364 55.238 163.294 55.2767C163.239 55.3025 163.195 55.3413 163.162 55.393C162.979 55.7029 162.764 55.9612 162.516 56.1679C162.283 56.3616 162.027 56.5295 161.748 56.6716C161.483 56.8136 161.2 56.9363 160.9 57.0396C160.6 57.143 160.306 57.2527 160.018 57.369C158.963 57.7823 157.907 58.0922 156.852 58.2989C155.812 58.4926 154.75 58.5959 153.668 58.6088C152.351 58.6217 151.037 58.6605 149.727 58.7251C148.417 58.7896 147.109 58.8348 145.803 58.8607H145.667C145.302 58.8607 144.934 58.8348 144.563 58.7832C144.192 58.7315 143.788 58.6863 143.35 58.6476ZM151.433 52.4289H151.98H152.234H152.526H154.109C154.499 52.4289 154.883 52.4289 155.261 52.4289C155.651 52.4289 156.043 52.4225 156.435 52.4096C156.578 52.4096 156.718 52.3837 156.855 52.3321C157.007 52.2675 157.14 52.19 157.256 52.0996C157.878 51.5184 158.462 50.9179 159.011 50.2979C159.561 49.6651 159.99 48.9548 160.299 48.1669C160.687 47.1725 161.017 46.178 161.287 45.1836C161.558 44.1891 161.688 43.1753 161.677 42.142C161.675 41.1476 161.57 40.1854 161.364 39.2555C161.158 38.3256 160.717 37.4991 160.041 36.7758C159.859 36.5692 159.662 36.3819 159.449 36.214C159.238 36.0332 159.008 35.8976 158.759 35.8072C157.861 35.4972 156.911 35.3422 155.909 35.3422C155.765 35.3422 155.615 35.3487 155.457 35.3616C155.301 35.3616 155.15 35.3681 155.005 35.381C154.795 35.3939 154.623 35.4197 154.487 35.4585C154.365 35.4972 154.26 35.5553 154.172 35.6328C154.097 35.7103 154.037 35.8201 153.993 35.9622C153.964 36.0913 153.928 36.2657 153.887 36.4852C153.803 36.9373 153.719 37.3893 153.635 37.8413C153.551 38.2933 153.467 38.7454 153.383 39.1974C153.197 40.2435 153.011 41.2832 152.827 42.3164C152.657 43.3367 152.486 44.3634 152.315 45.3967C152.25 45.797 152.2 46.1909 152.163 46.5784C152.127 46.9658 152.083 47.3533 152.034 47.7407C151.947 48.5157 151.849 49.2841 151.738 50.0461C151.641 50.8081 151.539 51.6024 151.433 52.4289ZM172.522 58.8607C172.407 58.5378 172.306 58.2601 172.219 58.0276C172.131 57.7952 172.05 57.5692 171.974 57.3496C172.044 57.0009 172.129 56.6457 172.228 56.2841C172.326 55.9225 172.386 55.5544 172.408 55.1799C172.466 54.1208 172.581 53.0682 172.754 52.0221C172.941 50.976 173.147 49.9234 173.374 48.8644C173.544 48.0507 173.66 47.2435 173.724 46.4428C173.8 45.642 173.904 44.8348 174.034 44.0212C174.256 42.4972 174.417 40.9861 174.518 39.488C174.619 37.9898 174.694 36.4852 174.745 34.9742C174.771 34.1605 174.848 33.3533 174.977 32.5526C175.119 31.7518 175.243 30.9382 175.349 30.1116C175.582 30.0212 175.797 29.9631 175.996 29.9373C176.208 29.9114 176.418 29.8985 176.626 29.8985C176.939 29.8985 177.242 29.9179 177.537 29.9566C177.844 29.9954 178.148 30.0147 178.447 30.0147H178.662C178.781 30.0018 178.899 29.9954 179.016 29.9954C179.146 29.9954 179.276 29.9954 179.407 29.9954C179.745 29.9954 180.083 30.0018 180.42 30.0147C180.77 30.0277 181.114 30.0341 181.452 30.0341C181.557 30.0341 181.648 30.0341 181.726 30.0341C181.817 30.0341 181.915 30.0277 182.021 30.0147H182.197C182.575 30.0147 182.799 30.0922 182.87 30.2472C182.942 30.4022 182.93 30.6992 182.834 31.1384C182.759 31.5258 182.735 31.9133 182.763 32.3007C182.805 32.6882 182.827 33.0756 182.829 33.4631C182.84 33.8893 182.85 34.3155 182.861 34.7417C182.871 35.1679 182.862 35.5941 182.833 36.0203C182.751 37.1697 182.657 38.3127 182.55 39.4492C182.445 40.5729 182.326 41.7029 182.193 42.8395C182.084 43.6919 181.942 44.5443 181.768 45.3967C181.608 46.2361 181.448 47.0821 181.286 47.9345C181.186 48.5157 181.072 49.0968 180.946 49.678C180.821 50.2463 180.714 50.821 180.627 51.4022C180.488 52.2804 180.37 53.1522 180.272 54.0175C180.176 54.8699 180.065 55.7352 179.939 56.6134C179.921 56.7555 179.902 56.904 179.882 57.059C179.877 57.2011 179.852 57.3431 179.808 57.4852C179.675 58.0147 179.492 58.3763 179.259 58.5701C179.04 58.7509 178.657 58.8413 178.111 58.8413C177.718 58.8542 177.327 58.8607 176.936 58.8607C176.546 58.8607 176.155 58.8607 175.764 58.8607H172.522ZM205.822 39.2168C205.309 39.2555 204.789 39.3007 204.262 39.3524C203.749 39.3911 203.229 39.4363 202.701 39.488C202.674 39.5009 202.627 39.5074 202.562 39.5074C202.263 39.5074 202.045 39.4234 201.911 39.2555C201.778 39.0747 201.681 38.8616 201.622 38.6162C201.43 37.6734 201.021 36.9566 200.393 36.4658C199.766 35.9751 198.951 35.7297 197.949 35.7297C197.61 35.7297 197.293 35.7684 196.996 35.8459C196.702 35.9105 196.447 36.0138 196.234 36.1559C196.02 36.298 195.819 36.4981 195.63 36.7564C195.44 37.0147 195.324 37.2601 195.281 37.4926C195.222 37.8542 195.228 38.2158 195.298 38.5775C195.371 38.9262 195.491 39.2555 195.66 39.5655C195.842 39.8754 196.067 40.1531 196.335 40.3985C196.616 40.6439 196.924 40.8312 197.259 40.9603C197.99 41.2444 198.724 41.5157 199.459 41.774C200.196 42.0193 200.923 42.2906 201.64 42.5876C202.121 42.7943 202.595 43.0074 203.062 43.2269C203.53 43.4336 203.981 43.6725 204.415 43.9437C204.851 44.202 205.255 44.4991 205.629 44.8348C206.017 45.1577 206.359 45.5387 206.654 45.9778C207.422 47.1014 207.875 48.2896 208.014 49.5424C208.154 50.7823 207.906 52.1061 207.27 53.5138C207.02 54.0433 206.783 54.5728 206.559 55.1024C206.336 55.619 205.994 56.1033 205.533 56.5553C204.937 57.1365 204.297 57.6144 203.611 57.9889C202.924 58.3634 202.204 58.6476 201.45 58.8413C200.654 59.0608 199.856 59.2417 199.057 59.3837C198.27 59.5258 197.477 59.6679 196.678 59.8099C196.596 59.8358 196.517 59.8487 196.438 59.8487C196.36 59.8487 196.282 59.8487 196.204 59.8487C196.035 59.8487 195.866 59.8422 195.699 59.8293C195.531 59.8164 195.371 59.797 195.218 59.7712C194.642 59.6937 194.059 59.6162 193.47 59.5387C192.894 59.4612 192.321 59.3644 191.75 59.2481C191.192 59.1319 190.644 58.9834 190.108 58.8025C189.573 58.6088 189.057 58.3634 188.562 58.0664C188.248 57.8727 187.928 57.6725 187.603 57.4658C187.28 57.2463 187.033 56.988 186.863 56.6909C186.35 55.8127 185.906 54.9151 185.528 53.9981C185.166 53.0682 184.921 52.0802 184.795 51.0341C184.751 50.5692 184.811 50.2011 184.976 49.9299C185.155 49.6457 185.481 49.4455 185.951 49.3293C186.396 49.2131 186.836 49.1291 187.273 49.0775C187.722 49.0258 188.161 49 188.591 49C189.138 49 189.668 49.0323 190.18 49.0968C190.706 49.1614 191.235 49.2454 191.769 49.3487C191.985 49.3874 192.128 49.4907 192.198 49.6586C192.282 49.8136 192.298 49.9944 192.246 50.2011C192.137 50.7435 192.19 51.2472 192.404 51.7121C192.619 52.1642 192.927 52.5581 193.326 52.8939C193.726 53.2297 194.174 53.4944 194.67 53.6882C195.179 53.8819 195.668 53.9787 196.136 53.9787C196.813 53.9787 197.466 53.869 198.093 53.6494C198.721 53.4169 199.233 52.9778 199.629 52.3321C200.119 51.5572 200.127 50.8339 199.653 50.1623C199.312 49.6716 198.9 49.2841 198.415 49C197.933 48.7029 197.419 48.4446 196.874 48.2251C195.972 47.8505 195.068 47.4824 194.164 47.1208C193.26 46.7592 192.367 46.3588 191.486 45.9197C190.776 45.571 190.113 45.1513 189.499 44.6605C188.9 44.1568 188.397 43.5562 187.992 42.8588C187.599 42.1614 187.316 41.4253 187.142 40.6503C186.968 39.8754 186.918 39.0941 186.993 38.3063C187.083 37.5055 187.295 36.7177 187.628 35.9428C187.977 35.155 188.464 34.4059 189.088 33.6956C189.438 33.3081 189.818 32.9852 190.228 32.7269C190.639 32.4686 191.069 32.2103 191.519 31.952C192.055 31.6291 192.597 31.3644 193.144 31.1577C193.693 30.9382 194.245 30.7509 194.798 30.5959C195.352 30.4409 195.909 30.3118 196.469 30.2085C197.042 30.1052 197.609 30.0018 198.169 29.8985C198.594 29.8339 199.011 29.7823 199.419 29.7435C199.841 29.7048 200.26 29.6854 200.677 29.6854C201.614 29.6854 202.526 29.7823 203.413 29.976C204.301 30.1568 205.116 30.4539 205.857 30.8671C206.599 31.2804 207.232 31.8229 207.758 32.4945C208.286 33.1531 208.652 33.9539 208.856 34.8967C208.971 35.4262 209.044 35.9686 209.077 36.524C209.125 37.0664 209.16 37.6088 209.181 38.1513C209.198 38.5258 209.111 38.8035 208.918 38.9843C208.739 39.1651 208.459 39.2684 208.078 39.2943C207.933 39.3072 207.781 39.3201 207.623 39.333C207.48 39.333 207.337 39.333 207.194 39.333C206.972 39.333 206.745 39.333 206.51 39.333C206.277 39.3201 206.05 39.3136 205.829 39.3136L205.822 39.2168ZM229.939 35.5941C229.839 36.5756 229.747 37.5443 229.664 38.5C229.58 39.4557 229.494 40.4372 229.404 41.4446H230.341H230.888C232.19 41.4446 233.486 41.4446 234.775 41.4446C236.064 41.4446 237.358 41.4575 238.656 41.4834C238.774 41.4834 238.928 41.4963 239.12 41.5221C239.312 41.5479 239.495 41.5932 239.669 41.6577C239.856 41.7223 240.015 41.8063 240.145 41.9096C240.275 42.0129 240.335 42.1485 240.327 42.3164C240.297 42.6522 240.28 42.988 240.276 43.3238C240.285 43.6596 240.287 43.9954 240.283 44.3312C240.279 44.6669 240.255 45.0092 240.21 45.3579C240.18 45.6937 240.104 46.036 239.981 46.3847C239.86 46.7205 239.71 46.9723 239.533 47.1402C239.37 47.2952 239.137 47.3856 238.834 47.4114C238.256 47.4502 237.686 47.476 237.125 47.4889C236.576 47.5018 236.014 47.5212 235.438 47.547C234.913 47.5729 234.396 47.5987 233.885 47.6245C233.375 47.6374 232.86 47.6439 232.339 47.6439H232.046C231.499 47.6439 230.955 47.6245 230.413 47.5858C229.884 47.547 229.329 47.5083 228.748 47.4695C228.628 47.999 228.516 48.5221 228.41 49.0387C228.32 49.5424 228.21 50.0461 228.08 50.5498C227.852 51.5184 227.63 52.4871 227.414 53.4557C227.212 54.4243 227.153 55.393 227.237 56.3616C227.253 56.4391 227.249 56.523 227.224 56.6134C227.214 56.6909 227.204 56.7749 227.192 56.8653C227.136 57.3044 227.08 57.6402 227.024 57.8727C226.983 58.0922 226.896 58.2601 226.764 58.3763C226.645 58.4926 226.459 58.5701 226.207 58.6088C225.967 58.6476 225.629 58.6992 225.191 58.7638C224.965 58.8025 224.74 58.8284 224.517 58.8413C224.294 58.8542 224.072 58.8607 223.85 58.8607C223.147 58.8607 222.456 58.8219 221.775 58.7444C221.097 58.654 220.387 58.6088 219.644 58.6088H219.449C219.481 58.2601 219.509 57.9372 219.534 57.6402C219.574 57.3302 219.613 57.0267 219.651 56.7297C219.769 55.6061 219.886 54.4889 220.002 53.3782C220.132 52.2675 220.256 51.1439 220.376 50.0073C220.416 49.5941 220.449 49.1808 220.476 48.7675C220.516 48.3542 220.576 47.9409 220.655 47.5276C220.927 45.9133 221.21 44.3118 221.505 42.7232C221.802 41.1217 222.066 39.5138 222.299 37.8994C222.435 36.9437 222.511 35.9944 222.528 35.0516C222.558 34.1088 222.601 33.1596 222.659 32.2039C222.68 31.9326 222.709 31.6614 222.743 31.3902C222.791 31.119 222.826 30.8478 222.848 30.5766C222.865 30.2408 222.965 30.0147 223.149 29.8985C223.334 29.7823 223.576 29.7177 223.877 29.7048C225.613 29.679 227.328 29.6531 229.024 29.6273C230.735 29.5885 232.45 29.5692 234.168 29.5692H235.203C236.256 29.5821 237.291 29.6338 238.309 29.7242C239.326 29.8146 240.357 29.8921 241.404 29.9566C241.467 29.9695 241.531 29.976 241.597 29.976C241.662 29.976 241.727 29.976 241.792 29.976C241.896 29.976 242.007 29.976 242.124 29.976C242.243 29.9631 242.367 29.9566 242.497 29.9566C242.716 30.3828 242.811 30.8155 242.78 31.2546C242.75 31.6937 242.68 32.1393 242.57 32.5913C242.473 33.0433 242.375 33.5018 242.276 33.9668C242.192 34.4188 242.199 34.8773 242.295 35.3422C241.4 35.3164 240.531 35.2906 239.688 35.2647C238.845 35.2389 238 35.226 237.154 35.226C236.998 35.226 236.841 35.226 236.685 35.226C236.529 35.226 236.365 35.2325 236.194 35.2454C235.189 35.2712 234.173 35.3229 233.147 35.4004C232.136 35.4649 231.067 35.5295 229.939 35.5941ZM251.988 52.9714H256.891H259.273C259.573 52.9714 259.866 52.9714 260.152 52.9714C260.44 52.9585 260.734 52.952 261.034 52.952C261.216 52.952 261.397 52.9585 261.578 52.9714C261.773 52.9714 261.968 52.9778 262.161 52.9907C262.446 53.0037 262.67 53.0359 262.833 53.0876C263.008 53.1393 263.128 53.2232 263.191 53.3395C263.269 53.4428 263.303 53.5848 263.293 53.7656C263.282 53.9465 263.24 54.1789 263.164 54.4631C262.966 55.1992 262.781 55.9289 262.61 56.6522C262.441 57.3625 262.268 58.0535 262.09 58.7251C261.078 58.6992 260.097 58.6799 259.149 58.6669C258.2 58.654 257.252 58.6346 256.304 58.6088C255.657 58.583 255.016 58.5572 254.381 58.5313C253.761 58.4926 253.132 58.4732 252.494 58.4732H251.947C250.798 58.499 249.645 58.5507 248.489 58.6282C247.335 58.6928 246.18 58.7638 245.025 58.8413C244.932 58.8542 244.846 58.8607 244.768 58.8607C244.69 58.8607 244.619 58.8607 244.553 58.8607C244.059 58.8607 243.74 58.7573 243.597 58.5507C243.469 58.3311 243.432 57.9114 243.485 57.2915C243.6 55.8837 243.72 54.4954 243.843 53.1264C243.968 51.7444 244.088 50.3561 244.202 48.9612C244.262 48.083 244.308 47.2177 244.339 46.3653C244.372 45.5 244.419 44.6282 244.479 43.75C244.501 43.3754 244.548 43.0074 244.621 42.6457C244.708 42.2712 244.788 41.8967 244.862 41.5221C244.894 41.3801 244.918 41.238 244.937 41.0959C244.968 40.9539 244.992 40.8118 245.011 40.6697C245.033 40.2952 245.047 39.9271 245.055 39.5655C245.064 39.1909 245.099 38.8164 245.16 38.4419C245.328 37.2278 245.502 36.0267 245.68 34.8385C245.872 33.6504 246.052 32.4492 246.22 31.2352C246.28 30.8736 246.372 30.5572 246.498 30.286C246.639 30.0018 246.856 29.7823 247.149 29.6273H249.044H251.876C251.941 29.6273 252.001 29.6144 252.056 29.5885C252.126 29.5498 252.193 29.5369 252.257 29.5498C252.655 29.5885 252.976 29.6273 253.218 29.666C253.474 29.7048 253.666 29.7823 253.794 29.8985C253.937 30.0018 254.026 30.1697 254.061 30.4022C254.097 30.6347 254.1 30.964 254.071 31.3902C254.003 32.2297 253.908 33.0692 253.788 33.9087C253.669 34.7352 253.555 35.5747 253.445 36.4271C253.407 36.7242 253.381 37.0277 253.368 37.3376C253.354 37.6476 253.327 37.9575 253.287 38.2675C253.175 39.0424 253.057 39.8109 252.933 40.5729C252.811 41.3219 252.708 42.0775 252.623 42.8395C252.532 43.7564 252.44 44.6734 252.349 45.5904C252.259 46.4944 252.188 47.405 252.135 48.3219C252.089 49.0839 252.057 49.8459 252.037 50.6079C252.031 51.3699 252.014 52.1577 251.988 52.9714ZM278.248 30.654C278.756 30.654 279.263 30.6605 279.769 30.6734C280.277 30.6734 280.784 30.6734 281.292 30.6734C281.631 30.6734 281.956 30.6734 282.269 30.6734C282.594 30.6734 282.921 30.667 283.248 30.654C283.626 30.654 283.923 30.667 284.141 30.6928C284.372 30.7186 284.553 30.7832 284.683 30.8865C284.828 30.9769 284.94 31.119 285.019 31.3127C285.111 31.5064 285.201 31.7712 285.288 32.107C285.562 33.2177 285.858 34.3155 286.175 35.4004C286.506 36.4723 286.809 37.5636 287.083 38.6743C287.304 39.5913 287.491 40.5147 287.646 41.4446C287.802 42.3616 287.976 43.285 288.169 44.2149C288.231 44.5507 288.312 44.88 288.414 45.2029C288.53 45.5129 288.633 45.8293 288.722 46.1522C289.075 47.4566 289.417 48.7546 289.746 50.0461C290.09 51.3247 290.439 52.6097 290.795 53.9013C290.914 54.392 291.041 54.8763 291.175 55.3542C291.309 55.8321 291.457 56.3035 291.619 56.7684C291.751 57.1559 291.818 57.5498 291.819 57.9501C291.821 58.3376 291.702 58.7573 291.462 59.2094C291.38 59.2352 291.292 59.261 291.198 59.2869C291.104 59.3127 291.004 59.3256 290.9 59.3256C290.07 59.2998 289.242 59.261 288.415 59.2094C287.6 59.1706 286.778 59.1319 285.949 59.0931C285.819 59.0931 285.689 59.0931 285.559 59.0931C285.442 59.0931 285.32 59.0802 285.193 59.0544C284.849 58.9898 284.564 58.88 284.336 58.7251C284.111 58.5572 283.992 58.2666 283.979 57.8533C283.938 57.3625 283.89 56.8782 283.834 56.4003C283.778 55.9225 283.709 55.4446 283.627 54.9668C283.555 54.5147 283.432 54.1983 283.26 54.0175C283.09 53.8238 282.803 53.7269 282.399 53.7269C282.269 53.7269 282.17 53.7334 282.104 53.7463C281.262 53.8109 280.424 53.9013 279.588 54.0175C278.753 54.1337 277.915 54.2241 277.073 54.2887C276.889 54.3016 276.705 54.3145 276.521 54.3275C276.339 54.3275 276.157 54.3275 275.974 54.3275C275.675 54.3275 275.376 54.3275 275.076 54.3275C274.778 54.3145 274.473 54.3081 274.161 54.3081C273.86 54.928 273.552 55.5479 273.239 56.1679C272.925 56.7878 272.628 57.4271 272.348 58.0858C272.221 58.3699 272.069 58.583 271.895 58.7251C271.734 58.8671 271.502 58.9446 271.201 58.9575C270.95 58.9834 270.7 59.0092 270.449 59.035C270.197 59.0738 269.946 59.0996 269.697 59.1125C268.356 59.2158 267.017 59.2933 265.683 59.345C265.513 59.345 265.347 59.3256 265.182 59.2869C265.031 59.2481 264.881 59.2029 264.731 59.1513C264.271 58.9834 264.149 58.6605 264.367 58.1826C264.514 57.8468 264.655 57.511 264.789 57.1752C264.925 56.8265 265.079 56.4907 265.25 56.1679C265.845 54.9797 266.446 53.7979 267.052 52.6227C267.659 51.4474 268.266 50.2657 268.874 49.0775C269.427 48.0184 269.973 46.9594 270.512 45.9003C271.064 44.8413 271.611 43.7758 272.152 42.7039C272.764 41.4898 273.354 40.2887 273.923 39.1005C274.506 37.8994 275.104 36.6919 275.715 35.4778C276.119 34.6642 276.534 33.8635 276.961 33.0756C277.389 32.2749 277.818 31.4677 278.248 30.654ZM277.409 48.1669C278.133 48.2057 278.857 48.2444 279.581 48.2832C280.306 48.3219 281.062 48.3607 281.852 48.3994C281.609 47.0433 281.367 45.7324 281.125 44.4668C280.899 43.1882 280.669 41.8837 280.436 40.5535C279.645 41.9483 278.981 43.3173 278.444 44.6605C277.922 45.9907 277.577 47.1596 277.409 48.1669ZM325.155 30.4022C324.429 31.9004 323.736 33.3468 323.075 34.7417C322.415 36.1365 321.749 37.5249 321.077 38.9068C320.635 39.8109 320.188 40.7085 319.735 41.5996C319.295 42.4908 318.856 43.3819 318.416 44.273C318.061 45.0092 317.72 45.7389 317.393 46.4622C317.081 47.1725 316.754 47.8957 316.412 48.6319C315.998 49.523 315.585 50.4077 315.173 51.2859C314.763 52.1513 314.357 53.0295 313.956 53.9206C313.685 54.5147 313.426 55.1088 313.181 55.7029C312.935 56.297 312.689 56.8976 312.442 57.5046C312.218 58.0341 311.905 58.4409 311.504 58.7251C311.116 59.0092 310.642 59.1513 310.083 59.1513C309.292 59.1254 308.508 59.0931 307.732 59.0544C306.954 59.0286 306.169 59.0027 305.378 58.9769C304.911 58.964 304.543 58.9382 304.275 58.8994C304.007 58.8607 303.789 58.7832 303.621 58.6669C303.469 58.5378 303.348 58.357 303.261 58.1245C303.188 57.8791 303.109 57.5369 303.022 57.0977C302.711 55.5609 302.42 54.024 302.148 52.4871C301.889 50.9502 301.612 49.4068 301.316 47.857C300.851 45.3902 300.35 42.9492 299.813 40.5341C299.29 38.119 298.741 35.6974 298.167 33.2694C298.076 32.8561 297.966 32.4492 297.835 32.0489C297.704 31.6485 297.564 31.2159 297.415 30.7509C297.645 30.6863 297.863 30.6088 298.07 30.5184C298.292 30.4151 298.507 30.357 298.717 30.3441C299.388 30.2924 300.05 30.2601 300.702 30.2472C301.37 30.2214 302.036 30.2085 302.7 30.2085C302.999 30.2085 303.29 30.2214 303.574 30.2472C303.87 30.2731 304.167 30.286 304.467 30.286C305.265 30.2601 305.735 30.6024 305.878 31.3127C305.988 31.7777 306.077 32.2491 306.146 32.7269C306.23 33.1919 306.319 33.6633 306.414 34.1411C306.551 34.7998 306.696 35.4456 306.849 36.0784C307.003 36.7112 307.135 37.357 307.245 38.0157C307.491 39.5526 307.724 41.0895 307.943 42.6264C308.165 44.1503 308.392 45.6808 308.624 47.2177C308.682 47.5793 308.746 47.9409 308.817 48.3026C308.89 48.6513 308.994 49.0064 309.13 49.3681C309.305 48.916 309.474 48.464 309.636 48.012C309.813 47.547 310.002 47.0885 310.203 46.6365C310.855 45.0996 311.513 43.5756 312.176 42.0646C312.84 40.5406 313.493 39.0037 314.134 37.4539C314.504 36.6015 314.842 35.7426 315.148 34.8773C315.454 34.012 315.773 33.1467 316.106 32.2814C316.124 32.2426 316.135 32.2039 316.14 32.1651C316.145 32.1264 316.157 32.0876 316.175 32.0489C316.335 31.7131 316.477 31.3644 316.602 31.0028C316.726 30.6411 316.903 30.3312 317.131 30.0729C317.239 29.9437 317.347 29.8598 317.456 29.821C317.58 29.7694 317.701 29.7435 317.818 29.7435C318.026 29.7435 318.236 29.7823 318.447 29.8598C318.672 29.9373 318.895 29.976 319.116 29.976H319.155C319.377 29.976 319.591 29.976 319.8 29.976C320.01 29.9631 320.225 29.9566 320.447 29.9566C321.072 29.9566 321.689 29.9695 322.297 29.9954C322.908 30.0083 323.524 30.0277 324.145 30.0535C324.313 30.0664 324.476 30.1116 324.636 30.1891C324.795 30.2666 324.968 30.3376 325.155 30.4022ZM351.747 44.7961C351.735 45.4031 351.621 46.036 351.406 46.6946C351.205 47.3533 350.912 48.012 350.528 48.6706C350.378 48.9289 350.247 49.1872 350.136 49.4455C350.037 49.7038 349.939 49.9621 349.841 50.2204C349.322 51.6282 348.597 52.8616 347.667 53.9206C346.737 54.9797 345.632 55.9354 344.35 56.7878C343.725 57.2011 343.117 57.5756 342.527 57.9114C341.938 58.2343 341.343 58.512 340.74 58.7444C340.139 58.964 339.519 59.1319 338.879 59.2481C338.25 59.3773 337.578 59.4418 336.862 59.4418C336.067 59.4418 335.29 59.3644 334.528 59.2094C333.78 59.0544 333.04 58.8348 332.308 58.5507C331.687 58.3182 331.064 58.0987 330.439 57.892C329.829 57.6725 329.249 57.3754 328.698 57.0009C327.952 56.523 327.32 55.9677 326.802 55.3348C326.298 54.702 325.911 53.9594 325.643 53.107C325.403 52.3321 325.237 51.5507 325.142 50.7629C325.05 49.9621 325.045 49.1356 325.128 48.2832C325.16 47.9345 325.179 47.5858 325.184 47.2371C325.203 46.8883 325.222 46.5396 325.24 46.1909C325.281 45.571 325.366 44.9575 325.496 44.3505C325.639 43.7435 325.8 43.143 325.981 42.5489C326.163 41.9419 326.344 41.3413 326.524 40.7472C326.706 40.1402 326.862 39.5332 326.992 38.9262C327.166 38.0738 327.486 37.3053 327.952 36.6208C328.43 35.9363 328.965 35.2647 329.558 34.6061C330.667 33.3662 331.885 32.3976 333.211 31.7002C334.539 30.9898 335.984 30.4861 337.546 30.1891C337.666 30.1633 337.787 30.1374 337.907 30.1116C338.041 30.0858 338.173 30.0729 338.303 30.0729H338.42C339.099 30.1633 339.764 30.2537 340.417 30.3441C341.084 30.4216 341.756 30.512 342.433 30.6153C342.522 30.6282 342.609 30.6605 342.694 30.7122C342.78 30.7509 342.862 30.7703 342.94 30.7703C342.966 30.7703 342.993 30.7638 343.021 30.7509C343.293 30.6605 343.559 30.6153 343.819 30.6153C344.067 30.6153 344.303 30.654 344.527 30.7315C344.753 30.7961 344.97 30.8801 345.178 30.9834C345.386 31.0867 345.594 31.1965 345.8 31.3127C346.008 31.416 346.225 31.5064 346.449 31.5839C347.021 31.7906 347.547 32.0618 348.024 32.3976C348.502 32.7334 348.897 33.1596 349.208 33.6762C349.563 34.2574 349.926 34.8321 350.296 35.4004C350.665 35.9686 350.979 36.5692 351.237 37.202C351.651 38.2352 351.889 39.3718 351.952 40.6116C352.016 41.8385 351.948 43.2334 351.747 44.7961ZM333.072 45.2804C332.921 46.3524 332.835 47.3791 332.814 48.3607C332.807 49.3293 332.997 50.2786 333.386 51.2085C333.626 51.7767 333.906 52.2287 334.228 52.5645C334.549 52.9003 334.913 53.1586 335.32 53.3395C335.728 53.5073 336.183 53.6171 336.684 53.6688C337.2 53.7075 337.757 53.7269 338.356 53.7269C339.059 53.7269 339.611 53.5848 340.012 53.3007C340.426 53.0166 340.787 52.5387 341.095 51.8671C341.201 51.6476 341.312 51.4409 341.428 51.2472C341.546 51.0406 341.664 50.8275 341.783 50.6079C341.94 50.2979 342.096 49.9944 342.252 49.6974C342.422 49.3874 342.573 49.071 342.705 48.7481C343.044 47.9345 343.298 47.1208 343.468 46.3072C343.637 45.4935 343.74 44.6863 343.778 43.8856C343.83 43.0719 343.817 42.2647 343.737 41.464C343.67 40.6633 343.57 39.869 343.437 39.0812C343.349 38.5516 343.223 38.1125 343.059 37.7638C342.897 37.4022 342.68 37.1116 342.409 36.892C342.151 36.6725 341.839 36.5175 341.473 36.4271C341.108 36.3238 340.672 36.2721 340.164 36.2721C340.086 36.2721 340.008 36.2721 339.93 36.2721C339.865 36.2721 339.786 36.2786 339.693 36.2915C339.132 36.3044 338.619 36.3432 338.155 36.4077C337.705 36.4594 337.293 36.5756 336.919 36.7564C336.544 36.9373 336.197 37.202 335.879 37.5507C335.561 37.8994 335.26 38.3708 334.975 38.9649C334.477 40.011 334.055 41.0636 333.711 42.1227C333.367 43.1817 333.154 44.2343 333.072 45.2804ZM372.572 47.1983C372.874 48.0895 373.168 48.9483 373.453 49.7749C373.737 50.6014 374.007 51.4409 374.263 52.2933C374.469 53.0166 374.705 53.714 374.971 54.3856C375.236 55.0572 375.59 55.7029 376.031 56.3228C376.166 56.4907 376.257 56.6909 376.306 56.9234C376.354 57.1559 376.387 57.4077 376.404 57.6789C376.423 57.9372 376.428 58.202 376.419 58.4732C376.424 58.7444 376.442 59.0092 376.474 59.2675C376.322 59.3321 376.185 59.3902 376.061 59.4418C375.948 59.5064 375.86 59.5387 375.795 59.5387C375.769 59.5387 375.75 59.5322 375.739 59.5193C375.568 59.4289 375.393 59.3708 375.214 59.345C375.035 59.3191 374.854 59.3062 374.672 59.3062C374.425 59.3062 374.176 59.3191 373.925 59.345C373.674 59.3708 373.425 59.3837 373.178 59.3837C372.514 59.3837 371.854 59.3514 371.198 59.2869C370.541 59.2352 369.884 59.1771 369.228 59.1125C368.843 59.0738 368.535 58.9317 368.306 58.6863C368.09 58.4409 367.932 58.1503 367.832 57.8145C367.446 56.5618 367.073 55.309 366.712 54.0562C366.354 52.7906 365.982 51.5249 365.598 50.2592C365.551 50.1171 365.503 49.9815 365.454 49.8524C365.421 49.7103 365.364 49.5424 365.285 49.3487C364.774 49.3745 364.262 49.4068 363.749 49.4455C363.251 49.4714 362.753 49.4972 362.254 49.523C362.027 50.9954 361.803 52.4354 361.583 53.8431C361.366 55.238 361.14 56.6393 360.908 58.047C360.863 58.2924 360.825 58.4926 360.792 58.6476C360.76 58.7896 360.714 58.8994 360.652 58.9769C360.588 59.0673 360.503 59.1254 360.395 59.1513C360.288 59.1771 360.143 59.19 359.96 59.19H359.531C358.675 59.1642 357.826 59.1319 356.985 59.0931C356.143 59.0544 355.294 59.0221 354.438 58.9963C354.1 58.9963 353.882 58.9188 353.785 58.7638C353.689 58.5959 353.66 58.3634 353.698 58.0664C353.877 56.8782 354.03 55.6835 354.158 54.4824C354.524 51.3182 354.876 48.1669 355.214 45.0286C355.564 41.8902 355.909 38.7389 356.25 35.5747C356.32 34.8256 356.376 34.083 356.418 33.3468C356.461 32.6107 356.517 31.8681 356.587 31.119C356.604 30.8865 356.626 30.7122 356.654 30.5959C356.696 30.4668 356.754 30.3699 356.828 30.3053C356.903 30.2278 357.002 30.1633 357.126 30.1116C357.263 30.06 357.434 29.9954 357.639 29.9179C357.885 29.8275 358.12 29.7694 358.345 29.7435C358.571 29.7048 358.795 29.6854 359.017 29.6854C359.394 29.6854 359.755 29.7112 360.1 29.7629C360.458 29.8146 360.82 29.8404 361.184 29.8404H361.262C361.445 29.8404 361.618 29.8598 361.782 29.8985C361.948 29.9243 362.116 29.9373 362.285 29.9373C362.311 29.9373 362.344 29.9373 362.383 29.9373C362.423 29.9243 362.457 29.9179 362.483 29.9179C363.623 29.7629 364.739 29.6854 365.833 29.6854C366.992 29.6854 368.129 29.75 369.246 29.8791C370.375 30.0083 371.507 30.1633 372.643 30.3441C373.549 30.4861 374.346 30.7703 375.034 31.1965C375.721 31.6227 376.384 32.0941 377.02 32.6107C377.399 32.9077 377.694 33.25 377.904 33.6374C378.117 34.012 378.28 34.4123 378.395 34.8385C378.51 35.2647 378.576 35.7103 378.595 36.1753C378.628 36.6273 378.634 37.0858 378.614 37.5507C378.616 38.0415 378.552 38.5387 378.422 39.0424C378.307 39.5332 378.186 40.024 378.058 40.5147C377.886 41.1476 377.652 41.7481 377.358 42.3164C377.064 42.8847 376.722 43.4206 376.332 43.9243C375.942 44.428 375.509 44.9059 375.035 45.3579C374.573 45.8099 374.081 46.2491 373.557 46.6752C373.399 46.7915 373.23 46.8883 373.051 46.9658C372.885 47.0433 372.725 47.1208 372.572 47.1983ZM363.135 43.4206C363.366 43.4465 363.59 43.4723 363.808 43.4981C364.041 43.511 364.268 43.5175 364.489 43.5175C365.231 43.5175 365.957 43.4465 366.665 43.3044C367.388 43.1494 368.115 42.9622 368.846 42.7426C369.307 42.6005 369.67 42.3616 369.934 42.0258C370.199 41.69 370.38 41.2961 370.477 40.8441C370.603 40.2629 370.664 39.6882 370.659 39.1199C370.653 38.5516 370.576 37.9898 370.425 37.4345C370.309 37.0212 370.128 36.6596 369.881 36.3496C369.636 36.0267 369.3 35.8524 368.874 35.8266C368.46 35.8007 368.041 35.7684 367.617 35.7297C367.194 35.678 366.767 35.6522 366.338 35.6522C365.921 35.6522 365.494 35.6845 365.056 35.7491C364.618 35.8136 364.18 35.9299 363.741 36.0978C363.651 37.3118 363.548 38.5194 363.433 39.7205C363.331 40.9216 363.232 42.155 363.135 43.4206ZM401.33 39.2168C400.817 39.2555 400.297 39.3007 399.769 39.3524C399.257 39.3911 398.737 39.4363 398.209 39.488C398.181 39.5009 398.135 39.5074 398.07 39.5074C397.77 39.5074 397.553 39.4234 397.419 39.2555C397.285 39.0747 397.189 38.8616 397.129 38.6162C396.938 37.6734 396.528 36.9566 395.901 36.4658C395.274 35.9751 394.459 35.7297 393.457 35.7297C393.118 35.7297 392.801 35.7684 392.504 35.8459C392.209 35.9105 391.955 36.0138 391.742 36.1559C391.528 36.298 391.327 36.4981 391.137 36.7564C390.948 37.0147 390.832 37.2601 390.789 37.4926C390.73 37.8542 390.735 38.2158 390.806 38.5775C390.879 38.9262 390.999 39.2555 391.168 39.5655C391.349 39.8754 391.574 40.1531 391.842 40.3985C392.123 40.6439 392.431 40.8312 392.766 40.9603C393.498 41.2444 394.232 41.5157 394.967 41.774C395.704 42.0193 396.43 42.2906 397.148 42.5876C397.629 42.7943 398.103 43.0074 398.57 43.2269C399.038 43.4336 399.489 43.6725 399.923 43.9437C400.359 44.202 400.763 44.4991 401.137 44.8348C401.525 45.1577 401.867 45.5387 402.162 45.9778C402.93 47.1014 403.383 48.2896 403.522 49.5424C403.662 50.7823 403.414 52.1061 402.778 53.5138C402.528 54.0433 402.291 54.5728 402.067 55.1024C401.844 55.619 401.502 56.1033 401.04 56.5553C400.445 57.1365 399.804 57.6144 399.118 57.9889C398.432 58.3634 397.712 58.6476 396.958 58.8413C396.162 59.0608 395.364 59.2417 394.564 59.3837C393.778 59.5258 392.985 59.6679 392.186 59.8099C392.104 59.8358 392.024 59.8487 391.946 59.8487C391.868 59.8487 391.79 59.8487 391.712 59.8487C391.543 59.8487 391.374 59.8422 391.207 59.8293C391.039 59.8164 390.879 59.797 390.726 59.7712C390.15 59.6937 389.567 59.6162 388.978 59.5387C388.402 59.4612 387.829 59.3644 387.258 59.2481C386.7 59.1319 386.152 58.9834 385.616 58.8025C385.08 58.6088 384.565 58.3634 384.069 58.0664C383.756 57.8727 383.436 57.6725 383.111 57.4658C382.788 57.2463 382.541 56.988 382.371 56.6909C381.858 55.8127 381.413 54.9151 381.036 53.9981C380.674 53.0682 380.429 52.0802 380.303 51.0341C380.258 50.5692 380.319 50.2011 380.484 49.9299C380.663 49.6457 380.988 49.4455 381.459 49.3293C381.904 49.2131 382.344 49.1291 382.78 49.0775C383.23 49.0258 383.669 49 384.099 49C384.646 49 385.175 49.0323 385.688 49.0968C386.214 49.1614 386.743 49.2454 387.277 49.3487C387.493 49.3874 387.636 49.4907 387.706 49.6586C387.79 49.8136 387.806 49.9944 387.754 50.2011C387.645 50.7435 387.698 51.2472 387.911 51.7121C388.127 52.1642 388.434 52.5581 388.834 52.8939C389.234 53.2297 389.682 53.4944 390.178 53.6882C390.687 53.8819 391.175 53.9787 391.644 53.9787C392.321 53.9787 392.973 53.869 393.6 53.6494C394.229 53.4169 394.741 52.9778 395.137 52.3321C395.627 51.5572 395.635 50.8339 395.161 50.1623C394.82 49.6716 394.408 49.2841 393.923 49C393.44 48.7029 392.927 48.4446 392.382 48.2251C391.479 47.8505 390.576 47.4824 389.672 47.1208C388.768 46.7592 387.875 46.3588 386.994 45.9197C386.283 45.571 385.621 45.1513 385.007 44.6605C384.407 44.1568 383.905 43.5562 383.5 42.8588C383.107 42.1614 382.824 41.4253 382.65 40.6503C382.476 39.8754 382.426 39.0941 382.501 38.3063C382.591 37.5055 382.803 36.7177 383.136 35.9428C383.485 35.155 383.971 34.4059 384.596 33.6956C384.945 33.3081 385.325 32.9852 385.736 32.7269C386.147 32.4686 386.577 32.2103 387.027 31.952C387.563 31.6291 388.105 31.3644 388.652 31.1577C389.201 30.9382 389.752 30.7509 390.306 30.5959C390.86 30.4409 391.417 30.3118 391.977 30.2085C392.55 30.1052 393.117 30.0018 393.677 29.8985C394.102 29.8339 394.519 29.7823 394.927 29.7435C395.349 29.7048 395.768 29.6854 396.185 29.6854C397.122 29.6854 398.034 29.7823 398.921 29.976C399.809 30.1568 400.624 30.4539 401.365 30.8671C402.106 31.2804 402.74 31.8229 403.266 32.4945C403.793 33.1531 404.159 33.9539 404.364 34.8967C404.479 35.4262 404.552 35.9686 404.585 36.524C404.633 37.0664 404.667 37.6088 404.689 38.1513C404.706 38.5258 404.618 38.8035 404.426 38.9843C404.247 39.1651 403.966 39.2684 403.585 39.2943C403.441 39.3072 403.289 39.3201 403.131 39.333C402.988 39.333 402.845 39.333 402.702 39.333C402.48 39.333 402.252 39.333 402.018 39.333C401.785 39.3201 401.558 39.3136 401.337 39.3136L401.33 39.2168Z" fill="white"/>
</svg>
