<svg width="424" height="93" viewBox="0 0 424 93" fill="none" xmlns="http://www.w3.org/2000/svg">
<path d="M32.8393 86.7927L34.8591 71.5257H40.4251C43.4391 71.5257 45.1669 73.5977 44.7659 76.6292C44.3648 79.6608 42.0916 81.711 39.0776 81.711H35.4916L34.8193 86.7927H32.8393ZM35.7339 79.8789H39.1219C41.0799 79.8789 42.5042 78.5921 42.7639 76.6292C43.0236 74.6663 41.9398 73.3796 39.9818 73.3796H36.5938L35.7339 79.8789ZM46.0307 86.7927L48.0505 71.5257H57.2465L56.9954 73.4232H49.7794L49.1562 78.1341H55.9542L55.7089 79.988H48.9109L48.2617 84.8952H55.6317L55.3807 86.7927H46.0307ZM65.1098 87.0108C60.7098 87.0108 57.9144 83.6957 58.5146 79.1592C59.1148 74.6227 62.7873 71.3076 67.1873 71.3076C70.7733 71.3076 73.3477 73.4668 73.8111 76.7819H71.7871C71.2836 74.6009 69.4634 73.2269 66.9774 73.2269C63.6774 73.2269 60.9754 75.6914 60.5166 79.1592C60.0578 82.627 62.1078 85.0915 65.4078 85.0915C67.9158 85.0915 70.1082 83.652 71.1974 81.4056H73.2214C71.8942 84.7862 68.6958 87.0108 65.1098 87.0108ZM78.0071 86.7927L79.7817 73.3796H75.2057L75.4509 71.5257H86.5829L86.3377 73.3796H81.7617L79.9871 86.7927H78.0071ZM93.4723 87.0108C88.9843 87.0108 86.1449 83.6957 86.7451 79.1592C87.3452 74.6227 91.0618 71.3076 95.5498 71.3076C100.038 71.3076 102.877 74.6227 102.277 79.1592C101.677 83.6957 97.9603 87.0108 93.4723 87.0108ZM88.7471 79.1592C88.2912 82.6052 90.3602 85.0915 93.7262 85.0915C97.0922 85.0915 99.8192 82.6052 100.275 79.1592C100.731 75.7132 98.6619 73.2269 95.2959 73.2269C91.9299 73.2269 89.203 75.7132 88.7471 79.1592ZM104.64 86.7927L106.66 71.5257H112.226C115.24 71.5257 116.968 73.5977 116.567 76.6292C116.166 79.6608 113.892 81.711 110.878 81.711H107.292L106.62 86.7927H104.64ZM107.535 79.8789H110.923C112.881 79.8789 114.305 78.5921 114.565 76.6292C114.824 74.6663 113.741 73.3796 111.783 73.3796H108.395L107.535 79.8789ZM114.759 86.7927L114.785 86.5964L122.983 71.5257H124.413L128.623 86.5964L128.597 86.7927H126.529L125.562 83.1286H118.764L116.805 86.7927H114.759ZM119.732 81.2966H125.078L123.274 74.6445L119.732 81.2966ZM140.792 86.7927L141.692 79.988H133.86L132.96 86.7927H130.98L133 71.5257H134.98L134.111 78.0905H141.943L142.812 71.5257H144.792L142.772 86.7927H140.792ZM158.984 87.0108C155.398 87.0108 152.788 84.7862 152.356 81.4056H154.358C154.853 83.652 156.686 85.0915 159.194 85.0915C162.186 85.0915 164.676 83.0632 165.446 80.0752H157.856L158.098 78.2432H165.688C165.709 75.2552 163.756 73.2269 160.764 73.2269C158.278 73.2269 156.094 74.6009 155.013 76.7819H152.989C154.33 73.4668 157.476 71.3076 161.062 71.3076C165.462 71.3076 168.257 74.6227 167.657 79.1592C167.057 83.6957 163.384 87.0108 158.984 87.0108ZM175.672 87.1198L175.868 85.6368C171.557 85.4623 169.531 82.6488 170.007 79.0501C170.481 75.4733 173.251 72.6598 177.608 72.4853L177.801 71.0241H179.781L179.588 72.4853C183.635 72.6598 185.953 75.2552 185.451 79.0501C184.943 82.8887 181.941 85.4623 177.848 85.6368L177.652 87.1198H175.672ZM172.031 79.0501C171.662 81.8418 173.124 83.7611 176.14 83.9138L177.424 74.2083C174.368 74.361 172.404 76.2367 172.031 79.0501ZM178.032 83.9138C180.978 83.7611 183.046 81.9291 183.427 79.0501C183.808 76.1712 182.222 74.361 179.316 74.2083L178.032 83.9138ZM199.405 86.7927H197.425L198.928 75.4297L189.175 86.7927H187.613L189.632 71.5257H191.612L190.098 82.9759L199.906 71.5257H201.424L199.405 86.7927ZM210.498 87.0108C206.01 87.0108 203.17 83.6957 203.77 79.1592C204.371 74.6227 208.087 71.3076 212.575 71.3076C217.063 71.3076 219.903 74.6227 219.302 79.1592C218.702 83.6957 214.986 87.0108 210.498 87.0108ZM205.772 79.1592C205.317 82.6052 207.386 85.0915 210.752 85.0915C214.118 85.0915 216.845 82.6052 217.3 79.1592C217.756 75.7132 215.687 73.2269 212.321 73.2269C208.955 73.2269 206.228 75.7132 205.772 79.1592ZM221.665 86.7927L223.685 71.5257H235.125L233.105 86.7927H231.125L232.894 73.4232H225.414L223.645 86.7927H221.665ZM244.096 87.0108C239.696 87.0108 236.901 83.6957 237.501 79.1592C238.101 74.6227 241.774 71.3076 246.174 71.3076C249.76 71.3076 252.334 73.4668 252.797 76.7819H250.773C250.27 74.6009 248.45 73.2269 245.964 73.2269C242.664 73.2269 239.962 75.6914 239.503 79.1592C239.044 82.627 241.094 85.0915 244.394 85.0915C246.902 85.0915 249.095 83.652 250.184 81.4056H252.208C250.88 84.7862 247.682 87.0108 244.096 87.0108ZM263.423 86.7927L258.197 79.3991L258.275 78.8102L265.157 71.5257H267.467L267.441 71.722L260.377 79.0501L265.847 86.5964L265.821 86.7927H263.423ZM254.601 86.7927L256.621 71.5257H258.601L256.581 86.7927H254.601ZM274.586 87.0108C270.098 87.0108 267.258 83.6957 267.858 79.1592C268.459 74.6227 272.175 71.3076 276.663 71.3076C281.151 71.3076 283.991 74.6227 283.39 79.1592C282.79 83.6957 279.074 87.0108 274.586 87.0108ZM269.86 79.1592C269.404 82.6052 271.474 85.0915 274.84 85.0915C278.206 85.0915 280.932 82.6052 281.388 79.1592C281.844 75.7132 279.775 73.2269 276.409 73.2269C273.043 73.2269 270.316 75.7132 269.86 79.1592ZM297.545 86.7927H295.565L297.069 75.4297L287.315 86.7927H285.753L287.773 71.5257H289.753L288.238 82.9759L298.047 71.5257H299.565L297.545 86.7927ZM290.441 69.6501L290.658 68.0143H297.61L297.393 69.6501H290.441ZM316.36 86.7927L311.135 79.3991L311.213 78.8102L318.094 71.5257H320.404L320.378 71.722L313.315 79.0501L318.784 86.5964L318.758 86.7927H316.36ZM307.538 86.7927L309.558 71.5257H311.538L309.518 86.7927H307.538ZM322.566 86.7927L322.594 86.5746L325.134 82.3434L321.501 71.722L321.527 71.5257H323.661L325.346 76.5856L326.506 80.1188L328.527 76.651L331.581 71.5257H333.671L333.645 71.722L324.678 86.7927H322.566ZM332.486 86.7927L332.512 86.5964L338.904 78.8539L334.964 71.722L334.99 71.5257H337.256L339.535 75.5824L340.454 77.2835L341.82 75.6042L345.176 71.5257H347.442L347.416 71.722L341.547 78.832L345.888 86.5964L345.862 86.7927H343.552L340.713 81.6455L340.042 80.4024L339.041 81.6455L334.796 86.7927H332.486ZM358.257 86.7927L359.157 79.988H351.325L350.425 86.7927H348.445L350.465 71.5257H352.445L351.576 78.0905H359.408L360.277 71.5257H362.257L360.237 86.7927H358.257ZM376.243 86.7927H374.263L375.766 75.4297L366.013 86.7927H364.451L366.47 71.5257H368.45L366.936 82.9759L376.744 71.5257H378.262L376.243 86.7927Z" fill="#436421"/>
<path d="M20.8261 17.8849C21.4863 17.8849 22.1454 17.8932 22.8034 17.91C23.4635 17.91 24.1237 17.91 24.7838 17.91C25.2239 17.91 25.6471 17.91 26.0534 17.91C26.4765 17.91 26.9008 17.9016 27.3261 17.8849C27.817 17.8849 28.2042 17.9016 28.4876 17.9352C28.788 17.9688 29.0227 18.0528 29.1917 18.1871C29.3797 18.3046 29.5253 18.4893 29.6285 18.7411C29.7485 18.993 29.8652 19.3372 29.9785 19.7737C30.335 21.2176 30.7191 22.6447 31.1308 24.0551C31.5615 25.4486 31.9551 26.8673 32.3116 28.3112C32.5989 29.5033 32.8428 30.7038 33.0433 31.9126C33.2459 33.1047 33.4728 34.3051 33.7241 35.514C33.8036 35.9505 33.9095 36.3787 34.0419 36.7984C34.1933 37.2013 34.3268 37.6127 34.4422 38.0324C34.9019 39.7282 35.3457 41.4156 35.7737 43.0945C36.2207 44.7567 36.6752 46.4273 37.137 48.1062C37.2922 48.7442 37.4569 49.3738 37.6312 49.9951C37.8054 50.6163 37.9977 51.2291 38.208 51.8335C38.3804 52.3372 38.4671 52.8493 38.468 53.3698C38.4712 53.8735 38.3166 54.4191 38.0042 55.0068C37.8984 55.0404 37.784 55.0739 37.6613 55.1075C37.5385 55.1411 37.4094 55.1579 37.2739 55.1579C36.1949 55.1243 35.118 55.0739 34.0433 55.0068C32.9834 54.9564 31.9149 54.906 30.8381 54.8557C30.6688 54.8557 30.4995 54.8557 30.3303 54.8557C30.1779 54.8557 30.0193 54.8389 29.8543 54.8053C29.408 54.7214 29.037 54.5786 28.7412 54.3772C28.4476 54.1589 28.2929 53.7811 28.2771 53.2439C28.2235 52.6059 28.1604 51.9762 28.0877 51.355C28.015 50.7338 27.9253 50.1126 27.8188 49.4914C27.7249 48.9037 27.566 48.4924 27.3422 48.2573C27.1206 48.0055 26.7475 47.8796 26.2227 47.8796C26.0534 47.8796 25.9254 47.888 25.8386 47.9048C24.7445 47.9887 23.6546 48.1062 22.5688 48.2573C21.483 48.4084 20.3931 48.526 19.299 48.6099C19.0599 48.6267 18.8207 48.6435 18.5816 48.6603C18.3446 48.6603 18.1076 48.6603 17.8707 48.6603C17.4813 48.6603 17.092 48.6603 16.7027 48.6603C16.3155 48.6435 15.9188 48.6351 15.5126 48.6351C15.1215 49.441 14.7219 50.2469 14.3139 51.0528C13.9059 51.8587 13.5201 52.6898 13.1564 53.5461C12.9905 53.9154 12.7942 54.1925 12.5674 54.3772C12.3575 54.5619 12.0568 54.6626 11.6654 54.6794C11.3394 54.713 11.0135 54.7465 10.6876 54.7801C10.3595 54.8305 10.0336 54.8641 9.70985 54.8809C7.96606 55.0152 6.22659 55.1159 4.49141 55.1831C4.27136 55.1831 4.05454 55.1579 3.84094 55.1075C3.64428 55.0571 3.44869 54.9984 3.25417 54.9312C2.65585 54.713 2.49808 54.2932 2.78085 53.672C2.97223 53.2355 3.15515 52.7989 3.32961 52.3624C3.50622 51.9091 3.70607 51.4726 3.92915 51.0528C4.70271 49.5082 5.48366 47.9719 6.27199 46.4441C7.06033 44.9162 7.84974 43.3799 8.64022 41.8353C9.3584 40.4585 10.0681 39.0818 10.7694 37.705C11.4876 36.3283 12.1983 34.9431 12.9017 33.5496C13.6965 31.9714 14.4638 30.4099 15.2035 28.8653C15.9623 27.3038 16.7391 25.734 17.5339 24.1558C18.0588 23.098 18.5985 22.0571 19.153 21.0329C19.7096 19.992 20.2673 18.9426 20.8261 17.8849ZM19.7353 40.6516C20.6768 40.702 21.6183 40.7524 22.5597 40.8027C23.5012 40.8531 24.485 40.9035 25.511 40.9538C25.1954 39.1909 24.8807 37.4868 24.5669 35.8414C24.2722 34.1792 23.9733 32.4835 23.6703 30.7541C22.6423 32.5674 21.7793 34.3471 21.0815 36.0932C20.4027 37.8226 19.954 39.342 19.7353 40.6516ZM41.7795 54.2764C42.0001 53.0844 42.2078 51.9259 42.4028 50.801C42.5978 49.6761 42.7929 48.5512 42.9879 47.4262C43.1509 46.4189 43.3287 45.4283 43.5212 44.4545C43.7329 43.4639 43.8948 42.4649 44.007 41.4575C44.2226 39.6442 44.4021 37.8478 44.5457 36.068C44.6913 34.2716 44.8815 32.4583 45.1161 30.6282C45.2819 29.3354 45.4973 28.051 45.7625 26.775C46.0446 25.499 46.2854 24.2146 46.485 22.9218C46.6093 22.2166 46.6722 21.5282 46.6736 20.8566C46.6942 20.1682 46.7243 19.4715 46.7639 18.7663C46.7774 18.3969 46.7994 18.0276 46.8298 17.6582C46.8624 17.272 46.8908 16.8523 46.9151 16.399C48.2609 16.3318 49.5634 16.273 50.8224 16.2227C52.0837 16.1555 53.3364 16.0884 54.5807 16.0212C55.279 15.9876 55.971 15.9373 56.6567 15.8701C57.3445 15.7861 58.0355 15.7442 58.7295 15.7442C58.8818 15.7442 59.0342 15.7442 59.1865 15.7442C59.3389 15.7442 59.4901 15.7526 59.6403 15.7694C60.4442 15.8365 61.2481 15.9037 62.052 15.9708C62.8559 16.038 63.6459 16.1471 64.4221 16.2982C65.2005 16.4325 65.9544 16.6256 66.6838 16.8775C67.4323 17.1125 68.1425 17.4483 68.8144 17.8849C69.1588 18.1031 69.4545 18.3718 69.7013 18.6908C69.9651 19.0098 70.2395 19.312 70.5245 19.5974C71.7111 20.7727 72.6498 22.0991 73.3405 23.5765C74.0313 25.054 74.613 26.5903 75.0856 28.1853C75.4637 29.4613 75.6237 30.7877 75.5657 32.1645C75.5076 33.5412 75.2973 34.918 74.9346 36.2947C74.4632 37.9905 73.9253 39.6778 73.3207 41.3568C72.7352 43.019 71.9203 44.6224 70.8759 46.167C70.4386 46.805 69.9633 47.4095 69.45 47.9803C68.9367 48.5512 68.4308 49.1304 67.9323 49.718C67.8729 49.7852 67.7977 49.844 67.7066 49.8943C67.6346 49.9279 67.5773 49.9783 67.5349 50.0454C67.297 50.4484 67.017 50.7842 66.6948 51.0528C66.3916 51.3047 66.059 51.5229 65.6968 51.7076C65.3515 51.8923 64.984 52.0518 64.5944 52.1861C64.2048 52.3204 63.8225 52.4631 63.4477 52.6143C62.0754 53.1515 60.7035 53.5545 59.3318 53.8231C57.9792 54.075 56.5993 54.2093 55.1922 54.2261C53.4804 54.2428 51.7728 54.2932 50.0693 54.3772C48.3659 54.4611 46.6656 54.5199 44.9686 54.5535H44.7909C44.3169 54.5535 43.8388 54.5199 43.3565 54.4527C42.8743 54.3856 42.3486 54.3268 41.7795 54.2764ZM52.2867 46.1922H52.9976H53.3277H53.7086H55.7652C56.273 46.1922 56.7724 46.1922 57.2633 46.1922C57.7711 46.1922 58.28 46.1838 58.7899 46.167C58.9761 46.167 59.1582 46.1334 59.336 46.0663C59.533 45.9823 59.7067 45.8816 59.8572 45.7641C60.665 45.0085 61.4253 44.2278 62.138 43.4219C62.8528 42.5992 63.4113 41.6758 63.8135 40.6516C64.3178 39.3588 64.7459 38.066 65.0978 36.7732C65.4498 35.4804 65.6187 34.1624 65.6048 32.8193C65.6012 31.5264 65.4654 30.2756 65.1972 29.0668C64.929 27.8579 64.3558 26.7834 63.4777 25.8431C63.2413 25.5745 62.9847 25.3311 62.708 25.1128C62.4335 24.8777 62.1345 24.7015 61.811 24.5839C60.6439 24.181 59.4087 23.9795 58.1053 23.9795C57.9191 23.9795 57.7233 23.9879 57.5181 24.0047C57.3149 24.0047 57.1192 24.0131 56.9309 24.0299C56.6579 24.0467 56.4335 24.0802 56.2578 24.1306C56.099 24.181 55.9623 24.2565 55.8479 24.3573C55.7503 24.458 55.6728 24.6007 55.6152 24.7854C55.5768 24.9533 55.5308 25.18 55.4773 25.4654C55.3681 26.053 55.2589 26.6407 55.1497 27.2283C55.0405 27.8159 54.9313 28.4036 54.8221 28.9912C54.58 30.3512 54.339 31.7027 54.0991 33.0459C53.8783 34.3723 53.6564 35.7071 53.4334 37.0502C53.3497 37.5707 53.2841 38.0828 53.2364 38.5865C53.1888 39.0902 53.1327 39.5939 53.0681 40.0976C52.9559 41.1049 52.8278 42.1039 52.6839 43.0945C52.5568 44.0851 52.4245 45.1177 52.2867 46.1922ZM77.6311 54.2764C77.8516 53.0844 78.0594 51.9259 78.2544 50.801C78.4494 49.6761 78.6444 48.5512 78.8394 47.4262C79.0024 46.4189 79.1802 45.4283 79.3728 44.4545C79.5844 43.4639 79.7463 42.4649 79.8586 41.4575C80.0741 39.6442 80.2537 37.8478 80.3972 36.068C80.5429 34.2716 80.7331 32.4583 80.9677 30.6282C81.1334 29.3354 81.3489 28.051 81.6141 26.775C81.8961 25.499 82.137 24.2146 82.3366 22.9218C82.4609 22.2166 82.5237 21.5282 82.5252 20.8566C82.5457 20.1682 82.5758 19.4715 82.6155 18.7663C82.629 18.3969 82.6509 18.0276 82.6814 17.6582C82.7139 17.272 82.7424 16.8523 82.7666 16.399C84.1125 16.3318 85.4149 16.273 86.674 16.2227C87.9352 16.1555 89.188 16.0884 90.4322 16.0212C91.1306 15.9876 91.8226 15.9373 92.5083 15.8701C93.1961 15.7861 93.887 15.7442 94.581 15.7442C94.7334 15.7442 94.8857 15.7442 95.0381 15.7442C95.1904 15.7442 95.3417 15.7526 95.4919 15.7694C96.2958 15.8365 97.0997 15.9037 97.9035 15.9708C98.7074 16.038 99.4975 16.1471 100.274 16.2982C101.052 16.4325 101.806 16.6256 102.535 16.8775C103.284 17.1125 103.994 17.4483 104.666 17.8849C105.01 18.1031 105.306 18.3718 105.553 18.6908C105.817 19.0098 106.091 19.312 106.376 19.5974C107.563 20.7727 108.501 22.0991 109.192 23.5765C109.883 25.054 110.465 26.5903 110.937 28.1853C111.315 29.4613 111.475 30.7877 111.417 32.1645C111.359 33.5412 111.149 34.918 110.786 36.2947C110.315 37.9905 109.777 39.6778 109.172 41.3568C108.587 43.019 107.772 44.6224 106.727 46.167C106.29 46.805 105.815 47.4095 105.302 47.9803C104.788 48.5512 104.282 49.1304 103.784 49.718C103.724 49.7852 103.649 49.844 103.558 49.8943C103.486 49.9279 103.429 49.9783 103.386 50.0454C103.149 50.4484 102.869 50.7842 102.546 51.0528C102.243 51.3047 101.911 51.5229 101.548 51.7076C101.203 51.8923 100.836 52.0518 100.446 52.1861C100.056 52.3204 99.6741 52.4631 99.2993 52.6143C97.927 53.1515 96.555 53.5545 95.1833 53.8231C93.8307 54.075 92.4509 54.2093 91.0438 54.2261C89.332 54.2428 87.6244 54.2932 85.9209 54.3772C84.2174 54.4611 82.5172 54.5199 80.8202 54.5535H80.6424C80.1685 54.5535 79.6904 54.5199 79.2081 54.4527C78.7258 54.3856 78.2001 54.3268 77.6311 54.2764ZM88.1383 46.1922H88.8492H89.1793H89.5601H91.6168C92.1246 46.1922 92.6239 46.1922 93.1148 46.1922C93.6226 46.1922 94.1315 46.1838 94.6415 46.167C94.8277 46.167 95.0097 46.1334 95.1876 46.0663C95.3846 45.9823 95.5583 45.8816 95.7088 45.7641C96.5166 45.0085 97.2768 44.2278 97.9895 43.4219C98.7044 42.5992 99.2629 41.6758 99.665 40.6516C100.169 39.3588 100.597 38.066 100.949 36.7732C101.301 35.4804 101.47 34.1624 101.456 32.8193C101.453 31.5264 101.317 30.2756 101.049 29.0668C100.781 27.8579 100.207 26.7834 99.3292 25.8431C99.0928 25.5745 98.8363 25.3311 98.5596 25.1128C98.285 24.8777 97.986 24.7015 97.6625 24.5839C96.4955 24.181 95.2602 23.9795 93.9568 23.9795C93.7706 23.9795 93.5749 23.9879 93.3696 24.0047C93.1665 24.0047 92.9708 24.0131 92.7824 24.0299C92.5094 24.0467 92.2851 24.0802 92.1093 24.1306C91.9505 24.181 91.8139 24.2565 91.6994 24.3573C91.6019 24.458 91.5243 24.6007 91.4668 24.7854C91.4283 24.9533 91.3824 25.18 91.3288 25.4654C91.2196 26.053 91.1104 26.6407 91.0013 27.2283C90.8921 27.8159 90.7829 28.4036 90.6737 28.9912C90.4316 30.3512 90.1906 31.7027 89.9507 33.0459C89.7299 34.3723 89.5079 35.7071 89.285 37.0502C89.2013 37.5707 89.1356 38.0828 89.088 38.5865C89.0403 39.0902 88.9842 39.5939 88.9196 40.0976C88.8074 41.1049 88.6793 42.1039 88.5354 43.0945C88.4084 44.0851 88.276 45.1177 88.1383 46.1922ZM115.555 54.5535C115.405 54.1337 115.274 53.7727 115.16 53.4705C115.047 53.1683 114.94 52.8745 114.842 52.5891C114.934 52.1357 115.044 51.674 115.171 51.2039C115.299 50.7338 115.378 50.2553 115.406 49.7684C115.481 48.3917 115.631 47.0233 115.856 45.6633C116.099 44.3034 116.367 42.935 116.662 41.5583C116.882 40.5005 117.034 39.4512 117.116 38.4102C117.216 37.3692 117.351 36.3199 117.52 35.2621C117.808 33.281 118.017 31.3166 118.149 29.369C118.28 27.4214 118.378 25.4654 118.444 23.501C118.478 22.4432 118.579 21.3939 118.746 20.3529C118.93 19.312 119.091 18.2542 119.229 17.1797C119.532 17.0622 119.812 16.9866 120.071 16.953C120.346 16.9194 120.619 16.9027 120.89 16.9027C121.296 16.9027 121.69 16.9278 122.073 16.9782C122.473 17.0286 122.868 17.0538 123.257 17.0538H123.536C123.691 17.037 123.844 17.0286 123.996 17.0286C124.166 17.0286 124.335 17.0286 124.504 17.0286C124.944 17.0286 125.383 17.037 125.821 17.0538C126.276 17.0706 126.724 17.079 127.164 17.079C127.299 17.079 127.418 17.079 127.519 17.079C127.638 17.079 127.766 17.0706 127.903 17.0538H128.132C128.623 17.0538 128.915 17.1545 129.007 17.356C129.1 17.5575 129.084 17.9436 128.96 18.5145C128.862 19.0182 128.831 19.5218 128.868 20.0255C128.922 20.5292 128.951 21.0329 128.954 21.5366C128.967 22.0907 128.981 22.6447 128.994 23.1988C129.008 23.7528 128.996 24.3069 128.959 24.861C128.852 26.3552 128.729 27.8411 128.591 29.3186C128.454 30.7793 128.3 32.2484 128.127 33.7259C127.985 34.834 127.801 35.9421 127.574 37.0502C127.366 38.1416 127.158 39.2413 126.948 40.3494C126.817 41.1049 126.67 41.8605 126.505 42.616C126.343 43.3548 126.204 44.1019 126.091 44.8574C125.91 45.9991 125.757 47.1324 125.629 48.2573C125.504 49.3655 125.36 50.4904 125.197 51.6321C125.173 51.8167 125.148 52.0098 125.122 52.2113C125.116 52.396 125.084 52.5807 125.026 52.7654C124.853 53.4537 124.615 53.9238 124.312 54.1757C124.028 54.4107 123.53 54.5283 122.819 54.5283C122.31 54.5451 121.801 54.5535 121.293 54.5535C120.785 54.5535 120.277 54.5535 119.769 54.5535H115.555ZM158.844 29.0164C158.178 29.0668 157.501 29.1255 156.816 29.1927C156.149 29.2431 155.473 29.3018 154.787 29.369C154.751 29.3858 154.691 29.3942 154.606 29.3942C154.217 29.3942 153.935 29.285 153.76 29.0668C153.587 28.8317 153.461 28.5547 153.384 28.2357C153.135 27.01 152.602 26.0782 151.787 25.4402C150.972 24.8022 149.912 24.4832 148.609 24.4832C148.169 24.4832 147.756 24.5336 147.371 24.6343C146.988 24.7182 146.657 24.8526 146.38 25.0372C146.102 25.2219 145.84 25.4822 145.594 25.818C145.348 26.1538 145.197 26.4728 145.141 26.775C145.064 27.2451 145.072 27.7152 145.164 28.1853C145.258 28.6386 145.415 29.0668 145.634 29.4697C145.87 29.8727 146.162 30.2336 146.511 30.5526C146.876 30.8717 147.276 31.1151 147.712 31.283C148.663 31.6524 149.617 32.005 150.572 32.3407C151.53 32.6597 152.475 33.0123 153.407 33.3985C154.033 33.6671 154.649 33.9442 155.256 34.2296C155.865 34.4982 156.451 34.8088 157.015 35.1614C157.582 35.4972 158.108 35.8834 158.593 36.3199C159.098 36.7396 159.543 37.2349 159.926 37.8058C160.924 39.2665 161.513 40.8111 161.694 42.4397C161.876 44.0515 161.554 45.7725 160.727 47.6025C160.402 48.2909 160.093 48.9793 159.802 49.6677C159.513 50.3393 159.068 50.9689 158.468 51.5565C157.694 52.312 156.861 52.9333 155.969 53.4202C155.078 53.9071 154.141 54.2764 153.161 54.5283C152.126 54.8137 151.089 55.0488 150.049 55.2334C149.027 55.4181 147.996 55.6028 146.957 55.7875C146.851 55.8211 146.747 55.8379 146.646 55.8379C146.544 55.8379 146.443 55.8379 146.341 55.8379C146.121 55.8379 145.902 55.8295 145.684 55.8127C145.466 55.7959 145.258 55.7707 145.059 55.7371C144.31 55.6364 143.553 55.5357 142.787 55.4349C142.038 55.3342 141.293 55.2083 140.551 55.0571C139.825 54.906 139.114 54.713 138.416 54.4779C137.72 54.2261 137.05 53.9071 136.406 53.5209C135.998 53.269 135.583 53.0088 135.16 52.7402C134.74 52.4547 134.419 52.119 134.197 51.7328C133.531 50.5911 132.953 49.4242 132.463 48.2322C131.991 47.0233 131.674 45.7389 131.509 44.3789C131.451 43.7745 131.53 43.296 131.744 42.9434C131.978 42.574 132.4 42.3138 133.012 42.1627C133.59 42.0116 134.163 41.9025 134.73 41.8353C135.314 41.7681 135.886 41.7346 136.444 41.7346C137.155 41.7346 137.844 41.7765 138.51 41.8605C139.193 41.9444 139.882 42.0536 140.575 42.1879C140.857 42.2382 141.043 42.3726 141.133 42.5908C141.243 42.7923 141.263 43.0274 141.195 43.296C141.054 44.0012 141.122 44.656 141.4 45.2604C141.68 45.848 142.08 46.3601 142.6 46.7966C143.119 47.2332 143.702 47.5774 144.346 47.8292C145.008 48.081 145.644 48.207 146.253 48.207C147.133 48.207 147.981 48.0643 148.796 47.7788C149.614 47.4766 150.279 46.9058 150.793 46.0663C151.43 45.0589 151.441 44.1187 150.825 43.2456C150.382 42.6076 149.845 42.1039 149.216 41.7346C148.588 41.3484 147.92 41.0126 147.212 40.7272C146.039 40.2403 144.864 39.7618 143.689 39.2917C142.514 38.8216 141.353 38.3011 140.208 37.7302C139.284 37.2769 138.423 36.7312 137.624 36.0932C136.845 35.4384 136.192 34.6577 135.665 33.7511C135.155 32.8444 134.787 31.8874 134.56 30.88C134.334 29.8727 134.27 28.8569 134.367 27.8327C134.484 26.7918 134.759 25.7676 135.193 24.7602C135.646 23.736 136.278 22.7622 137.091 21.8388C137.545 21.3351 138.038 20.9154 138.572 20.5796C139.106 20.2438 139.666 19.908 140.25 19.5722C140.947 19.1525 141.652 18.8083 142.363 18.5397C143.077 18.2542 143.794 18.0108 144.514 17.8093C145.233 17.6078 145.957 17.4399 146.686 17.3056C147.431 17.1713 148.167 17.037 148.895 16.9027C149.448 16.8187 149.99 16.7516 150.521 16.7012C151.069 16.6508 151.614 16.6256 152.156 16.6256C153.374 16.6256 154.56 16.7516 155.713 17.0034C156.867 17.2385 157.927 17.6246 158.89 18.1619C159.854 18.6992 160.678 19.4043 161.361 20.2774C162.047 21.1337 162.523 22.1746 162.789 23.4003C162.938 24.0886 163.033 24.7938 163.076 25.5158C163.138 26.2209 163.183 26.9261 163.211 27.6312C163.234 28.1181 163.12 28.4791 162.869 28.7142C162.636 28.9492 162.272 29.0836 161.777 29.1171C161.588 29.1339 161.391 29.1507 161.186 29.1675C161 29.1675 160.814 29.1675 160.628 29.1675C160.34 29.1675 160.044 29.1675 159.739 29.1675C159.436 29.1507 159.141 29.1423 158.854 29.1423L158.844 29.0164ZM190.196 24.3069C190.066 25.5829 189.947 26.8421 189.839 28.0846C189.73 29.327 189.617 30.603 189.5 31.9126H190.719H191.43C193.123 31.9126 194.807 31.9126 196.483 31.9126C198.158 31.9126 199.841 31.9294 201.529 31.963C201.681 31.963 201.882 31.9798 202.132 32.0133C202.381 32.0469 202.619 32.1057 202.846 32.1896C203.089 32.2736 203.295 32.3827 203.464 32.517C203.633 32.6514 203.712 32.8276 203.701 33.0459C203.662 33.4824 203.64 33.919 203.634 34.3555C203.646 34.792 203.649 35.2286 203.644 35.6651C203.639 36.1016 203.607 36.5466 203.549 36.9999C203.51 37.4364 203.411 37.8813 203.251 38.3347C203.094 38.7712 202.899 39.0986 202.668 39.3168C202.456 39.5183 202.153 39.6358 201.76 39.6694C201.008 39.7198 200.268 39.7534 199.538 39.7702C198.825 39.787 198.094 39.8121 197.345 39.8457C196.663 39.8793 195.99 39.9129 195.326 39.9465C194.663 39.9632 193.994 39.9716 193.317 39.9716H192.936C192.225 39.9716 191.517 39.9465 190.813 39.8961C190.125 39.8457 189.404 39.7954 188.648 39.745C188.492 40.4334 188.346 41.1133 188.209 41.7849C188.091 42.4397 187.948 43.0945 187.78 43.7493C187.483 45.0085 187.194 46.2678 186.914 47.527C186.651 48.7862 186.575 50.0454 186.684 51.3047C186.705 51.4054 186.699 51.5145 186.667 51.6321C186.654 51.7328 186.64 51.8419 186.625 51.9595C186.552 52.5303 186.479 52.9668 186.407 53.269C186.353 53.5545 186.241 53.7727 186.069 53.9238C185.914 54.075 185.673 54.1757 185.345 54.2261C185.033 54.2764 184.593 54.3436 184.024 54.4275C183.73 54.4779 183.438 54.5115 183.148 54.5283C182.858 54.5451 182.569 54.5535 182.281 54.5535C181.367 54.5535 180.468 54.5031 179.584 54.4023C178.702 54.2848 177.778 54.2261 176.813 54.2261H176.559C176.601 53.7727 176.637 53.353 176.67 52.9668C176.722 52.5639 176.772 52.1693 176.822 51.7832C176.975 50.3225 177.128 48.8702 177.279 47.4262C177.447 45.9823 177.609 44.5216 177.765 43.0441C177.816 42.5069 177.86 41.9696 177.895 41.4323C177.947 40.8951 178.024 40.3578 178.127 39.8205C178.481 37.7218 178.849 35.6399 179.232 33.5748C179.618 31.4929 179.962 29.4026 180.265 27.3038C180.441 26.0614 180.54 24.8274 180.562 23.6017C180.601 22.3761 180.657 21.142 180.732 19.8996C180.76 19.547 180.797 19.1944 180.842 18.8419C180.904 18.4893 180.949 18.1367 180.978 17.7841C181 17.3476 181.131 17.0538 181.37 16.9027C181.609 16.7516 181.925 16.6676 182.316 16.6508C184.572 16.6172 186.802 16.5837 189.007 16.5501C191.231 16.4997 193.46 16.4745 195.694 16.4745H197.04C198.409 16.4913 199.755 16.5585 201.077 16.676C202.399 16.7935 203.74 16.8943 205.101 16.9782C205.183 16.995 205.267 17.0034 205.351 17.0034C205.436 17.0034 205.521 17.0034 205.605 17.0034C205.741 17.0034 205.884 17.0034 206.037 17.0034C206.191 16.9866 206.353 16.9782 206.522 16.9782C206.807 17.5323 206.929 18.0947 206.89 18.6656C206.851 19.2364 206.76 19.8157 206.617 20.4033C206.49 20.9909 206.363 21.587 206.235 22.1914C206.126 22.779 206.134 23.3751 206.26 23.9795C205.096 23.9459 203.966 23.9123 202.87 23.8788C201.774 23.8452 200.676 23.8284 199.576 23.8284C199.373 23.8284 199.17 23.8284 198.966 23.8284C198.763 23.8284 198.551 23.8368 198.328 23.8536C197.021 23.8872 195.7 23.9543 194.367 24.0551C193.053 24.139 191.663 24.2229 190.196 24.3069ZM218.86 46.8974H225.233H228.331C228.72 46.8974 229.101 46.8974 229.474 46.8974C229.848 46.8806 230.23 46.8722 230.619 46.8722C230.856 46.8722 231.092 46.8806 231.327 46.8974C231.581 46.8974 231.834 46.9058 232.086 46.9226C232.456 46.9393 232.747 46.9813 232.958 47.0485C233.187 47.1156 233.342 47.2248 233.424 47.3759C233.525 47.5102 233.569 47.6949 233.556 47.9299C233.543 48.165 233.487 48.4672 233.389 48.8366C233.131 49.7936 232.891 50.7422 232.669 51.6824C232.449 52.6059 232.224 53.5041 231.993 54.3772C230.677 54.3436 229.402 54.3184 228.169 54.3016C226.935 54.2848 225.703 54.2596 224.472 54.2261C223.629 54.1925 222.796 54.1589 221.971 54.1253C221.165 54.075 220.347 54.0498 219.518 54.0498H218.807C217.313 54.0833 215.815 54.1505 214.312 54.2512C212.812 54.3352 211.31 54.4275 209.808 54.5283C209.687 54.5451 209.576 54.5535 209.474 54.5535C209.373 54.5535 209.28 54.5535 209.195 54.5535C208.552 54.5535 208.138 54.4191 207.952 54.1505C207.785 53.8651 207.737 53.3194 207.806 52.5135C207.956 50.6834 208.112 48.8786 208.272 47.0988C208.435 45.3024 208.59 43.4975 208.738 41.6842C208.816 40.5425 208.876 39.4176 208.916 38.3095C208.959 37.1846 209.02 36.0513 209.098 34.9096C209.127 34.4227 209.188 33.9442 209.283 33.474C209.396 32.9871 209.5 32.5002 209.597 32.0133C209.637 31.8287 209.669 31.644 209.693 31.4593C209.734 31.2746 209.766 31.0899 209.79 30.9052C209.818 30.4183 209.837 29.9398 209.847 29.4697C209.858 28.9828 209.904 28.4959 209.983 28.009C210.202 26.4308 210.428 24.8693 210.66 23.3247C210.909 21.7801 211.143 20.2186 211.362 18.6404C211.439 18.1703 211.56 17.7589 211.723 17.4063C211.906 17.037 212.188 16.7516 212.57 16.5501H215.032H218.714C218.799 16.5501 218.877 16.5333 218.949 16.4997C219.04 16.4493 219.127 16.4325 219.209 16.4493C219.728 16.4997 220.144 16.5501 220.46 16.6004C220.792 16.6508 221.041 16.7516 221.208 16.9027C221.394 17.037 221.51 17.2552 221.556 17.5575C221.601 17.8597 221.606 18.2878 221.569 18.8419C221.48 19.9332 221.357 21.0245 221.2 22.1158C221.045 23.1904 220.897 24.2817 220.755 25.3898C220.705 25.776 220.671 26.1705 220.654 26.5735C220.636 26.9765 220.601 27.3794 220.549 27.7824C220.403 28.7897 220.25 29.7887 220.089 30.7793C219.93 31.7531 219.796 32.7353 219.686 33.7259C219.567 34.918 219.448 36.11 219.329 37.3021C219.212 38.4774 219.119 39.661 219.051 40.8531C218.992 41.8437 218.95 42.8343 218.924 43.8249C218.916 44.8155 218.894 45.8396 218.86 46.8974ZM252.998 17.8849C253.658 17.8849 254.317 17.8932 254.975 17.91C255.635 17.91 256.296 17.91 256.956 17.91C257.396 17.91 257.819 17.91 258.225 17.91C258.648 17.91 259.073 17.9016 259.498 17.8849C259.989 17.8849 260.376 17.9016 260.659 17.9352C260.96 17.9688 261.195 18.0528 261.364 18.1871C261.552 18.3046 261.697 18.4893 261.8 18.7411C261.92 18.993 262.037 19.3372 262.15 19.7737C262.507 21.2176 262.891 22.6447 263.303 24.0551C263.733 25.4486 264.127 26.8673 264.483 28.3112C264.771 29.5033 265.015 30.7038 265.215 31.9126C265.418 33.1047 265.645 34.3051 265.896 35.514C265.975 35.9505 266.081 36.3787 266.214 36.7984C266.365 37.2013 266.499 37.6127 266.614 38.0324C267.074 39.7282 267.518 41.4156 267.946 43.0945C268.393 44.7567 268.847 46.4273 269.309 48.1062C269.464 48.7442 269.629 49.3738 269.803 49.9951C269.977 50.6163 270.17 51.2291 270.38 51.8335C270.552 52.3372 270.639 52.8493 270.64 53.3698C270.643 53.8735 270.488 54.4191 270.176 55.0068C270.07 55.0404 269.956 55.0739 269.833 55.1075C269.71 55.1411 269.581 55.1579 269.446 55.1579C268.367 55.1243 267.29 55.0739 266.215 55.0068C265.155 54.9564 264.087 54.906 263.01 54.8557C262.841 54.8557 262.671 54.8557 262.502 54.8557C262.35 54.8557 262.191 54.8389 262.026 54.8053C261.58 54.7214 261.209 54.5786 260.913 54.3772C260.619 54.1589 260.465 53.7811 260.449 53.2439C260.395 52.6059 260.332 51.9762 260.26 51.355C260.187 50.7338 260.097 50.1126 259.991 49.4914C259.897 48.9037 259.738 48.4924 259.514 48.2573C259.292 48.0055 258.919 47.8796 258.395 47.8796C258.225 47.8796 258.097 47.888 258.01 47.9048C256.916 47.9887 255.826 48.1062 254.741 48.2573C253.655 48.4084 252.565 48.526 251.471 48.6099C251.232 48.6267 250.993 48.6435 250.753 48.6603C250.516 48.6603 250.279 48.6603 250.043 48.6603C249.653 48.6603 249.264 48.6603 248.875 48.6603C248.487 48.6435 248.091 48.6351 247.684 48.6351C247.293 49.441 246.894 50.2469 246.486 51.0528C246.078 51.8587 245.692 52.6898 245.328 53.5461C245.162 53.9154 244.966 54.1925 244.739 54.3772C244.529 54.5619 244.229 54.6626 243.837 54.6794C243.511 54.713 243.185 54.7465 242.859 54.7801C242.531 54.8305 242.205 54.8641 241.882 54.8809C240.138 55.0152 238.398 55.1159 236.663 55.1831C236.443 55.1831 236.226 55.1579 236.013 55.1075C235.816 55.0571 235.621 54.9984 235.426 54.9312C234.828 54.713 234.67 54.2932 234.953 53.672C235.144 53.2355 235.327 52.7989 235.501 52.3624C235.678 51.9091 235.878 51.4726 236.101 51.0528C236.875 49.5082 237.656 47.9719 238.444 46.4441C239.232 44.9162 240.022 43.3799 240.812 41.8353C241.53 40.4585 242.24 39.0818 242.941 37.705C243.659 36.3283 244.37 34.9431 245.074 33.5496C245.868 31.9714 246.636 30.4099 247.375 28.8653C248.134 27.3038 248.911 25.734 249.706 24.1558C250.231 23.098 250.77 22.0571 251.325 21.0329C251.881 19.992 252.439 18.9426 252.998 17.8849ZM251.907 40.6516C252.849 40.702 253.79 40.7524 254.732 40.8027C255.673 40.8531 256.657 40.9035 257.683 40.9538C257.367 39.1909 257.053 37.4868 256.739 35.8414C256.444 34.1792 256.145 32.4835 255.842 30.7541C254.814 32.5674 253.951 34.3471 253.253 36.0932C252.575 37.8226 252.126 39.342 251.907 40.6516ZM313.977 17.5575C313.034 19.5051 312.132 21.3855 311.274 23.1988C310.415 25.0121 309.549 26.8169 308.675 28.6134C308.101 29.7887 307.52 30.9556 306.931 32.1141C306.36 33.2726 305.788 34.4311 305.216 35.5895C304.755 36.5466 304.312 37.4952 303.887 38.4354C303.48 39.3588 303.055 40.299 302.611 41.2561C302.073 42.4145 301.536 43.5646 301.001 44.7063C300.467 45.8312 299.94 46.9729 299.419 48.1314C299.066 48.9037 298.73 49.6761 298.411 50.4484C298.092 51.2207 297.772 52.0014 297.45 52.7905C297.159 53.4789 296.753 54.0078 296.231 54.3772C295.727 54.7465 295.111 54.9312 294.383 54.9312C293.355 54.8976 292.336 54.8557 291.327 54.8053C290.316 54.7717 289.296 54.7381 288.268 54.7046C287.66 54.6878 287.182 54.6542 286.833 54.6038C286.484 54.5535 286.201 54.4527 285.983 54.3016C285.785 54.1337 285.629 53.8987 285.515 53.5964C285.421 53.2774 285.317 52.8325 285.204 52.2617C284.8 50.2637 284.421 48.2657 284.068 46.2678C283.732 44.2698 283.371 42.2634 282.986 40.2487C282.382 37.0418 281.731 33.8686 281.033 30.7289C280.352 27.5893 279.639 24.4412 278.892 21.2848C278.775 20.7475 278.631 20.2186 278.461 19.6981C278.291 19.1777 278.109 18.6152 277.915 18.0108C278.214 17.9268 278.498 17.8261 278.767 17.7086C279.055 17.5742 279.335 17.4987 279.608 17.4819C280.48 17.4147 281.34 17.3728 282.189 17.356C283.056 17.3224 283.922 17.3056 284.785 17.3056C285.174 17.3056 285.553 17.3224 285.921 17.356C286.306 17.3896 286.693 17.4063 287.083 17.4063C288.12 17.3728 288.731 17.8177 288.917 18.7411C289.06 19.3456 289.176 19.9584 289.266 20.5796C289.374 21.184 289.491 21.7968 289.614 22.4181C289.792 23.2743 289.981 24.1138 290.18 24.9365C290.379 25.7592 290.551 26.5987 290.695 27.455C291.014 29.4529 291.317 31.4509 291.602 33.4489C291.89 35.43 292.185 37.4196 292.487 39.4176C292.562 39.8877 292.646 40.3578 292.738 40.8279C292.832 41.2812 292.968 41.743 293.144 42.2131C293.372 41.6254 293.591 41.0378 293.802 40.4501C294.032 39.8457 294.278 39.2497 294.539 38.662C295.388 36.6641 296.243 34.6829 297.104 32.7185C297.967 30.7373 298.816 28.7394 299.65 26.7246C300.13 25.6165 300.57 24.5 300.968 23.3751C301.366 22.2502 301.781 21.1253 302.213 20.0004C302.236 19.95 302.251 19.8996 302.258 19.8492C302.264 19.7989 302.279 19.7485 302.303 19.6981C302.511 19.2616 302.696 18.8083 302.858 18.3382C303.02 17.8681 303.249 17.4651 303.546 17.1293C303.686 16.9614 303.827 16.8523 303.969 16.8019C304.13 16.7348 304.286 16.7012 304.439 16.7012C304.71 16.7012 304.982 16.7516 305.257 16.8523C305.549 16.953 305.839 17.0034 306.127 17.0034H306.177C306.465 17.0034 306.744 17.0034 307.015 17.0034C307.288 16.9866 307.569 16.9782 307.856 16.9782C308.669 16.9782 309.471 16.995 310.262 17.0286C311.055 17.0454 311.856 17.0706 312.664 17.1041C312.882 17.1209 313.095 17.1797 313.302 17.2804C313.509 17.3812 313.734 17.4735 313.977 17.5575ZM348.547 36.2695C348.531 37.0586 348.383 37.8813 348.104 38.7376C347.842 39.5939 347.461 40.4501 346.962 41.3064C346.767 41.6422 346.596 41.978 346.452 42.3138C346.324 42.6496 346.197 42.9854 346.069 43.3212C345.394 45.1513 344.452 46.7547 343.243 48.1314C342.034 49.5082 340.597 50.7506 338.931 51.8587C338.118 52.396 337.327 52.8829 336.56 53.3194C335.796 53.7392 335.021 54.1001 334.238 54.4023C333.457 54.6878 332.65 54.906 331.818 55.0571C331.001 55.225 330.127 55.309 329.196 55.309C328.163 55.309 327.152 55.2083 326.162 55.0068C325.19 54.8053 324.227 54.5199 323.276 54.1505C322.468 53.8483 321.659 53.5629 320.847 53.2942C320.054 53.0088 319.299 52.6226 318.583 52.1357C317.613 51.5145 316.792 50.7926 316.119 49.9699C315.462 49.1472 314.96 48.1818 314.611 47.0737C314.3 46.0663 314.083 45.0505 313.961 44.0263C313.84 42.9854 313.834 41.9108 313.942 40.8027C313.984 40.3494 314.008 39.8961 314.015 39.4428C314.04 38.9894 314.064 38.5361 314.088 38.0828C314.141 37.2769 314.251 36.4794 314.42 35.6903C314.606 34.9012 314.816 34.1204 315.051 33.3481C315.287 32.559 315.523 31.7783 315.757 31.006C315.994 30.2169 316.196 29.4277 316.365 28.6386C316.592 27.5305 317.008 26.5315 317.613 25.6417C318.235 24.7518 318.931 23.8788 319.701 23.0225C321.143 21.4107 322.726 20.1515 324.451 19.2448C326.177 18.3214 328.055 17.6666 330.085 17.2804C330.242 17.2468 330.399 17.2133 330.555 17.1797C330.729 17.1461 330.9 17.1293 331.069 17.1293H331.222C332.104 17.2468 332.969 17.3644 333.817 17.4819C334.685 17.5826 335.558 17.7002 336.438 17.8345C336.554 17.8513 336.667 17.8932 336.777 17.9604C336.889 18.0108 336.996 18.036 337.098 18.036C337.132 18.036 337.167 18.0276 337.203 18.0108C337.556 17.8932 337.902 17.8345 338.241 17.8345C338.562 17.8345 338.869 17.8849 339.161 17.9856C339.455 18.0695 339.737 18.1787 340.008 18.313C340.278 18.4473 340.548 18.59 340.816 18.7411C341.086 18.8754 341.368 18.993 341.659 19.0937C342.404 19.3623 343.086 19.7149 343.707 20.1515C344.328 20.588 344.841 21.142 345.246 21.8136C345.708 22.5692 346.179 23.3163 346.66 24.0551C347.141 24.7938 347.549 25.5745 347.883 26.3972C348.422 27.7404 348.732 29.2179 348.813 30.8297C348.896 32.4247 348.808 34.238 348.547 36.2695ZM324.269 36.8991C324.074 38.2927 323.962 39.6275 323.933 40.9035C323.924 42.1627 324.172 43.3967 324.678 44.6056C324.989 45.3443 325.354 45.932 325.772 46.3685C326.19 46.805 326.663 47.1408 327.192 47.3759C327.722 47.5941 328.313 47.7369 328.965 47.804C329.635 47.8544 330.36 47.8796 331.139 47.8796C332.053 47.8796 332.77 47.6949 333.292 47.3255C333.83 46.9561 334.299 46.3349 334.699 45.4619C334.837 45.1764 334.981 44.9078 335.132 44.656C335.285 44.3873 335.439 44.1103 335.594 43.8249C335.798 43.4219 336.001 43.0274 336.203 42.6412C336.424 42.2382 336.62 41.8269 336.793 41.4072C337.233 40.3494 337.563 39.2917 337.784 38.2339C338.004 37.1762 338.138 36.1268 338.187 35.0859C338.255 34.0281 338.237 32.9788 338.134 31.9378C338.047 30.8968 337.917 29.8643 337.744 28.8401C337.629 28.1517 337.465 27.5809 337.252 27.1276C337.042 26.6574 336.76 26.2797 336.407 25.9943C336.072 25.7088 335.666 25.5074 335.19 25.3898C334.716 25.2555 334.149 25.1884 333.489 25.1884C333.388 25.1884 333.286 25.1884 333.185 25.1884C333.1 25.1884 332.997 25.1967 332.877 25.2135C332.147 25.2303 331.48 25.2807 330.877 25.3646C330.293 25.4318 329.757 25.5829 329.27 25.818C328.783 26.053 328.332 26.3972 327.919 26.8505C327.505 27.3038 327.113 27.9167 326.744 28.689C326.095 30.049 325.547 31.4173 325.1 32.7941C324.653 34.1708 324.376 35.5392 324.269 36.8991ZM375.619 39.3924C376.013 40.5509 376.394 41.6674 376.764 42.7419C377.134 43.8165 377.485 44.9078 377.817 46.0159C378.086 46.9561 378.393 47.8628 378.738 48.7358C379.083 49.6089 379.542 50.4484 380.116 51.2543C380.291 51.4726 380.41 51.7328 380.473 52.035C380.536 52.3372 380.579 52.6646 380.601 53.0172C380.626 53.353 380.632 53.6972 380.621 54.0498C380.627 54.4023 380.65 54.7465 380.692 55.0823C380.495 55.1663 380.316 55.2418 380.155 55.309C380.009 55.3929 379.893 55.4349 379.809 55.4349C379.775 55.4349 379.751 55.4265 379.736 55.4097C379.514 55.2922 379.287 55.2166 379.054 55.1831C378.821 55.1495 378.586 55.1327 378.349 55.1327C378.028 55.1327 377.704 55.1495 377.378 55.1831C377.052 55.2166 376.728 55.2334 376.407 55.2334C375.544 55.2334 374.686 55.1915 373.833 55.1075C372.978 55.0404 372.125 54.9648 371.272 54.8809C370.771 54.8305 370.371 54.6458 370.074 54.3268C369.793 54.0078 369.588 53.63 369.457 53.1935C368.955 51.5649 368.47 49.9363 368.002 48.3077C367.536 46.6623 367.053 45.0169 366.553 43.3715C366.492 43.1869 366.43 43.0106 366.366 42.8427C366.322 42.658 366.249 42.4397 366.146 42.1879C365.481 42.2215 364.816 42.2634 364.149 42.3138C363.502 42.3474 362.854 42.381 362.207 42.4145C361.91 44.3286 361.62 46.2006 361.334 48.0307C361.051 49.844 360.758 51.6656 360.456 53.4957C360.398 53.8147 360.348 54.075 360.305 54.2764C360.264 54.4611 360.204 54.6038 360.123 54.7046C360.04 54.8221 359.929 54.8976 359.789 54.9312C359.65 54.9648 359.461 54.9816 359.224 54.9816H358.666C357.553 54.948 356.449 54.906 355.356 54.8557C354.262 54.8053 353.158 54.7633 352.046 54.7297C351.605 54.7297 351.322 54.629 351.196 54.4275C351.071 54.2093 351.034 53.9071 351.083 53.5209C351.315 51.9762 351.514 50.4232 351.681 48.8618C352.157 44.7483 352.615 40.6516 353.053 36.5717C353.509 32.4919 353.958 28.3952 354.4 24.2817C354.491 23.3079 354.564 22.3425 354.619 21.3855C354.674 20.4285 354.747 19.4631 354.838 18.4893C354.86 18.1871 354.889 17.9604 354.926 17.8093C354.981 17.6414 355.056 17.5155 355.152 17.4315C355.249 17.3308 355.379 17.2468 355.54 17.1797C355.717 17.1125 355.94 17.0286 356.207 16.9278C356.526 16.8103 356.832 16.7348 357.124 16.7012C357.419 16.6508 357.71 16.6256 357.997 16.6256C358.488 16.6256 358.958 16.6592 359.406 16.7264C359.872 16.7935 360.341 16.8271 360.815 16.8271H360.917C361.154 16.8271 361.379 16.8523 361.593 16.9027C361.808 16.9362 362.026 16.953 362.246 16.953C362.28 16.953 362.323 16.953 362.373 16.953C362.426 16.9362 362.47 16.9278 362.503 16.9278C363.985 16.7264 365.437 16.6256 366.859 16.6256C368.365 16.6256 369.844 16.7096 371.295 16.8775C372.763 17.0454 374.235 17.2468 375.712 17.4819C376.89 17.6666 377.926 18.036 378.82 18.59C379.713 19.1441 380.574 19.7569 381.402 20.4285C381.894 20.8146 382.278 21.2596 382.551 21.7633C382.828 22.2502 383.04 22.7706 383.189 23.3247C383.338 23.8788 383.425 24.458 383.449 25.0624C383.492 25.6501 383.5 26.2461 383.473 26.8505C383.476 27.4885 383.393 28.1349 383.225 28.7897C383.075 29.4277 382.917 30.0657 382.751 30.7038C382.527 31.5264 382.224 32.3072 381.841 33.0459C381.459 33.7847 381.014 34.4814 380.507 35.1362C380 35.791 379.438 36.4122 378.821 36.9999C378.221 37.5875 377.58 38.1584 376.9 38.7124C376.694 38.8635 376.475 38.9894 376.242 39.0902C376.026 39.1909 375.819 39.2917 375.619 39.3924ZM363.351 34.4814C363.651 34.515 363.943 34.5486 364.226 34.5822C364.529 34.599 364.824 34.6073 365.112 34.6073C366.077 34.6073 367.019 34.515 367.94 34.3303C368.88 34.1288 369.825 33.8854 370.776 33.6C371.375 33.4153 371.847 33.1047 372.19 32.6681C372.534 32.2316 372.769 31.7195 372.895 31.1319C373.06 30.3764 373.139 29.6292 373.132 28.8905C373.125 28.1517 373.024 27.4214 372.829 26.6994C372.678 26.1622 372.442 25.692 372.121 25.2891C371.802 24.8693 371.366 24.6427 370.812 24.6091C370.274 24.5755 369.73 24.5336 369.177 24.4832C368.627 24.416 368.073 24.3825 367.515 24.3825C366.973 24.3825 366.417 24.4244 365.848 24.5084C365.279 24.5923 364.709 24.7434 364.139 24.9617C364.022 26.5399 363.888 28.1098 363.739 29.6712C363.606 31.2326 363.477 32.836 363.351 34.4814ZM413.004 29.0164C412.338 29.0668 411.662 29.1255 410.976 29.1927C410.309 29.2431 409.633 29.3018 408.947 29.369C408.911 29.3858 408.851 29.3942 408.766 29.3942C408.377 29.3942 408.095 29.285 407.92 29.0668C407.747 28.8317 407.622 28.5547 407.544 28.2357C407.295 27.01 406.763 26.0782 405.947 25.4402C405.132 24.8022 404.073 24.4832 402.769 24.4832C402.329 24.4832 401.916 24.5336 401.531 24.6343C401.148 24.7182 400.818 24.8526 400.54 25.0372C400.262 25.2219 400 25.4822 399.754 25.818C399.508 26.1538 399.357 26.4728 399.302 26.775C399.224 27.2451 399.232 27.7152 399.324 28.1853C399.418 28.6386 399.575 29.0668 399.794 29.4697C400.03 29.8727 400.322 30.2336 400.671 30.5526C401.036 30.8717 401.436 31.1151 401.872 31.283C402.823 31.6524 403.777 32.005 404.732 32.3407C405.69 32.6597 406.635 33.0123 407.568 33.3985C408.193 33.6671 408.809 33.9442 409.416 34.2296C410.025 34.4982 410.611 34.8088 411.176 35.1614C411.742 35.4972 412.268 35.8834 412.754 36.3199C413.258 36.7396 413.703 37.2349 414.086 37.8058C415.084 39.2665 415.673 40.8111 415.854 42.4397C416.036 44.0515 415.714 45.7725 414.887 47.6025C414.562 48.2909 414.254 48.9793 413.962 49.6677C413.673 50.3393 413.228 50.9689 412.628 51.5565C411.854 52.312 411.021 52.9333 410.129 53.4202C409.238 53.9071 408.302 54.2764 407.321 54.5283C406.286 54.8137 405.249 55.0488 404.21 55.2334C403.187 55.4181 402.156 55.6028 401.117 55.7875C401.011 55.8211 400.907 55.8379 400.806 55.8379C400.704 55.8379 400.603 55.8379 400.501 55.8379C400.281 55.8379 400.062 55.8295 399.844 55.8127C399.626 55.7959 399.418 55.7707 399.219 55.7371C398.47 55.6364 397.713 55.5357 396.947 55.4349C396.199 55.3342 395.453 55.2083 394.711 55.0571C393.985 54.906 393.274 54.713 392.576 54.4779C391.88 54.2261 391.21 53.9071 390.566 53.5209C390.158 53.269 389.743 53.0088 389.32 52.7402C388.9 52.4547 388.579 52.119 388.358 51.7328C387.691 50.5911 387.113 49.4242 386.623 48.2322C386.151 47.0233 385.834 45.7389 385.67 44.3789C385.612 43.7745 385.69 43.296 385.904 42.9434C386.138 42.574 386.561 42.3138 387.172 42.1627C387.75 42.0116 388.323 41.9025 388.89 41.8353C389.474 41.7681 390.046 41.7346 390.604 41.7346C391.315 41.7346 392.004 41.7765 392.67 41.8605C393.353 41.9444 394.042 42.0536 394.736 42.1879C395.017 42.2382 395.203 42.3726 395.293 42.5908C395.403 42.7923 395.424 43.0274 395.355 43.296C395.214 44.0012 395.282 44.656 395.56 45.2604C395.841 45.848 396.24 46.3601 396.76 46.7966C397.279 47.2332 397.862 47.5774 398.506 47.8292C399.168 48.081 399.804 48.207 400.413 48.207C401.293 48.207 402.141 48.0643 402.956 47.7788C403.774 47.4766 404.439 46.9058 404.953 46.0663C405.59 45.0589 405.601 44.1187 404.985 43.2456C404.542 42.6076 404.005 42.1039 403.376 41.7346C402.748 41.3484 402.08 41.0126 401.372 40.7272C400.199 40.2403 399.025 39.7618 397.849 39.2917C396.674 38.8216 395.513 38.3011 394.368 37.7302C393.444 37.2769 392.583 36.7312 391.785 36.0932C391.005 35.4384 390.352 34.6577 389.825 33.7511C389.315 32.8444 388.947 31.8874 388.721 30.88C388.494 29.8727 388.43 28.8569 388.527 27.8327C388.644 26.7918 388.919 25.7676 389.353 24.7602C389.806 23.736 390.438 22.7622 391.251 21.8388C391.705 21.3351 392.199 20.9154 392.733 20.5796C393.266 20.2438 393.826 19.908 394.411 19.5722C395.108 19.1525 395.812 18.8083 396.523 18.5397C397.237 18.2542 397.954 18.0108 398.674 17.8093C399.394 17.6078 400.118 17.4399 400.846 17.3056C401.591 17.1713 402.327 17.037 403.056 16.9027C403.608 16.8187 404.15 16.7516 404.681 16.7012C405.229 16.6508 405.774 16.6256 406.316 16.6256C407.534 16.6256 408.72 16.7516 409.873 17.0034C411.027 17.2385 412.087 17.6246 413.05 18.1619C414.014 18.6992 414.838 19.4043 415.521 20.2774C416.207 21.1337 416.683 22.1746 416.949 23.4003C417.098 24.0886 417.194 24.7938 417.236 25.5158C417.298 26.2209 417.343 26.9261 417.371 27.6312C417.394 28.1181 417.28 28.4791 417.029 28.7142C416.796 28.9492 416.432 29.0836 415.937 29.1171C415.748 29.1339 415.552 29.1507 415.346 29.1675C415.16 29.1675 414.974 29.1675 414.788 29.1675C414.5 29.1675 414.204 29.1675 413.899 29.1675C413.597 29.1507 413.301 29.1423 413.014 29.1423L413.004 29.0164Z" fill="#436421"/>
</svg>
