<svg width="499" height="191" viewBox="0 0 499 191" fill="none" xmlns="http://www.w3.org/2000/svg">
<path d="M335.582 10.5841C335.444 10.6642 335.271 10.7243 335.206 10.7244C335.14 10.7244 334.678 10.7981 334.179 10.8852C330.201 11.6084 325.145 11.9259 314.361 12.1413C308.806 12.2459 308.14 12.2731 307.562 12.3735C306.13 12.628 305.465 13.1352 305.466 13.9885C305.474 14.8084 306.017 15.2613 307.239 15.4869C307.854 15.5931 308.455 15.5993 317.691 15.5184C326.169 15.4381 328.498 15.5096 331.724 15.9202C332.259 15.9931 333.062 16.0658 333.504 16.0854C334.567 16.1379 334.965 16.2509 335.298 16.5973C335.45 16.7438 335.551 16.9037 335.537 16.9437C335.508 17.0371 335.262 17.0839 332.847 17.4525C326.924 18.3707 320.009 18.9629 305.905 19.7478C303.858 19.8628 300.849 20.0452 299.215 20.1599C292.626 20.6119 289.226 20.488 286.6 19.6969C284.632 19.1052 283.72 18.4993 281.823 16.501C280.201 14.7891 279.535 14.263 278.399 13.7773C277.726 13.4845 276.597 13.2121 275.664 13.1062C274.89 13.0202 272.785 13.0219 271.324 13.1098C270.066 13.1841 264.431 13.3954 259.679 13.5526C250.081 13.8671 240.685 14.0881 221.85 14.4501C199.239 14.8819 189.41 15.1366 185.359 15.3932C182.437 15.5689 179.399 15.5914 178.343 15.4323C176.643 15.1804 175.608 14.7679 174.79 14.022C174.211 13.4958 173.914 12.9961 173.667 12.1563C173.435 11.3899 173.434 9.65667 173.65 8.91654C174.255 6.90285 175.817 5.86164 178.768 5.51258C179.838 5.38505 182.695 5.40938 185.314 5.57389C190.37 5.87641 194.956 6.01265 208.605 6.26148C217.17 6.41447 220.801 6.51149 226.363 6.7136C231.781 6.90916 235.492 7.00612 246.038 7.19749C255.369 7.36985 259.073 7.46682 264.266 7.68256C271.637 7.98985 274.834 7.92724 277.315 7.43191C279.224 7.04371 280.012 6.5231 281.963 4.32831C283.502 2.58716 284.167 2.04665 285.374 1.5257C287.507 0.617348 290.465 0.234955 294.675 0.318175C296.476 0.350034 303.167 0.644547 306.176 0.81541C314.285 1.28875 320.564 1.83692 329.505 2.85621C330.46 2.96209 331.668 3.06776 332.182 3.09401C333.773 3.15937 334.642 3.39198 335.25 3.89145C335.409 4.03131 335.546 4.16452 335.546 4.19119C335.546 4.21785 335.46 4.25792 335.351 4.27801C335.236 4.29144 334.737 4.38517 334.23 4.47891C330.441 5.20196 325.935 5.35897 313.349 5.20927C307.866 5.14042 307.323 5.15419 306.593 5.39478C306.159 5.54179 305.689 5.90215 305.559 6.19557C305.343 6.66905 305.503 7.39554 305.901 7.72853C306.133 7.92166 306.719 8.18116 307.138 8.27415C308.064 8.48004 308.52 8.49967 316.527 8.67311C323.146 8.81436 325.649 8.91231 328.557 9.12992C330.307 9.26848 332.608 9.51325 333.599 9.68576C335.212 9.95109 335.501 10.0242 335.53 10.1308C335.552 10.1975 335.625 10.2574 335.704 10.2773C335.907 10.3305 335.871 10.4305 335.582 10.5841Z" fill="#FF7A00"/>
<rect width="59.4118" height="84.89" transform="matrix(0.999999 -0.00121197 -0.125966 0.992034 438.828 44.4512)" fill="#436421"/>
<rect width="56.3909" height="84.89" transform="matrix(0.999999 -0.00121197 -0.125966 0.992034 10.6953 47.0181)" fill="#436421"/>
<path fill-rule="evenodd" clip-rule="evenodd" d="M256.057 163.851L256.136 175.488C245.295 176.298 218.262 176.873 196.863 172.701C175.464 168.529 168.112 158.843 167.111 154.522L184.109 154.423L255.989 154.004L255.989 154.004L331.903 153.561C331.903 153.561 343.417 154.289 343.445 158.418C343.473 162.546 331.971 163.408 331.971 163.408L256.057 163.851Z" fill="#FF7A00"/>
<g filter="url(#filter0_d_573_2958)">
<path d="M444.973 110.772L428.142 128.795L431.211 104.184L444.973 110.772Z" fill="#436421"/>
</g>
<g filter="url(#filter1_d_573_2958)">
<path d="M56.5116 131.176L43.8348 111.507L59.8281 104.582L56.5116 131.176Z" fill="#436421"/>
</g>
<g filter="url(#filter2_d_573_2958)">
<rect width="399.87" height="84.89" transform="matrix(0.999999 -0.00121197 -0.125966 0.992034 54.8125 27.7021)" fill="#436421"/>
</g>
<path d="M116.87 63.0241C117.327 63.0235 117.783 63.0288 118.239 63.0398C118.696 63.0393 119.153 63.0387 119.61 63.0382C119.914 63.0378 120.207 63.0374 120.489 63.0371C120.782 63.0368 121.075 63.0306 121.37 63.0186C121.71 63.0182 121.978 63.0295 122.174 63.0525C122.382 63.0755 122.545 63.1334 122.662 63.2263C122.792 63.3075 122.893 63.4352 122.964 63.6095C123.048 63.7837 123.129 64.0219 123.208 64.324C123.456 65.3234 123.723 66.311 124.009 67.2871C124.308 68.2515 124.582 69.2333 124.83 70.2327C125.03 71.0577 125.2 71.8886 125.34 72.7253C125.481 73.5504 125.639 74.3813 125.814 75.218C125.869 75.5202 125.943 75.8165 126.035 76.107C126.14 76.3858 126.233 76.6705 126.313 76.961C126.633 78.1345 126.942 79.3023 127.239 80.4643C127.55 81.6147 127.866 82.7709 128.187 83.9328C128.295 84.3744 128.41 84.8102 128.531 85.2401C128.652 85.67 128.786 86.0941 128.932 86.5124C129.052 86.861 129.112 87.2154 129.113 87.5757C129.116 87.9244 129.009 88.3023 128.794 88.7094C128.72 88.7328 128.641 88.7561 128.556 88.7794C128.471 88.8028 128.382 88.8145 128.288 88.8146C127.541 88.7923 126.795 88.7583 126.051 88.7127C125.317 88.6788 124.578 88.6448 123.832 88.6108C123.715 88.611 123.598 88.6111 123.481 88.6112C123.375 88.6114 123.265 88.5999 123.151 88.5768C122.842 88.519 122.585 88.4205 122.38 88.2813C122.177 88.1304 122.069 87.869 122.058 87.4971C122.02 87.0555 121.976 86.6196 121.925 86.1896C121.874 85.7596 121.812 85.3296 121.737 84.8996C121.672 84.4929 121.562 84.2082 121.406 84.0457C121.253 83.8715 120.994 83.7846 120.631 83.7851C120.514 83.7852 120.425 83.7911 120.365 83.8028C119.608 83.8619 118.853 83.9442 118.102 84.0497C117.35 84.1552 116.596 84.2375 115.838 84.2965C115.673 84.3083 115.507 84.3202 115.342 84.332C115.178 84.3322 115.014 84.3324 114.85 84.3326C114.58 84.3329 114.31 84.3332 114.041 84.3336C113.773 84.3223 113.498 84.3168 113.217 84.3171C112.947 84.8754 112.671 85.4337 112.389 85.9919C112.107 86.5502 111.841 87.1259 111.59 87.719C111.475 87.9749 111.34 88.1668 111.183 88.2949C111.038 88.4229 110.83 88.4929 110.559 88.5049C110.333 88.5284 110.107 88.5519 109.882 88.5754C109.655 88.6106 109.429 88.6341 109.205 88.646C107.998 88.7404 106.794 88.8116 105.592 88.8596C105.44 88.8598 105.29 88.8425 105.142 88.8078C105.006 88.7731 104.87 88.7326 104.736 88.6863C104.321 88.5357 104.212 88.2452 104.407 87.8149C104.539 87.5125 104.665 87.2102 104.786 86.9078C104.908 86.5938 105.046 86.2914 105.2 86.0007C105.734 84.9306 106.273 83.8664 106.818 82.808C107.362 81.7496 107.908 80.6854 108.454 79.6153C108.95 78.6616 109.44 77.7079 109.924 76.7542C110.42 75.8004 110.911 74.8409 111.397 73.8755C111.946 72.7822 112.476 71.7006 112.986 70.6306C113.51 69.549 114.047 68.4615 114.596 67.3682C114.958 66.6355 115.331 65.9144 115.714 65.2049C116.099 64.4838 116.484 63.7568 116.87 63.0241ZM116.134 78.7866C116.786 78.8207 117.437 78.8547 118.089 78.8888C118.741 78.9229 119.422 78.9569 120.133 78.991C119.913 77.7707 119.693 76.5912 119.475 75.4524C119.269 74.3019 119.061 73.1281 118.85 71.9312C118.139 73.1874 117.544 74.4202 117.062 75.6296C116.593 76.8274 116.284 77.8797 116.134 78.7866ZM131.407 88.2006C131.558 87.3752 131.701 86.573 131.835 85.794C131.969 85.0151 132.103 84.2361 132.237 83.4572C132.349 82.7596 132.472 82.0737 132.604 81.3994C132.75 80.7134 132.861 80.0216 132.938 79.3241C133.086 78.0686 133.208 76.8247 133.306 75.5925C133.406 74.3487 133.536 73.0932 133.697 71.826C133.81 70.9308 133.958 70.0414 134.141 69.1578C134.335 68.2742 134.501 67.3848 134.638 66.4896C134.723 66.0013 134.766 65.5247 134.767 65.0597C134.78 64.5832 134.801 64.1008 134.827 63.6125C134.837 63.3568 134.851 63.1011 134.872 62.8453C134.894 62.578 134.914 62.2873 134.93 61.9735C135.862 61.9259 136.763 61.8841 137.635 61.8482C138.508 61.8006 139.375 61.7531 140.237 61.7055C140.72 61.6817 141.199 61.6462 141.674 61.5992C142.15 61.5405 142.628 61.5108 143.109 61.5102C143.214 61.5101 143.32 61.51 143.425 61.5099C143.531 61.5097 143.635 61.5154 143.739 61.5269C144.296 61.5727 144.853 61.6186 145.409 61.6644C145.966 61.7102 146.513 61.7851 147.05 61.889C147.589 61.9814 148.111 62.1144 148.617 62.2882C149.135 62.4503 149.627 62.6821 150.092 62.9838C150.331 63.1346 150.536 63.3203 150.707 63.541C150.89 63.7616 151.08 63.9706 151.278 64.168C152.1 64.9806 152.751 65.8981 153.231 66.9204C153.71 67.9427 154.114 69.0058 154.443 70.1096C154.705 70.9927 154.817 71.9108 154.778 72.864C154.739 73.8172 154.595 74.7705 154.345 75.7239C154.02 76.8983 153.649 78.0669 153.232 79.2298C152.828 80.381 152.265 81.4918 151.543 82.562C151.241 83.0041 150.913 83.4229 150.558 83.8186C150.203 84.2142 149.853 84.6156 149.508 85.0229C149.467 85.0694 149.415 85.1102 149.352 85.1451C149.303 85.1684 149.263 85.2033 149.234 85.2499C149.069 85.529 148.876 85.7617 148.653 85.948C148.443 86.1226 148.213 86.274 147.962 86.4021C147.724 86.5303 147.469 86.641 147.2 86.7343C146.93 86.8277 146.666 86.9268 146.406 87.0317C145.457 87.4048 144.507 87.6849 143.558 87.8721C142.622 88.0475 141.666 88.1417 140.692 88.1545C139.507 88.1676 138.325 88.2039 137.146 88.2634C135.966 88.323 134.789 88.3651 133.615 88.3897L133.492 88.3899C133.163 88.3903 132.832 88.3674 132.498 88.3214C132.165 88.2753 131.801 88.235 131.407 88.2006ZM138.674 82.595L139.166 82.5945L139.395 82.5942L139.658 82.5939L141.082 82.5921C141.434 82.5917 141.779 82.5913 142.119 82.5909C142.471 82.5904 142.823 82.5842 143.176 82.5722C143.305 82.572 143.431 82.5486 143.554 82.502C143.69 82.4437 143.811 82.3738 143.915 82.2923C144.473 81.7686 144.999 81.2274 145.492 80.6689C145.986 80.0987 146.372 79.459 146.649 78.7496C146.997 77.8541 147.293 76.9588 147.535 76.0635C147.778 75.1681 147.894 74.2556 147.883 73.3257C147.879 72.4307 147.784 71.5648 147.598 70.7281C147.411 69.8915 147.013 69.148 146.404 68.4979C146.241 68.3121 146.063 68.1438 145.871 67.9929C145.681 67.8304 145.474 67.7086 145.25 67.6275C144.441 67.3495 143.586 67.2111 142.684 67.2121C142.555 67.2123 142.419 67.2183 142.277 67.2301C142.136 67.2302 142.001 67.2362 141.871 67.248C141.682 67.2599 141.526 67.2833 141.405 67.3183C141.295 67.3533 141.2 67.4057 141.121 67.4756C141.054 67.5454 141 67.6443 140.96 67.7722C140.934 67.8884 140.902 68.0454 140.865 68.243C140.79 68.65 140.715 69.0569 140.64 69.4638C140.565 69.8707 140.49 70.2776 140.415 70.6845C140.248 71.6263 140.083 72.5622 139.918 73.4922C139.766 74.4107 139.613 75.335 139.46 76.265C139.403 76.6254 139.358 76.98 139.325 77.3288C139.293 77.6775 139.254 78.0263 139.21 78.375C139.133 79.0725 139.045 79.7642 138.946 80.4502C138.859 81.1361 138.768 81.851 138.674 82.595ZM156.227 88.1705C156.379 87.3451 156.521 86.5429 156.655 85.7639C156.79 84.985 156.924 84.206 157.058 83.4271C157.17 82.7295 157.292 82.0436 157.424 81.3693C157.57 80.6833 157.681 79.9916 157.758 79.2941C157.906 78.0385 158.029 76.7947 158.127 75.5624C158.226 74.3186 158.356 73.0631 158.517 71.7959C158.631 70.9008 158.779 70.0114 158.961 69.1277C159.155 68.2441 159.321 67.3547 159.458 66.4595C159.544 65.9712 159.587 65.4946 159.587 65.0297C159.601 64.5531 159.621 64.0707 159.648 63.5825C159.657 63.3267 159.672 63.071 159.692 62.8152C159.715 62.5479 159.734 62.2573 159.75 61.9434C160.682 61.8958 161.584 61.854 162.455 61.8181C163.328 61.7705 164.196 61.723 165.057 61.6754C165.541 61.6516 166.02 61.6162 166.494 61.5691C166.97 61.5104 167.449 61.4807 167.929 61.4802C168.035 61.48 168.14 61.4799 168.245 61.4798C168.351 61.4797 168.456 61.4853 168.56 61.4968C169.116 61.5427 169.673 61.5885 170.229 61.6343C170.786 61.6801 171.333 61.755 171.871 61.859C172.41 61.9513 172.932 62.0843 173.437 62.2581C173.955 62.4202 174.447 62.6521 174.913 62.9537C175.151 63.1045 175.356 63.2903 175.527 63.5109C175.71 63.7315 175.901 63.9405 176.098 64.1379C176.921 64.9505 177.572 65.868 178.051 66.8903C178.53 67.9126 178.934 68.9757 179.263 70.0795C179.526 70.9626 179.638 71.8807 179.599 72.8339C179.56 73.7871 179.415 74.7404 179.165 75.6939C178.84 76.8682 178.469 78.0369 178.052 79.1997C177.648 80.3509 177.085 81.4617 176.364 82.5319C176.061 82.974 175.733 83.3928 175.378 83.7885C175.023 84.1841 174.673 84.5855 174.329 84.9928C174.288 85.0393 174.236 85.0801 174.173 85.115C174.123 85.1383 174.083 85.1733 174.054 85.2198C173.89 85.499 173.696 85.7317 173.473 85.9179C173.263 86.0925 173.033 86.2439 172.783 86.3721C172.544 86.5002 172.29 86.6109 172.02 86.7043C171.75 86.7976 171.486 86.8967 171.226 87.0016C170.277 87.3747 169.327 87.6549 168.378 87.842C167.442 88.0175 166.487 88.1116 165.513 88.1244C164.327 88.1375 163.145 88.1738 161.966 88.2333C160.787 88.2929 159.61 88.335 158.435 88.3597L158.312 88.3598C157.984 88.3602 157.653 88.3374 157.319 88.2913C156.985 88.2452 156.621 88.2049 156.227 88.1705ZM163.494 82.565L163.986 82.5644L164.215 82.5641L164.479 82.5638L165.902 82.562C166.254 82.5616 166.6 82.5612 166.94 82.5608C167.291 82.5604 167.643 82.5541 167.996 82.5421C168.125 82.5419 168.251 82.5185 168.374 82.4719C168.511 82.4136 168.631 82.3437 168.735 82.2622C169.294 81.7385 169.819 81.1973 170.312 80.6388C170.806 80.0687 171.192 79.4289 171.47 78.7195C171.818 77.8241 172.113 76.9287 172.356 76.0334C172.598 75.1381 172.714 74.2255 172.703 73.2956C172.7 72.4006 172.605 71.5347 172.418 70.6981C172.231 69.8614 171.834 69.118 171.225 68.4678C171.061 68.282 170.883 68.1137 170.691 67.9628C170.501 67.8003 170.294 67.6785 170.07 67.5974C169.262 67.3194 168.406 67.181 167.504 67.1821C167.375 67.1822 167.239 67.1882 167.097 67.2C166.957 67.2002 166.821 67.2061 166.691 67.2179C166.502 67.2298 166.347 67.2532 166.225 67.2882C166.115 67.3232 166.021 67.3757 165.941 67.4455C165.874 67.5153 165.82 67.6142 165.781 67.7421C165.754 67.8584 165.723 68.0153 165.686 68.213C165.611 68.6199 165.536 69.0268 165.46 69.4337C165.385 69.8406 165.31 70.2475 165.235 70.6545C165.069 71.5962 164.903 72.5321 164.738 73.4622C164.586 74.3806 164.434 75.3049 164.28 76.235C164.223 76.5954 164.178 76.9499 164.145 77.2987C164.113 77.6474 164.074 77.9962 164.03 78.3449C163.953 79.0425 163.865 79.7342 163.767 80.4201C163.68 81.106 163.589 81.8209 163.494 82.565ZM182.482 88.3305C182.378 88.04 182.287 87.7903 182.208 87.5811C182.129 87.372 182.055 87.1687 181.987 86.9712C182.05 86.6572 182.126 86.3375 182.214 86.0119C182.302 85.6864 182.356 85.355 182.375 85.0179C182.426 84.0647 182.529 83.1173 182.683 82.1756C182.85 81.2339 183.035 80.2863 183.238 79.3329C183.389 78.6004 183.493 77.8738 183.55 77.1531C183.618 76.4324 183.71 75.7058 183.826 74.9734C184.024 73.6015 184.167 72.2414 184.257 70.8929C184.346 69.5445 184.412 68.1903 184.456 66.8302C184.479 66.0979 184.548 65.3714 184.663 64.6506C184.789 63.9298 184.9 63.1973 184.994 62.4533C185.204 62.3717 185.398 62.3191 185.577 62.2957C185.767 62.2722 185.956 62.2603 186.144 62.2601C186.425 62.2598 186.698 62.2769 186.963 62.3114C187.24 62.346 187.513 62.3631 187.783 62.3627L187.976 62.3625C188.083 62.3508 188.189 62.3448 188.295 62.3447C188.412 62.3445 188.529 62.3444 188.646 62.3443C188.951 62.3439 189.255 62.3493 189.558 62.3606C189.873 62.3718 190.183 62.3773 190.487 62.3769C190.581 62.3768 190.663 62.3767 190.734 62.3766C190.816 62.3765 190.904 62.3706 190.999 62.3588L191.158 62.3587C191.498 62.3582 191.7 62.4277 191.764 62.5671C191.828 62.7066 191.818 62.9739 191.732 63.3692C191.665 63.718 191.644 64.0667 191.67 64.4154C191.708 64.7641 191.728 65.1128 191.73 65.4615C191.74 65.845 191.75 66.2286 191.76 66.6122C191.77 66.9957 191.762 67.3793 191.737 67.7629C191.664 68.7975 191.58 69.8263 191.486 70.8493C191.392 71.8607 191.287 72.8779 191.168 73.9009C191.071 74.6682 190.944 75.4355 190.788 76.2028C190.645 76.9585 190.502 77.7201 190.358 78.4874C190.268 79.0106 190.166 79.5337 190.053 80.0569C189.941 80.5685 189.846 81.0859 189.768 81.609C189.644 82.3996 189.539 83.1843 189.451 83.9632C189.366 84.7305 189.267 85.5094 189.155 86.2999C189.138 86.4278 189.121 86.5615 189.104 86.701C189.099 86.8289 189.077 86.9567 189.037 87.0847C188.918 87.5614 188.754 87.887 188.544 88.0616C188.348 88.2246 188.003 88.3064 187.511 88.307C187.158 88.319 186.806 88.3253 186.454 88.3257C186.103 88.3261 185.751 88.3266 185.4 88.327L182.482 88.3305ZM212.43 70.6147C211.969 70.6501 211.501 70.6914 211.026 70.7384C210.564 70.7739 210.096 70.8151 209.622 70.8622C209.597 70.8739 209.555 70.8797 209.497 70.8798C209.227 70.8801 209.031 70.8048 208.91 70.6538C208.79 70.4913 208.703 70.2996 208.649 70.0788C208.476 69.2305 208.106 68.5858 207.541 68.1448C206.976 67.7038 206.243 67.4838 205.34 67.4849C205.036 67.4853 204.75 67.5205 204.483 67.5906C204.218 67.649 203.99 67.7423 203.798 67.8704C203.606 67.9985 203.424 68.1788 203.254 68.4115C203.084 68.6442 202.98 68.8652 202.942 69.0744C202.889 69.4 202.894 69.7254 202.958 70.0508C203.024 70.3646 203.133 70.6608 203.285 70.9396C203.449 71.2184 203.651 71.4681 203.893 71.6886C204.146 71.9091 204.423 72.0774 204.725 72.1932C205.384 72.4481 206.044 72.6914 206.706 72.9231C207.37 73.1432 208.024 73.3865 208.67 73.653C209.103 73.8385 209.53 74.0297 209.95 74.2268C210.372 74.4123 210.778 74.6268 211.169 74.8705C211.561 75.1025 211.926 75.3694 212.263 75.6712C212.612 75.9613 212.92 76.3039 213.187 76.6987C213.879 77.7092 214.288 78.778 214.414 79.9054C214.542 81.0211 214.32 82.2128 213.749 83.4804C213.525 83.9573 213.312 84.4341 213.111 84.9109C212.911 85.3761 212.604 85.8124 212.189 86.2197C211.653 86.7434 211.077 87.1742 210.46 87.512C209.843 87.8498 209.196 88.1063 208.517 88.2815C207.801 88.48 207.083 88.6436 206.363 88.7723C205.656 88.901 204.942 89.0298 204.223 89.1585C204.15 89.1818 204.078 89.1935 204.007 89.1936C203.937 89.1937 203.867 89.1938 203.797 89.1939C203.644 89.1941 203.493 89.1884 203.342 89.177C203.191 89.1656 203.047 89.1483 202.909 89.1252C202.39 89.0561 201.866 88.987 201.336 88.9179C200.817 88.8488 200.301 88.7622 199.787 88.6582C199.285 88.5542 198.792 88.4212 198.309 88.259C197.827 88.0853 197.363 87.865 196.916 87.5982C196.634 87.4242 196.346 87.2443 196.053 87.0587C195.762 86.8615 195.54 86.6293 195.386 86.3621C194.924 85.5723 194.523 84.7649 194.182 83.94C193.855 83.1035 193.634 82.2146 193.519 81.2732C193.478 80.8548 193.532 80.5235 193.68 80.2792C193.842 80.0233 194.134 79.8428 194.557 79.7377C194.957 79.6326 195.354 79.5565 195.746 79.5095C196.151 79.4626 196.546 79.4388 196.933 79.4384C197.425 79.4378 197.902 79.4663 198.363 79.5238C198.836 79.5814 199.313 79.6563 199.794 79.7487C199.988 79.7834 200.117 79.8762 200.18 80.0272C200.256 80.1666 200.271 80.3293 200.223 80.5154C200.126 81.0037 200.174 81.457 200.367 81.8752C200.562 82.2818 200.839 82.6359 201.199 82.9377C201.559 83.2395 201.962 83.4773 202.409 83.6511C202.867 83.8249 203.307 83.9115 203.729 83.911C204.339 83.9103 204.925 83.8108 205.489 83.6125C206.055 83.4026 206.515 83.0068 206.871 82.4252C207.311 81.7273 207.317 81.0763 206.89 80.4724C206.583 80.0311 206.211 79.6828 205.775 79.4277C205.34 79.1608 204.877 78.9289 204.387 78.7319C203.574 78.3958 202.761 78.0655 201.947 77.7411C201.132 77.4166 200.329 77.0572 199.535 76.663C198.895 76.3499 198.299 75.9729 197.745 75.5319C197.205 75.0792 196.752 74.5392 196.387 73.912C196.033 73.2848 195.777 72.6225 195.62 71.9253C195.462 71.2281 195.417 70.5249 195.483 69.8158C195.563 69.095 195.753 68.3857 196.052 67.688C196.365 66.9785 196.802 66.3038 197.364 65.6639C197.678 65.3148 198.019 65.0238 198.389 64.7909C198.758 64.5579 199.145 64.325 199.55 64.092C200.032 63.8009 200.519 63.562 201.011 63.3754C201.505 63.1772 202.001 63.0081 202.499 62.868C202.998 62.7279 203.499 62.611 204.003 62.5174C204.518 62.4238 205.028 62.3302 205.532 62.2366C205.915 62.178 206.29 62.1311 206.657 62.0958C207.037 62.0604 207.414 62.0426 207.789 62.0421C208.633 62.0411 209.454 62.1273 210.252 62.3006C211.052 62.4624 211.785 62.7289 212.453 63.1C213.12 63.4712 213.691 63.9587 214.165 64.5625C214.641 65.1547 214.971 65.875 215.156 66.7233C215.26 67.1997 215.327 67.6878 215.357 68.1876C215.401 68.6758 215.432 69.1639 215.452 69.6521C215.468 69.9892 215.389 70.2392 215.216 70.4021C215.055 70.565 214.803 70.6583 214.46 70.682C214.33 70.6938 214.194 70.7056 214.052 70.7173C213.923 70.7175 213.794 70.7177 213.665 70.7178C213.466 70.7181 213.261 70.7183 213.05 70.7186C212.84 70.7072 212.636 70.7016 212.437 70.7019L212.43 70.6147ZM234.131 67.328C234.043 68.2115 233.961 69.0833 233.887 69.9436C233.813 70.8038 233.736 71.6873 233.656 72.594L234.5 72.593L234.992 72.5924C236.164 72.591 237.33 72.5896 238.49 72.5882C239.65 72.5868 240.815 72.597 241.984 72.6188C242.089 72.6187 242.228 72.6302 242.401 72.6532C242.574 72.6762 242.739 72.7167 242.895 72.7746C243.064 72.8326 243.206 72.9079 243.323 73.0008C243.441 73.0936 243.495 73.2156 243.488 73.3667C243.461 73.669 243.446 73.9712 243.443 74.2734C243.452 74.5756 243.454 74.8778 243.451 75.1801C243.448 75.4823 243.426 75.7903 243.386 76.1042C243.36 76.4065 243.291 76.7146 243.181 77.0285C243.072 77.3309 242.938 77.5577 242.778 77.709C242.632 77.8487 242.422 77.9303 242.15 77.9539C241.63 77.9894 241.117 78.0132 240.612 78.0255C240.118 78.0377 239.612 78.0557 239.093 78.0796C238.621 78.1034 238.156 78.1272 237.696 78.1511C237.237 78.1632 236.774 78.1696 236.305 78.1702L236.041 78.1705C235.549 78.1711 235.059 78.1542 234.571 78.12C234.095 78.0857 233.596 78.0514 233.073 78.0172C232.965 78.4939 232.865 78.9647 232.77 79.4298C232.689 79.8832 232.591 80.3367 232.475 80.7901C232.27 81.6621 232.072 82.5342 231.879 83.4062C231.698 84.2782 231.646 85.15 231.722 86.0217C231.737 86.0914 231.733 86.1669 231.711 86.2483C231.702 86.3181 231.693 86.3937 231.682 86.475C231.632 86.8703 231.582 87.1726 231.532 87.3819C231.495 87.5795 231.418 87.7307 231.299 87.8355C231.192 87.9402 231.025 88.0101 230.798 88.0453C230.582 88.0804 230.278 88.1273 229.883 88.1859C229.68 88.221 229.478 88.2445 229.277 88.2564C229.076 88.2682 228.876 88.2743 228.677 88.2745C228.044 88.2753 227.422 88.2412 226.809 88.1722C226.199 88.0916 225.559 88.0516 224.891 88.0525L224.716 88.0527C224.744 87.7388 224.769 87.4482 224.791 87.1808C224.827 86.9018 224.861 86.6286 224.895 86.3612C225 85.3498 225.104 84.3443 225.208 83.3445C225.323 82.3447 225.434 81.3333 225.541 80.3103C225.576 79.9383 225.606 79.5663 225.629 79.1944C225.665 78.8224 225.718 78.4503 225.789 78.0783C226.032 76.6251 226.285 75.1834 226.549 73.7534C226.814 72.3118 227.05 70.8643 227.258 69.4111C227.379 68.5508 227.447 67.6964 227.461 66.8479C227.487 65.9993 227.525 65.1449 227.575 64.2847C227.595 64.0406 227.62 63.7965 227.651 63.5523C227.694 63.3082 227.725 63.0641 227.744 62.8199C227.759 62.5177 227.849 62.3142 228.015 62.2094C228.18 62.1046 228.399 62.0462 228.67 62.0342C230.231 62.0091 231.775 61.984 233.302 61.9589C234.841 61.9221 236.384 61.9028 237.931 61.901L238.863 61.8998C239.811 61.9103 240.742 61.9557 241.658 62.0359C242.573 62.1162 243.502 62.1848 244.444 62.2418C244.501 62.2533 244.559 62.2591 244.617 62.259C244.676 62.2589 244.734 62.2589 244.793 62.2588C244.887 62.2587 244.986 62.2585 245.092 62.2584C245.199 62.2467 245.311 62.2407 245.428 62.2406C245.625 62.6239 245.711 63.0132 245.684 63.4084C245.657 63.8037 245.594 64.2048 245.496 64.6117C245.409 65.0186 245.322 65.4314 245.233 65.8499C245.158 66.2569 245.164 66.6695 245.252 67.0878C244.446 67.0656 243.664 67.0433 242.905 67.0209C242.146 66.9986 241.386 66.9879 240.625 66.9888C240.484 66.989 240.343 66.9892 240.203 66.9893C240.062 66.9895 239.915 66.9955 239.761 67.0073C238.856 67.0317 237.942 67.0793 237.019 67.1501C236.109 67.2093 235.146 67.2686 234.131 67.328ZM253.995 82.9435L258.407 82.9381L260.551 82.9355C260.821 82.9352 261.085 82.9349 261.342 82.9346C261.602 82.9226 261.866 82.9165 262.136 82.9162C262.3 82.916 262.463 82.9216 262.626 82.933C262.801 82.9328 262.976 82.9384 263.151 82.9498C263.407 82.9611 263.608 82.9899 263.755 83.0363C263.913 83.0826 264.021 83.158 264.078 83.2625C264.148 83.3554 264.178 83.4833 264.17 83.646C264.161 83.8087 264.122 84.018 264.055 84.2738C263.877 84.9366 263.711 85.5935 263.558 86.2446C263.407 86.8841 263.252 87.5061 263.093 88.1108C262.182 88.0886 261.299 88.0723 260.445 88.0617C259.591 88.0511 258.738 88.0347 257.885 88.0125C257.302 87.9899 256.725 87.9674 256.154 87.9448C255.596 87.9106 255.03 87.8939 254.456 87.8946L253.963 87.8952C252.929 87.9197 251.892 87.9674 250.852 88.0384C249.813 88.0978 248.774 88.163 247.734 88.234C247.65 88.2457 247.574 88.2516 247.503 88.2517C247.433 88.2518 247.368 88.2519 247.31 88.2519C246.865 88.2525 246.577 88.1598 246.449 87.974C246.333 87.7766 246.299 87.3988 246.347 86.8408C246.449 85.5737 246.555 84.3241 246.664 83.0918C246.776 81.848 246.881 80.5983 246.982 79.3428C247.036 78.5524 247.076 77.7735 247.103 77.0063C247.132 76.2275 247.173 75.4429 247.226 74.6524C247.246 74.3153 247.288 73.984 247.353 73.6584C247.431 73.3213 247.503 72.9841 247.569 72.6469C247.597 72.519 247.619 72.3911 247.635 72.2633C247.663 72.1354 247.685 72.0075 247.702 71.8796C247.721 71.5425 247.734 71.2112 247.74 70.8857C247.747 70.5486 247.779 70.2115 247.833 69.8744C247.984 68.7816 248.138 67.7004 248.298 66.6308C248.469 65.5612 248.629 64.4801 248.78 63.3873C248.833 63.0617 248.916 62.7768 249.029 62.5326C249.155 62.2767 249.35 62.0789 249.614 61.9391L251.319 61.937L253.868 61.9339C253.927 61.9339 253.981 61.9222 254.031 61.8989C254.094 61.8639 254.154 61.8522 254.211 61.8638C254.57 61.8982 254.858 61.9327 255.076 61.9674C255.306 62.0019 255.479 62.0715 255.595 62.1759C255.724 62.2688 255.804 62.4198 255.836 62.629C255.868 62.8382 255.871 63.1346 255.846 63.5182C255.785 64.2738 255.701 65.0294 255.593 65.7851C255.487 66.5291 255.385 67.2848 255.288 68.0521C255.254 68.3194 255.231 68.5926 255.219 68.8716C255.207 69.1506 255.183 69.4296 255.148 69.7086C255.048 70.4061 254.942 71.0979 254.832 71.7838C254.723 72.4581 254.63 73.1382 254.555 73.8241C254.474 74.6494 254.392 75.4748 254.311 76.3002C254.231 77.1139 254.168 77.9335 254.122 78.7588C254.082 79.4447 254.053 80.1305 254.036 80.8163C254.031 81.5021 254.017 82.2112 253.995 82.9435ZM277.604 62.8293C278.061 62.8287 278.517 62.834 278.973 62.845C279.43 62.8445 279.887 62.8439 280.344 62.8434C280.649 62.843 280.942 62.8426 281.223 62.8423C281.516 62.8419 281.81 62.8358 282.104 62.8238C282.444 62.8234 282.712 62.8347 282.908 62.8577C283.116 62.8807 283.279 62.9386 283.396 63.0315C283.526 63.1127 283.627 63.2404 283.699 63.4147C283.782 63.5889 283.863 63.8271 283.942 64.1292C284.19 65.1286 284.457 66.1162 284.743 67.0923C285.043 68.0567 285.316 69.0385 285.564 70.0379C285.764 70.8629 285.934 71.6938 286.074 72.5305C286.215 73.3556 286.373 74.1865 286.548 75.0232C286.604 75.3254 286.677 75.6217 286.769 75.9121C286.874 76.191 286.967 76.4757 287.048 76.7661C287.367 77.9397 287.676 79.1075 287.974 80.2695C288.284 81.4199 288.6 82.5761 288.922 83.738C289.03 84.1796 289.144 84.6154 289.265 85.0453C289.386 85.4752 289.52 85.8993 289.666 86.3176C289.786 86.6661 289.846 87.0206 289.847 87.3809C289.85 87.7296 289.743 88.1075 289.528 88.5146C289.454 88.538 289.375 88.5613 289.29 88.5846C289.205 88.608 289.116 88.6197 289.022 88.6198C288.275 88.5975 287.53 88.5635 286.786 88.5179C286.052 88.484 285.312 88.45 284.566 88.416C284.449 88.4162 284.332 88.4163 284.215 88.4164C284.109 88.4166 284 88.4051 283.885 88.382C283.576 88.3242 283.319 88.2257 283.114 88.0865C282.911 87.9356 282.803 87.6742 282.792 87.3023C282.754 86.8606 282.71 86.4248 282.659 85.9948C282.609 85.5648 282.546 85.1348 282.472 84.7048C282.406 84.2981 282.296 84.0134 282.141 83.8509C281.987 83.6767 281.729 83.5898 281.365 83.5903C281.248 83.5904 281.16 83.5963 281.099 83.608C280.342 83.6671 279.588 83.7494 278.836 83.8549C278.084 83.9604 277.33 84.0427 276.573 84.1017C276.407 84.1135 276.242 84.1254 276.076 84.1372C275.912 84.1374 275.748 84.1376 275.584 84.1378C275.314 84.1381 275.045 84.1384 274.775 84.1388C274.507 84.1275 274.233 84.122 273.951 84.1223C273.681 84.6806 273.405 85.2389 273.123 85.7971C272.842 86.3554 272.575 86.9311 272.324 87.5242C272.21 87.7801 272.074 87.972 271.917 88.1001C271.772 88.2281 271.564 88.2981 271.293 88.3101C271.067 88.3336 270.842 88.3571 270.616 88.3806C270.389 88.4158 270.163 88.4393 269.939 88.4512C268.732 88.5456 267.528 88.6168 266.327 88.6648C266.174 88.665 266.024 88.6477 265.876 88.613C265.74 88.5783 265.605 88.5378 265.47 88.4915C265.056 88.3409 264.946 88.0504 265.141 87.6201C265.273 87.3177 265.4 87.0154 265.52 86.713C265.642 86.399 265.78 86.0966 265.934 85.8058C266.468 84.7358 267.008 83.6716 267.552 82.6132C268.097 81.5548 268.642 80.4906 269.188 79.4205C269.684 78.4668 270.174 77.5131 270.658 76.5593C271.154 75.6056 271.645 74.6461 272.131 73.6807C272.68 72.5874 273.21 71.5058 273.721 70.4358C274.245 69.3542 274.781 68.2667 275.33 67.1734C275.693 66.4407 276.065 65.7196 276.448 65.0101C276.833 64.289 277.218 63.562 277.604 62.8293ZM276.868 78.5918C277.52 78.6258 278.172 78.6599 278.823 78.694C279.475 78.7281 280.156 78.7621 280.867 78.7961C280.647 77.5759 280.428 76.3964 280.209 75.2576C280.003 74.1071 279.795 72.9333 279.584 71.7364C278.874 72.9926 278.278 74.2254 277.796 75.4348C277.328 76.6326 277.018 77.6849 276.868 78.5918ZM319.82 62.5514C319.169 63.9006 318.546 65.2032 317.953 66.4592C317.36 67.7153 316.762 68.9656 316.159 70.21C315.763 71.0242 315.361 71.8325 314.955 72.635C314.56 73.4375 314.165 74.24 313.77 75.0425C313.452 75.7055 313.145 76.3626 312.852 77.0138C312.571 77.6535 312.278 78.3048 311.971 78.9677C311.6 79.7702 311.229 80.5668 310.859 81.3577C310.491 82.1369 310.127 82.9278 309.767 83.7302C309.523 84.2652 309.291 84.8002 309.071 85.3351C308.851 85.8701 308.63 86.4108 308.408 86.9574C308.207 87.4342 307.926 87.8007 307.566 88.0569C307.217 88.313 306.79 88.4414 306.286 88.442C305.574 88.4196 304.869 88.3914 304.17 88.3574C303.47 88.335 302.764 88.3126 302.052 88.2902C301.632 88.2791 301.301 88.2563 301.059 88.2217C300.818 88.1871 300.621 88.1176 300.471 88.0132C300.333 87.8971 300.225 87.7345 300.146 87.5254C300.08 87.3046 300.008 86.9967 299.929 86.6015C299.648 85.2187 299.384 83.8358 299.138 82.4529C298.903 81.07 298.652 79.6812 298.384 78.2867C297.963 76.0671 297.509 73.8708 297.024 71.6978C296.55 69.5247 296.053 67.3459 295.534 65.1613C295.452 64.7894 295.352 64.4234 295.234 64.0632C295.115 63.703 294.989 63.3138 294.855 62.8955C295.061 62.8372 295.258 62.7672 295.444 62.6856C295.643 62.5924 295.837 62.5398 296.026 62.528C296.63 62.4807 297.225 62.451 297.813 62.4386C298.413 62.4146 299.012 62.4023 299.61 62.4016C299.88 62.4012 300.142 62.4125 300.397 62.4355C300.663 62.4584 300.931 62.4697 301.201 62.4694C301.919 62.4453 302.342 62.7528 302.472 63.3919C302.571 63.8102 302.652 64.2344 302.715 64.6644C302.791 65.0828 302.871 65.5069 302.957 65.9369C303.081 66.5296 303.213 67.1106 303.351 67.68C303.49 68.2494 303.609 68.8304 303.71 69.4231C303.933 70.806 304.144 72.189 304.343 73.5719C304.544 74.9433 304.75 76.3204 304.961 77.7034C305.013 78.0288 305.072 78.3542 305.136 78.6796C305.201 78.9933 305.295 79.3128 305.418 79.6382C305.575 79.2311 305.727 78.8241 305.872 78.4171C306.031 77.9985 306.2 77.5856 306.381 77.1786C306.967 75.7947 307.557 74.4224 308.151 73.0617C308.747 71.6894 309.333 70.3055 309.909 68.9099C310.241 68.1424 310.544 67.369 310.819 66.5899C311.093 65.8108 311.38 65.0317 311.678 64.2525C311.694 64.2176 311.704 64.1828 311.709 64.1479C311.713 64.113 311.723 64.0781 311.74 64.0432C311.883 63.7408 312.011 63.4269 312.123 63.1013C312.234 62.7757 312.393 62.4965 312.598 62.2638C312.695 62.1474 312.792 62.0718 312.891 62.0368C313.002 61.9901 313.11 61.9668 313.216 61.9666C313.403 61.9664 313.592 62.001 313.783 62.0706C313.985 62.1401 314.185 62.1747 314.385 62.1744L314.42 62.1744C314.619 62.1742 314.812 62.1739 315 62.1737C315.189 62.1618 315.383 62.1558 315.582 62.1556C316.145 62.1549 316.7 62.1658 317.248 62.1884C317.797 62.1994 318.351 62.2161 318.911 62.2387C319.062 62.2501 319.209 62.2906 319.352 62.3602C319.496 62.4298 319.652 62.4935 319.82 62.5514ZM343.769 75.4769C343.758 76.0232 343.656 76.5929 343.464 77.186C343.283 77.779 343.02 78.3721 342.676 78.9653C342.541 79.198 342.423 79.4306 342.323 79.6632C342.235 79.8958 342.147 80.1283 342.059 80.3609C341.593 81.6285 340.943 82.7393 340.107 83.6934C339.271 84.6476 338.277 85.5089 337.125 86.2775C336.562 86.6501 336.015 86.9879 335.485 87.2907C334.956 87.582 334.42 87.8325 333.878 88.0424C333.337 88.2407 332.779 88.3925 332.203 88.4978C331.637 88.6147 331.032 88.6735 330.388 88.6743C329.673 88.6752 328.973 88.6063 328.287 88.4676C327.614 88.329 326.947 88.1322 326.289 87.8773C325.729 87.6687 325.168 87.4718 324.606 87.2865C324.057 87.0896 323.534 86.8228 323.038 86.4864C322.366 86.0571 321.797 85.558 321.33 84.989C320.875 84.42 320.526 83.752 320.284 82.9852C320.068 82.288 319.917 81.585 319.831 80.876C319.747 80.1555 319.742 79.4116 319.816 78.6443C319.844 78.3305 319.86 78.0166 319.865 77.7028C319.881 77.3889 319.898 77.075 319.914 76.7612C319.95 76.2032 320.026 75.651 320.142 75.1045C320.27 74.5581 320.415 74.0174 320.577 73.4825C320.74 72.936 320.902 72.3953 321.064 71.8604C321.227 71.3139 321.367 70.7675 321.483 70.221C321.639 69.4537 321.926 68.7617 322.344 68.1451C322.774 67.5286 323.255 66.9236 323.787 66.3301C324.784 65.213 325.879 64.3399 327.072 63.7108C328.267 63.0701 329.567 62.6152 330.972 62.3461C331.08 62.3227 331.188 62.2994 331.297 62.276C331.417 62.2526 331.536 62.2408 331.653 62.2407L331.758 62.2406C332.369 62.3212 332.968 62.4018 333.555 62.4825C334.156 62.5515 334.761 62.6321 335.37 62.7244C335.451 62.7359 335.529 62.7649 335.605 62.8113C335.683 62.846 335.757 62.8634 335.827 62.8633C335.851 62.8633 335.875 62.8574 335.9 62.8458C336.144 62.7641 336.384 62.7231 336.618 62.7229C336.841 62.7226 337.053 62.7572 337.255 62.8267C337.459 62.8846 337.654 62.9599 337.842 63.0527C338.029 63.1454 338.216 63.244 338.402 63.3484C338.589 63.4411 338.784 63.5223 338.986 63.5918C339.501 63.7771 339.974 64.0206 340.405 64.3223C340.835 64.624 341.191 65.0072 341.471 65.4718C341.792 65.9944 342.119 66.5113 342.452 67.0223C342.786 67.5334 343.069 68.0735 343.301 68.6428C343.675 69.5722 343.891 70.5949 343.948 71.7107C344.007 72.8148 343.947 74.0702 343.769 75.4769ZM326.962 75.9332C326.827 76.8981 326.751 77.8223 326.733 78.7057C326.727 79.5775 326.9 80.4316 327.251 81.2681C327.467 81.7792 327.72 82.1858 328.01 82.4876C328.3 82.7895 328.628 83.0216 328.994 83.1839C329.361 83.3345 329.77 83.4328 330.222 83.4788C330.686 83.5131 331.188 83.5299 331.727 83.5292C332.359 83.5285 332.856 83.4 333.217 83.1439C333.589 82.8877 333.913 82.4572 334.189 81.8525C334.285 81.6547 334.384 81.4686 334.489 81.2942C334.594 81.1081 334.701 80.9161 334.808 80.7184C334.949 80.4393 335.089 80.1659 335.228 79.8984C335.381 79.6193 335.517 79.3343 335.636 79.0436C335.939 78.311 336.167 77.5784 336.319 76.8459C336.47 76.1134 336.563 75.3869 336.596 74.6662C336.642 73.9338 336.629 73.2073 336.556 72.4868C336.495 71.7662 336.404 71.0514 336.283 70.3425C336.203 69.8661 336.089 69.471 335.942 69.1574C335.796 68.8321 335.6 68.5708 335.356 68.3735C335.123 68.1761 334.842 68.037 334.513 67.956C334.184 67.8634 333.792 67.8174 333.335 67.818C333.265 67.8181 333.194 67.8182 333.124 67.8182C333.065 67.8183 332.994 67.8242 332.911 67.8359C332.405 67.8482 331.944 67.8836 331.526 67.9422C331.122 67.9892 330.751 68.0943 330.414 68.2574C330.077 68.4205 329.766 68.6592 329.48 68.9734C329.194 69.2876 328.923 69.7122 328.668 70.2472C328.22 71.1892 327.842 72.137 327.533 73.0905C327.225 74.044 327.034 74.9916 326.962 75.9332ZM362.514 77.6162C362.787 78.4179 363.052 79.1905 363.309 79.9341C363.566 80.6777 363.81 81.433 364.041 82.1999C364.228 82.8506 364.441 83.478 364.681 84.0821C364.92 84.6862 365.239 85.267 365.637 85.8245C365.758 85.9755 365.841 86.1555 365.885 86.3647C365.928 86.5739 365.958 86.8005 365.974 87.0446C365.991 87.277 365.996 87.5153 365.989 87.7594C365.993 88.0035 366.01 88.2418 366.039 88.4742C365.902 88.5325 365.779 88.5849 365.667 88.6316C365.566 88.6898 365.486 88.719 365.428 88.719C365.404 88.7191 365.387 88.7133 365.377 88.7017C365.223 88.6205 365.066 88.5684 364.905 88.5453C364.744 88.5223 364.581 88.5108 364.417 88.511C364.194 88.5113 363.97 88.5232 363.745 88.5467C363.519 88.5702 363.295 88.5821 363.072 88.5824C362.475 88.5831 361.881 88.5548 361.29 88.4974C360.699 88.4516 360.108 88.4 359.517 88.3426C359.17 88.3082 358.893 88.1806 358.687 87.96C358.492 87.7394 358.35 87.4781 358.259 87.176C357.91 86.0489 357.573 84.9218 357.248 83.7947C356.923 82.656 356.588 81.5173 356.24 80.3786C356.198 80.2508 356.155 80.1288 356.111 80.0126C356.08 79.8848 356.029 79.7337 355.957 79.5595C355.498 79.5833 355.037 79.6129 354.575 79.6483C354.127 79.6721 353.679 79.6959 353.231 79.7197C353.027 81.045 352.827 82.3413 352.631 83.6085C352.437 84.8641 352.236 86.1255 352.028 87.3927C351.988 87.6136 351.953 87.7938 351.924 87.9334C351.896 88.0613 351.854 88.1601 351.798 88.2299C351.741 88.3114 351.664 88.3638 351.568 88.3871C351.471 88.4105 351.34 88.4223 351.176 88.4225L350.79 88.4229C350.019 88.4006 349.255 88.3725 348.498 88.3385C347.741 88.3046 346.977 88.2764 346.206 88.2541C345.902 88.2545 345.705 88.185 345.618 88.0456C345.531 87.8946 345.505 87.6854 345.539 87.418C345.698 86.3485 345.835 85.2731 345.949 84.192C346.275 81.3438 346.589 78.5073 346.889 75.6824C347.201 72.8575 347.508 70.0209 347.811 67.1728C347.873 66.4985 347.923 65.8301 347.96 65.1675C347.998 64.5049 348.047 63.8365 348.109 63.1623C348.124 62.953 348.144 62.7961 348.169 62.6914C348.207 62.5751 348.26 62.4879 348.326 62.4297C348.393 62.3599 348.482 62.3017 348.594 62.255C348.717 62.2084 348.871 62.1501 349.055 62.0801C349.277 61.9985 349.488 61.9459 349.691 61.9224C349.894 61.8873 350.096 61.8696 350.295 61.8694C350.635 61.869 350.96 61.8918 351.27 61.9379C351.593 61.984 351.918 62.0069 352.246 62.0065L352.316 62.0064C352.48 62.0062 352.636 62.0235 352.784 62.0582C352.934 62.0812 353.084 62.0927 353.237 62.0925C353.26 62.0925 353.289 62.0924 353.325 62.0924C353.361 62.0807 353.391 62.0749 353.415 62.0748C354.44 61.9341 355.445 61.8631 356.43 61.8619C357.473 61.8607 358.496 61.9176 359.501 62.0326C360.518 62.1476 361.537 62.2858 362.559 62.4473C363.375 62.5742 364.093 62.829 364.712 63.2119C365.331 63.5947 365.928 64.0182 366.501 64.4825C366.842 64.7494 367.108 65.0571 367.298 65.4056C367.49 65.7425 367.637 66.1026 367.741 66.4861C367.845 66.8695 367.905 67.2705 367.922 67.6889C367.953 68.0957 367.959 68.5083 367.941 68.9268C367.943 69.3685 367.886 69.8161 367.77 70.2695C367.667 70.7113 367.558 71.1532 367.444 71.595C367.289 72.1647 367.08 72.7055 366.816 73.2173C366.552 73.729 366.244 74.2118 365.894 74.6655C365.543 75.1193 365.155 75.5498 364.728 75.9571C364.313 76.3645 363.87 76.7602 363.4 77.1444C363.258 77.2492 363.106 77.3365 362.945 77.4064C362.795 77.4764 362.652 77.5463 362.514 77.6162ZM354.016 74.2266C354.224 74.2496 354.426 74.2726 354.622 74.2956C354.832 74.307 355.036 74.3125 355.235 74.3123C355.903 74.3115 356.556 74.2468 357.193 74.1181C357.844 73.9779 358.498 73.8085 359.156 73.6101C359.571 73.4818 359.897 73.2663 360.134 72.9638C360.372 72.6613 360.534 72.3066 360.621 71.8997C360.734 71.3765 360.788 70.8592 360.783 70.3477C360.777 69.8363 360.707 69.3307 360.571 68.8311C360.466 68.4593 360.302 68.134 360.08 67.8553C359.859 67.565 359.557 67.4084 359.173 67.3857C358.801 67.3629 358.424 67.3343 358.041 67.2998C357.661 67.2538 357.277 67.231 356.89 67.2315C356.515 67.232 356.131 67.2615 355.736 67.3201C355.342 67.3787 354.948 67.4838 354.554 67.6353C354.474 68.7281 354.383 69.815 354.281 70.8961C354.19 71.9772 354.102 73.0874 354.016 74.2266ZM388.387 70.4014C387.926 70.4369 387.457 70.4781 386.983 70.5252C386.521 70.5606 386.053 70.6019 385.579 70.6489C385.554 70.6606 385.512 70.6665 385.453 70.6665C385.184 70.6669 384.988 70.5915 384.867 70.4406C384.747 70.278 384.66 70.0863 384.606 69.8655C384.433 69.0172 384.063 68.3726 383.498 67.9315C382.933 67.4905 382.2 67.2706 381.297 67.2717C380.993 67.272 380.707 67.3072 380.44 67.3773C380.175 67.4358 379.946 67.529 379.754 67.6571C379.562 67.7852 379.381 67.9656 379.211 68.1983C379.041 68.4309 378.937 68.6519 378.899 68.8612C378.845 69.1867 378.851 69.5122 378.915 69.8376C378.981 70.1513 379.09 70.4476 379.242 70.7264C379.405 71.0051 379.608 71.2548 379.85 71.4754C380.103 71.6959 380.38 71.8641 380.682 71.98C381.341 72.2349 382.001 72.4782 382.663 72.7099C383.326 72.9299 383.981 73.1732 384.627 73.4398C385.06 73.6252 385.487 73.8165 385.907 74.0136C386.329 74.1991 386.735 74.4136 387.126 74.6572C387.518 74.8892 387.883 75.1561 388.219 75.4579C388.569 75.7481 388.877 76.0906 389.144 76.4855C389.835 77.4959 390.245 78.5648 390.371 79.6921C390.499 80.8078 390.277 81.9995 389.706 83.2672C389.481 83.744 389.269 84.2209 389.067 84.6977C388.868 85.1629 388.56 85.5991 388.145 86.0064C387.61 86.5302 387.034 86.9609 386.417 87.2988C385.8 87.6366 385.152 87.8931 384.474 88.0683C383.758 88.2667 383.04 88.4303 382.32 88.5591C381.613 88.6878 380.899 88.8165 380.18 88.9452C380.106 88.9686 380.035 88.9803 379.964 88.9804C379.894 88.9805 379.824 88.9805 379.753 88.9806C379.601 88.9808 379.449 88.9752 379.299 88.9637C379.148 88.9523 379.003 88.935 378.866 88.912C378.347 88.8429 377.823 88.7737 377.293 88.7046C376.774 88.6355 376.258 88.549 375.744 88.445C375.242 88.341 374.749 88.2079 374.266 88.0458C373.784 87.872 373.32 87.6517 372.873 87.3849C372.591 87.2109 372.303 87.0311 372.01 86.8455C371.719 86.6482 371.496 86.416 371.343 86.1489C370.881 85.359 370.479 84.5517 370.139 83.7268C369.812 82.8903 369.591 82.0013 369.476 81.06C369.435 80.6416 369.489 80.3102 369.637 80.066C369.799 79.81 370.091 79.6295 370.514 79.5244C370.914 79.4193 371.311 79.3433 371.703 79.2963C372.108 79.2493 372.503 79.2256 372.89 79.2251C373.382 79.2245 373.859 79.253 374.32 79.3106C374.793 79.3681 375.27 79.4431 375.75 79.5355C375.945 79.5701 376.074 79.663 376.137 79.814C376.213 79.9534 376.227 80.1161 376.18 80.3021C376.083 80.7904 376.131 81.2437 376.324 81.6619C376.518 82.0685 376.796 82.4227 377.156 82.7245C377.516 83.0262 377.919 83.264 378.366 83.4379C378.824 83.6116 379.264 83.6983 379.686 83.6978C380.295 83.697 380.882 83.5975 381.446 83.3992C382.012 83.1893 382.472 82.7936 382.827 82.212C383.268 81.514 383.274 80.8631 382.847 80.2592C382.54 79.8178 382.168 79.4696 381.732 79.2144C381.297 78.9476 380.834 78.7157 380.344 78.5187C379.531 78.1826 378.718 77.8523 377.904 77.5278C377.089 77.2033 376.286 76.844 375.492 76.4497C374.852 76.1367 374.256 75.7596 373.702 75.3186C373.162 74.8659 372.709 74.326 372.344 73.6987C371.99 73.0715 371.734 72.4093 371.577 71.712C371.419 71.0148 371.374 70.3116 371.44 69.6025C371.52 68.8818 371.71 68.1725 372.009 67.4747C372.322 66.7653 372.759 66.0906 373.321 65.4506C373.635 65.1015 373.976 64.8105 374.346 64.5776C374.715 64.3447 375.102 64.1117 375.506 63.8788C375.989 63.5876 376.476 63.3487 376.968 63.1621C377.462 62.9639 377.958 62.7948 378.456 62.6547C378.955 62.5146 379.456 62.3978 379.96 62.3042C380.475 62.2106 380.985 62.117 381.489 62.0234C381.872 61.9648 382.247 61.9178 382.614 61.8825C382.994 61.8472 383.371 61.8293 383.746 61.8288C384.59 61.8278 385.411 61.914 386.209 62.0874C387.008 62.2492 387.742 62.5156 388.41 62.8868C389.077 63.2579 389.648 63.7454 390.122 64.3493C390.598 64.9415 390.928 65.6617 391.113 66.51C391.217 66.9865 391.284 67.4746 391.314 67.9744C391.357 68.4625 391.389 68.9507 391.409 69.4388C391.425 69.7759 391.346 70.0259 391.173 70.1888C391.012 70.3518 390.76 70.4451 390.417 70.4687C390.287 70.4805 390.151 70.4923 390.008 70.5041C389.88 70.5042 389.751 70.5044 389.622 70.5046C389.423 70.5048 389.217 70.5051 389.007 70.5053C388.797 70.4939 388.593 70.4884 388.394 70.4886L388.387 70.4014Z" fill="white"/>
<path d="M69.5419 139.472L71.4818 124.194L77.0477 124.165C80.0617 124.149 81.8004 126.212 81.4152 129.246C81.03 132.28 78.7675 134.342 75.7535 134.357L72.1676 134.376L71.5219 139.461L69.5419 139.472ZM72.4004 132.543L75.7883 132.525C77.7463 132.515 79.1638 131.221 79.4132 129.256C79.6626 127.292 78.5721 126.011 76.6142 126.021L73.2262 126.039L72.4004 132.543ZM82.7331 139.403L84.673 124.125L93.8689 124.077L93.6278 125.976L86.4119 126.014L85.8133 130.728L92.6112 130.692L92.3756 132.547L85.5777 132.583L84.9542 137.493L92.3241 137.455L92.083 139.354L82.7331 139.403ZM101.813 139.521C97.4132 139.544 94.6005 136.243 95.1769 131.704C95.7534 127.164 99.4086 123.83 103.808 123.807C107.394 123.788 109.98 125.934 110.461 129.247L108.437 129.257C107.922 127.079 106.095 125.714 103.609 125.727C100.309 125.745 97.6195 128.223 97.1789 131.693C96.7383 135.164 98.8011 137.617 102.101 137.6C104.609 137.587 106.794 136.136 107.871 133.884L109.895 133.873C108.586 137.261 105.399 139.502 101.813 139.521ZM114.709 139.235L116.414 125.813L111.838 125.837L112.073 123.982L123.205 123.924L122.969 125.779L118.393 125.803L116.689 139.225L114.709 139.235ZM130.175 139.372C125.687 139.396 122.831 136.096 123.407 131.556C123.983 127.017 127.683 123.682 132.171 123.659C136.659 123.635 139.515 126.935 138.939 131.475C138.362 136.014 134.663 139.349 130.175 139.372ZM125.409 131.546C124.971 134.994 127.053 137.469 130.419 137.452C133.785 137.434 136.499 134.934 136.937 131.485C137.375 128.037 135.293 125.562 131.927 125.579C128.561 125.597 125.847 128.097 125.409 131.546ZM141.342 139.096L143.282 123.819L148.848 123.789C151.861 123.774 153.6 125.836 153.215 128.87C152.83 131.904 150.567 133.966 147.553 133.982L143.967 134L143.322 139.085L141.342 139.096ZM144.2 132.167L147.588 132.149C149.546 132.139 150.964 130.845 151.213 128.881C151.462 126.916 150.372 125.635 148.414 125.646L145.026 125.663L144.2 132.167ZM151.46 139.043L151.485 138.846L159.604 123.733L161.034 123.726L165.323 138.774L165.298 138.97L163.23 138.981L162.244 135.322L155.446 135.358L153.506 139.032L151.46 139.043ZM156.405 133.521L161.751 133.493L159.912 126.85L156.405 133.521ZM177.493 138.907L178.358 132.097L170.526 132.138L169.661 138.948L167.681 138.958L169.621 123.681L171.601 123.67L170.767 130.24L178.599 130.199L179.433 123.629L181.413 123.619L179.473 138.896L177.493 138.907ZM195.686 139.03C192.1 139.048 189.479 136.837 189.029 133.459L191.031 133.449C191.537 135.692 193.378 137.122 195.886 137.109C198.878 137.094 201.358 135.052 202.111 132.06L194.522 132.1L194.754 130.267L202.344 130.227C202.35 127.239 200.386 125.221 197.394 125.237C194.908 125.25 192.731 126.635 191.662 128.822L189.638 128.832C190.961 125.51 194.096 123.334 197.682 123.316C202.081 123.293 204.894 126.593 204.318 131.133C203.741 135.672 200.086 139.007 195.686 139.03ZM212.374 139.051L212.563 137.567C208.251 137.415 206.21 134.612 206.668 131.011C207.122 127.432 209.878 124.604 214.234 124.407L214.419 122.945L216.399 122.934L216.214 124.396C220.261 124.55 222.594 127.133 222.111 130.931C221.624 134.772 218.635 137.361 214.543 137.557L214.354 139.041L212.374 139.051ZM208.692 131.001C208.337 133.794 209.809 135.706 212.825 135.843L214.059 126.131C211.003 126.299 209.049 128.185 208.692 131.001ZM214.717 135.833C217.663 135.665 219.722 133.822 220.087 130.941C220.453 128.06 218.857 126.258 215.951 126.121L214.717 135.833ZM236.105 138.6L234.125 138.61L235.569 127.24L225.875 138.653L224.313 138.662L226.253 123.384L228.233 123.374L226.778 134.832L236.527 123.331L238.045 123.323L236.105 138.6ZM247.199 138.76C242.711 138.783 239.854 135.483 240.431 130.944C241.007 126.404 244.706 123.07 249.194 123.046C253.682 123.023 256.539 126.323 255.963 130.862C255.386 135.402 251.687 138.736 247.199 138.76ZM242.433 130.933C241.995 134.382 244.077 136.857 247.443 136.839C250.809 136.822 253.523 134.321 253.961 130.873C254.398 127.425 252.316 124.949 248.95 124.967C245.585 124.984 242.871 127.485 242.433 130.933ZM258.365 138.483L260.305 123.206L271.745 123.146L269.805 138.424L267.825 138.434L269.524 125.055L262.044 125.094L260.345 138.473L258.365 138.483ZM280.797 138.584C276.397 138.607 273.584 135.307 274.161 130.767C274.737 126.228 278.392 122.893 282.792 122.87C286.378 122.852 288.964 124.997 289.445 128.31L287.421 128.32C286.906 126.142 285.078 124.778 282.593 124.791C279.293 124.808 276.603 127.287 276.163 130.757C275.722 134.227 277.785 136.681 281.085 136.663C283.593 136.65 285.778 135.199 286.855 132.947L288.879 132.937C287.57 136.324 284.383 138.565 280.797 138.584ZM300.122 138.265L294.858 130.899L294.933 130.31L301.776 122.989L304.086 122.977L304.061 123.173L297.036 130.538L302.545 138.056L302.52 138.252L300.122 138.265ZM291.301 138.311L293.24 123.034L295.22 123.023L293.281 138.301L291.301 138.311ZM311.286 138.425C306.798 138.448 303.941 135.148 304.518 130.608C305.094 126.069 308.793 122.734 313.281 122.711C317.769 122.687 320.626 125.987 320.05 130.527C319.473 135.067 315.774 138.401 311.286 138.425ZM306.52 130.598C306.082 134.046 308.164 136.522 311.53 136.504C314.896 136.486 317.61 133.986 318.048 130.537C318.486 127.089 316.403 124.614 313.038 124.631C309.672 124.649 306.958 127.15 306.52 130.598ZM334.244 138.086L332.264 138.097L333.708 126.726L324.014 138.14L322.453 138.148L324.392 122.871L326.372 122.86L324.917 134.318L334.666 122.817L336.184 122.809L334.244 138.086ZM327.051 120.981L327.259 119.344L334.21 119.308L334.003 120.945L327.051 120.981ZM353.059 137.988L347.795 130.622L347.87 130.032L354.713 122.712L357.023 122.7L356.998 122.896L349.973 130.261L355.482 137.779L355.457 137.975L353.059 137.988ZM344.237 138.034L346.177 122.757L348.157 122.746L346.217 138.024L344.237 138.034ZM359.264 137.955L359.292 137.737L361.81 133.493L358.121 122.89L358.146 122.694L360.28 122.683L361.991 127.734L363.17 131.261L365.173 127.783L368.2 122.641L370.29 122.631L370.265 122.827L361.376 137.944L359.264 137.955ZM369.185 137.903L369.21 137.707L375.561 129.931L371.584 122.82L371.609 122.624L373.875 122.612L376.175 126.656L377.103 128.353L378.46 126.666L381.794 122.57L384.06 122.558L384.035 122.755L378.204 129.896L382.585 137.637L382.561 137.833L380.251 137.846L377.385 132.713L376.707 131.474L375.713 132.722L371.495 137.891L369.185 137.903ZM394.955 137.769L395.82 130.959L387.988 131L387.123 137.81L385.143 137.82L387.083 122.543L389.063 122.532L388.229 129.102L396.061 129.061L396.895 122.491L398.875 122.481L396.935 137.758L394.955 137.769ZM412.941 137.674L410.961 137.685L412.404 126.314L402.711 137.728L401.149 137.736L403.089 122.459L405.069 122.449L403.614 133.906L413.362 122.405L414.88 122.397L412.941 137.674Z" fill="#436421"/>
<defs>
<filter id="filter0_d_573_2958" x="424.141" y="104.184" width="24.8359" height="32.6113" filterUnits="userSpaceOnUse" color-interpolation-filters="sRGB">
<feFlood flood-opacity="0" result="BackgroundImageFix"/>
<feColorMatrix in="SourceAlpha" type="matrix" values="0 0 0 0 0 0 0 0 0 0 0 0 0 0 0 0 0 0 127 0" result="hardAlpha"/>
<feOffset dy="4"/>
<feGaussianBlur stdDeviation="2"/>
<feComposite in2="hardAlpha" operator="out"/>
<feColorMatrix type="matrix" values="0 0 0 0 0 0 0 0 0 0 0 0 0 0 0 0 0 0 0.25 0"/>
<feBlend mode="normal" in2="BackgroundImageFix" result="effect1_dropShadow_573_2958"/>
<feBlend mode="normal" in="SourceGraphic" in2="effect1_dropShadow_573_2958" result="shape"/>
</filter>
<filter id="filter1_d_573_2958" x="39.8359" y="104.582" width="23.9922" height="34.5946" filterUnits="userSpaceOnUse" color-interpolation-filters="sRGB">
<feFlood flood-opacity="0" result="BackgroundImageFix"/>
<feColorMatrix in="SourceAlpha" type="matrix" values="0 0 0 0 0 0 0 0 0 0 0 0 0 0 0 0 0 0 127 0" result="hardAlpha"/>
<feOffset dy="4"/>
<feGaussianBlur stdDeviation="2"/>
<feComposite in2="hardAlpha" operator="out"/>
<feColorMatrix type="matrix" values="0 0 0 0 0 0 0 0 0 0 0 0 0 0 0 0 0 0 0.25 0"/>
<feBlend mode="normal" in2="BackgroundImageFix" result="effect1_dropShadow_573_2958"/>
<feBlend mode="normal" in="SourceGraphic" in2="effect1_dropShadow_573_2958" result="shape"/>
</filter>
<filter id="filter2_d_573_2958" x="36.1172" y="23.2175" width="426.562" height="100.698" filterUnits="userSpaceOnUse" color-interpolation-filters="sRGB">
<feFlood flood-opacity="0" result="BackgroundImageFix"/>
<feColorMatrix in="SourceAlpha" type="matrix" values="0 0 0 0 0 0 0 0 0 0 0 0 0 0 0 0 0 0 127 0" result="hardAlpha"/>
<feOffset dy="4"/>
<feGaussianBlur stdDeviation="4"/>
<feComposite in2="hardAlpha" operator="out"/>
<feColorMatrix type="matrix" values="0 0 0 0 0 0 0 0 0 0 0 0 0 0 0 0 0 0 0.5 0"/>
<feBlend mode="normal" in2="BackgroundImageFix" result="effect1_dropShadow_573_2958"/>
<feBlend mode="normal" in="SourceGraphic" in2="effect1_dropShadow_573_2958" result="shape"/>
</filter>
</defs>
</svg>
